<?xml version="1.0" encoding="UTF-8"?>
<svg id="a" data-name="Design" xmlns="http://www.w3.org/2000/svg" width="500" height="500" viewBox="0 0 500 500">
  <g>
    <path d="m284.197,188.0917h-45.5316c-6.9985,0-12.6907-5.6922-12.6907-12.6907v-45.5316c0-6.9957,5.6922-12.6878,12.6907-12.6878h45.5316c6.9985,0,12.6907,5.6922,12.6907,12.6878v45.5316c0,6.9985-5.6922,12.6907-12.6907,12.6907Zm-45.5316-66.5385c-4.5879,0-8.3191,3.7312-8.3191,8.3162v45.5316c0,4.5879,3.7312,8.3191,8.3191,8.3191h45.5316c4.5879,0,8.3191-3.7312,8.3191-8.3191v-45.5316c0-4.585-3.7312-8.3162-8.3191-8.3162h-45.5316Z" style="fill: #000e52; stroke-width: 0px;"/>
    <path d="m259.4982,263.1028l-5.0233-4.7757c-2.0264-1.9296-49.9202-47.5495-74.997-76.3205-16.2511-18.6447-39.6089-67.3525-8.0715-98.887,11.9023-11.9023,25.7798-17.7766,41.1287-17.6002,20.5402.296,38.0492,11.5238,46.9632,19.7063,8.9111-8.1796,26.4202-19.4103,46.9632-19.7063.2761-.0028.555-.0057.8339-.0057,15.0586,0,28.6116,5.9198,40.2948,17.6058h0c31.5403,31.5374,8.1796,80.2424-8.0743,98.887-25.074,28.771-72.9678,74.3908-74.9942,76.3205l-5.0233,4.7757Zm-47.7658-183.0171c-11.0741,0-21.172,4.4854-30.0233,13.3367-24.0295,24.0295-4.05,64.3214,8.7545,79.01,19.951,22.8882,55.8572,57.8295,69.0345,70.5202,13.1773-12.6907,49.0835-47.6291,69.0317-70.5202,12.8074-14.6886,32.7897-54.9777,8.7574-79.01h0c-8.8513-8.8513-18.9492-13.3367-30.0233-13.3367-.1964,0-.3956,0-.5948.0028-16.7236.2419-32.636,10.761-39.2531,17.7709-2.052,2.1716-4.9379,3.4153-7.9178,3.4153h-.0057c-2.9827-.0028-5.8658-1.2466-7.9121-3.4153-6.6171-7.0099-22.5296-17.529-39.2531-17.7709-.1992-.0028-.3985-.0028-.5948-.0028Z" style="fill: #e8edf3; stroke-width: 0px;"/>
    <path d="m340.4111,127.0651h38.3613c5.0562,0,9.1612,4.105,9.1612,9.1612v8.5661h-56.6836v-8.5661c0-5.0562,4.105-9.1612,9.1612-9.1612Z" style="fill: #bbc9dc; stroke-width: 0px;"/>
    <path d="m359.5916,144.7926h-28.3416v22.3229c0,7.2226,1.7509,13.7883,28.3416,13.7883s28.3421-6.5657,28.3421-13.7883v-22.3229h-28.3421Z" style="fill: #225494; stroke-width: 0px;"/>
    <path d="m294.9703,148.632h-25.2235l6.9368-30.8247c1.0588-4.6984-4.6833-7.8597-8.0896-4.4534l-44.1026,44.1009c-3.0305,3.0305-.8843,8.2087,3.3996,8.2087h25.2235l-6.9368,30.8213c-1.0588,4.7017,4.6833,7.8631,8.0896,4.4567l44.1026-44.1043c3.0305-3.0271.8843-8.2054-3.3996-8.2054Z" style="fill: #00ff64; stroke-width: 0px;"/>
    <path d="m396.1127,134.1486h-44.3889c-1.5347,0-2.7799,1.2452-2.7799,2.7792,0,1.5355,1.2452,2.7806,2.7799,2.7806h44.3889c16.2945,0,29.553,13.257,29.553,29.5537v16.466c0,16.2967-13.2585,29.5537-29.553,29.5537h-87.862l-5.4972,5.5598h93.3592c19.3605,0,35.1121-15.7516,35.1121-35.1135v-16.466c0-19.3619-15.7516-35.1135-35.1121-35.1135Z" style="fill: #8da5c4; stroke-width: 0px;"/>
    <path d="m428.4449,166.7803c-1.534,0-2.7792,1.2452-2.7792,2.7792,0,16.2967-13.2585,29.5551-29.553,29.5551h-72.2371l-5.2916,5.5584h77.5286c19.3605,0,35.1121-15.7516,35.1121-35.1135,0-1.534-1.2452-2.7792-2.7799-2.7792Z" style="fill: #8da5c4; stroke-width: 0px;"/>
  </g>
  <g>
    <path d="m140.4083,214.2341h7.1176c0-6.3189,3.5443-11.4821,10.5336-15.3448,6.5653-3.6277,15.8579-5.7091,25.4955-5.7091,17.904,0,36.0284,7.232,36.0284,21.0539h7.1176c0-8.9766-4.9129-16.4373-14.2087-21.574-7.6977-4.2545-17.9747-6.5976-28.9374-6.5976-10.9633,0-21.2403,2.343-28.938,6.5976-9.2957,5.1366-14.2087,12.5973-14.2087,21.574Z" style="fill: #000e52; stroke-width: 0px;"/>
    <rect x="67.1634" y="213.4416" width="183.2299" height="226.3428" rx="19.4116" ry="19.4116" transform="translate(317.5568 653.2259) rotate(-180)" style="fill: #8da5c4; stroke-width: 0px;"/>
    <path d="m79.8761,239.5662c0-14.4284,11.6964-26.1248,26.1248-26.1248h130.9805c14.4284,0,26.1248,11.6964,26.1248,26.1248v68.6683H79.8761v-68.6683Z" style="fill: #000e52; stroke-width: 0px;"/>
    <path d="m236.9814,439.7842H106.0009c-14.4284,0-26.1248-11.6964-26.1248-26.1242v-105.4255h183.23v105.4255c0,14.4278-11.6964,26.1242-26.1248,26.1242Z" style="fill: #42659f; stroke-width: 0px;"/>
    <rect x="93.1417" y="213.4416" width="183.2299" height="226.3428" rx="19.4116" ry="19.4116" style="fill: #42659f; stroke-width: 0px;"/>
    <rect x="105.7163" y="213.4416" width="183.2299" height="226.3428" rx="19.4116" ry="19.4116" transform="translate(394.6626 653.2259) rotate(-180)" style="fill: #8da5c4; stroke-width: 0px;"/>
    <path d="m116.08,307.1292h158.0807s0-24.7938,0-24.7938c0-3.7068-3.005-6.7118-6.7118-6.7118H122.7918c-3.7068,0-6.7118,3.005-6.7118,6.7118v24.7938Z" style="fill: #42659f; stroke-width: 0px;"/>
    <rect x="116.08" y="307.1292" width="158.0807" height="9.2647" transform="translate(390.2407 623.5232) rotate(-180)" style="fill: #000e52; stroke-width: 0px;"/>
    <path d="m122.7918,423.2025h144.6571c3.7068,0,6.7118-3.005,6.7118-6.7118v-100.0968s-158.0807,0-158.0807,0v100.0968c0,3.7068,3.005,6.7118,6.7118,6.7118Z" style="fill: #42659f; stroke-width: 0px;"/>
    <path d="m268.7622,324.6092l-1.7521-11.9206c-.4149-2.8227,1.3042-5.5224,4.0375-6.3403h0c2.7333-.818,5.6528.4935,6.8567,3.0802l5.0842,10.9235c1.9305,4.1478-.2684,9.0429-4.6515,10.3546h0c-4.383,1.3117-8.9095-1.5708-9.5748-6.0973Zm3.2264.2083c.6957,2.3247,3.1441,3.6452,5.4688,2.9495,2.3247-.6957,3.6452-3.1441,2.9495-5.4688-.6957-2.3247-3.1441-3.6452-5.4688-2.9495-2.3247.6957-3.6452,3.1441-2.9495,5.4688Z" style="fill: #000e52; stroke-width: 0px;"/>
    <path d="m69.196,312.832l7.1902-9.6681c1.7026-2.2893,4.8272-2.9827,7.3383-1.6283h0c2.5111,1.3544,3.6482,4.3461,2.6704,7.0264l-4.129,11.3191c-1.5679,4.298-6.5841,6.2045-10.6109,4.0327h0c-4.0267-2.1718-5.1892-7.4107-2.459-11.0819Zm2.1341,2.4287c-1.1519,2.1357-.3543,4.8008,1.7814,5.9526,2.1357,1.1519,4.8008.3543,5.9526-1.7814,1.1519-2.1357.3543-4.8008-1.7814-5.9526-2.1357-1.1519-4.8008-.3543-5.9526,1.7814Z" style="fill: #000e52; stroke-width: 0px;"/>
    <polygon points="161.0781 352.874 183.1052 352.874 183.1052 330.8464 207.1351 330.8464 207.1351 352.874 229.1627 352.874 229.1627 376.9039 207.1351 376.9039 207.1351 398.9314 183.1052 398.9314 183.1052 376.9039 161.0781 376.9039 161.0781 352.874" style="fill: #fff; stroke-width: 0px;"/>
  </g>
</svg>