<?xml version="1.0" encoding="UTF-8"?>
<svg id="a" data-name="Design" xmlns="http://www.w3.org/2000/svg" width="500" height="500" viewBox="0 0 500 500">
  <polygon points="170.9822 147.5176 243.3424 174.5717 238.5541 236.3851 172.5328 251.528 200.6542 307.9848 127.9475 311.775 85.3248 226.4185 70.5165 145.4364 50.9833 280.2772 170.9822 147.5176" style="fill: none; stroke: #a4b7d0; stroke-miterlimit: 10; stroke-width: .9767px;"/>
  <polyline points="85.325 226.4181 170.8973 250.9177 171.1527 147.0677 127.7458 312.3073" style="fill: none; stroke: #a4b7d0; stroke-miterlimit: 10; stroke-width: .9767px;"/>
  <g>
    <path d="m84.5535,256.0246c-12.4594-4.3162-19.0614-17.9162-14.7437-30.3756,4.3162-12.4609,17.9162-19.0614,30.3771-14.7436,12.4594,4.3162,19.0599,17.9162,14.7437,30.3756-4.3178,12.4594-17.9177,19.0599-30.3771,14.7436" style="fill: #42659f; stroke-width: 0px;"/>
    <path d="m232.0995,255.0069c-10.2854-3.5644-15.735-14.7904-12.1706-25.0778,3.5625-10.2834,14.7905-15.733,25.0758-12.1706,10.2854,3.5644,15.735,14.7924,12.1706,25.0778-3.5625,10.2854-14.7905,15.735-25.0758,12.1706" style="fill: #000e52; stroke-width: 0px;"/>
    <path d="m146.259,205.4816c-32.0124-11.0912-48.9723-46.0323-37.8811-78.0476,11.0912-32.0124,46.0352-48.9723,78.0476-37.8783,32.0124,11.0912,48.9723,46.0323,37.8811,78.0448-11.0912,32.0124-46.0352,48.9751-78.0476,37.8811" style="fill: #42659f; stroke-width: 0px;"/>
    <g>
      <g>
        <g>
          <polygon points="200.0404 184.1457 138.522 184.1457 138.522 105.9011 177.6181 105.9011 200.0404 128.3234 200.0404 184.1457" style="fill: #fff; stroke-width: 0px;"/>
          <polygon points="200.0404 128.3234 177.6181 128.3234 177.6181 105.9011 200.0404 128.3234" style="fill: #e8edf3; stroke-width: 0px;"/>
        </g>
        <rect x="144.4183" y="111.6446" width="28.776" height="4.345" style="fill: #d1dbe7; stroke-width: 0px;"/>
        <rect x="144.4183" y="118.933" width="22.1081" height="4.345" style="fill: #d1dbe7; stroke-width: 0px;"/>
      </g>
      <g>
        <path d="m169.3158,138.128c.7668-1.3659,1.0204-3.7551.883-4.823-.0508-.3943.1602-.7785.5274-.9308.3638-.1509.8947-.2256,1.6247-.0013.2438.0749.4359.2628.5143.5055.234.7247.5555,2.4825-.5293,5.1117l-3.0201.1379Z" style="fill: #42659f; stroke-width: 0px;"/>
        <path d="m172.3359,137.9901c.7583.1441,2.4626-2.7569,2.9572-3.6747.1012-.1878.299-.3014.5123-.2967.4361.0098,1.1024.1844,1.1654,1.1464,0,0-.7891,2.9912-1.8753,5.0916l-2.7596-2.2666Z" style="fill: #42659f; stroke-width: 0px;"/>
        <path d="m166.4507,146.4652c-3.1645-1.3102-10.4486,2.0693-12.1213,4.0645-.8655,1.0323-.7242,5.0575.2082,8.536.8697,3.2446,2.0614,6.3872,2.7168,7.2523,1.3579,1.7925,8.6232,10.4401,11.8651,10.7478,4.2095.3994,10.6232-9.7928,11.0568-16.2269.3338-4.9531-1.2978-13.3583-3.2963-14.084-1.9985-.7256-10.4292-.2897-10.4292-.2897Z" style="fill: #bbc9dc; stroke-width: 0px;"/>
        <path d="m161.7794,145.7133c-.7134-4.5602,3.5674-9.7371,8.1663-9.5306,4.5989.2065,6.9882,3.0836,6.585,7.0511l-.9626,1.9183-3.1986-.6044-3.0073.2107-2.4661,1.9455-1.0035,3.1745s-2.9887-.8232-4.1133-4.1651Z" style="fill: #8da5c4; stroke-width: 0px;"/>
        <path d="m169.7864,141.6999s2.5975-1.1087,3.6277,1.1749c.6688,1.4826-2.0614,1.9901-2.0614,1.9901l-2.0381-1.0227.4718-2.1423Z" style="fill: #42659f; stroke-width: 0px;"/>
        <path d="m177.167,147.4518c.908.2672,3.2077.4569,4.235.2591.2545-.049.5103.0888.6065.3295.1855.4641.3224,1.239-.2674,2.0711,0,0-3.2596.1639-5.7053-.3261-2.4458-.4899,1.1312-2.3336,1.1312-2.3336Z" style="fill: #a4b7d0; stroke-width: 0px;"/>
        <path d="m177.856,149.5089c.774.5449,2.8907,1.4635,3.927,1.6064.2568.0354.4547.2481.4684.5069.0265.4991-.0929,1.2768-.9188,1.8753,0,0-3.1393-.8924-5.2979-2.1424-2.1585-1.25,1.8212-1.8463,1.8212-1.8463Z" style="fill: #a4b7d0; stroke-width: 0px;"/>
        <path d="m179.9398,155.0569c-.3922.6046-.8409-.1096-2.6552-1.2874-1.8144-1.1773-4.5526-2.7036-4.5041-5.2641,0,0,2.1453-4.4259,3.4304-4.0016.9003.2974,2.2657,1.6491,3.0114,3.1889.0103.0207.0202.0422.0303.0633.301.6383.4937,1.3066.5017,1.9434.0017.1429.0058.287.0116.4318.0046.1187.0105.2375.0172.357.052.8989.1601,1.811.2309,2.5895.0851.9409.1156,1.6872-.0742,1.9791Z" style="fill: #a4b7d0; stroke-width: 0px;"/>
        <path d="m179.2223,147.6928l-.0516.0576c-2.1112-.9948-5.837.1001-6.3901.755,0,0,2.1453-4.4259,3.4304-4.0016.9003.2974,2.2657,1.6491,3.0114,3.1889Z" style="fill: #8da5c4; stroke-width: 0px;"/>
        <path d="m169.584,141.5251c1.2382,1.1216,2.9969,1.8039,5.9975,1.0083l-.9663,4.5178s-4.4422,2.0733-4.376,6.5276c0,0-3.9494-1.7003-4.3465-3.7005,0,0-.473-4.8398,3.6912-8.3533Z" style="fill: #a4b7d0; stroke-width: 0px;"/>
        <path d="m169.7864,141.6999c-1.3759.7946-2.8155,3.4133-2.4736,5.4912s-.6913,3.8083-2.1774,4.586c-1.4861.7777-2.0415-3.6915-2.0415-3.6915,0,0,1.4546-4.1203,1.4976-4.242.043-.1217,2.1557-2.6812,2.1557-2.6812l.9715-1.125,2.0678,1.6626Z" style="fill: #6884b2; stroke-width: 0px;"/>
        <path d="m175.5814,142.5335c3.3096-.3354,4.7594.7294,6.0955,1.7066.3649.2669.4891.7577.2974,1.1671-.287.6129-.8701,1.4115-1.9269,1.259,0,0-2.0305-1.2097-5.4321.3852l-2.7176-1.3636,3.6838-3.1542Z" style="fill: #a4b7d0; stroke-width: 0px;"/>
        <path d="m165.9316,147.5526s1.6611-7.1585,6.4518-6.2234l-1.7957-2.6022-4.8153.2247s-2.1634,6.3553-2.3241,6.875c-.1607.5197,2.4833,1.7258,2.4833,1.7258Z" style="fill: #8da5c4; stroke-width: 0px;"/>
        <path d="m168.6402,136.5504s.3114.1011.328.5482c.0179.4812-.3426.8977-.8196.9636-.9486.131-2.9578.9641-4.6462,5.3796l-1.4386.7852.6263-3.6097,3.4257-3.9115,2.2681-.9851.2564.8298Z" style="fill: #6884b2; stroke-width: 0px;"/>
        <path d="m157.5641,144.9886c.8347-2.2434,2.7966-10.8938,2.3926-14.3472-.0393-.3358.1172-.6649.3996-.8508.4853-.3195,1.3064-.6225,2.2818-.0212.3249.2003.481.5892.3947.9609-.3491,1.5049-1.141,5.5953.4478,6.03.863.2361,2.8693-2.4359,5.027-2.1008,0,0,1.059.8955.1326,1.8908,0,0-4.1585.363-6.2948,8.5758l-4.7813-.1376Z" style="fill: #8da5c4; stroke-width: 0px;"/>
        <path d="m162.7562,142.969c-4.7946-2.6351-8.3595,2.5499-9.0337,8.2802-.5833,4.9584,1.1948,9.1593,1.1948,9.1593.6661-.0786,2.76-5.9575,8.732-7.8539,4.5519-1.4454,3.1423-7.3679-.8931-9.5857Z" style="fill: #a4b7d0; stroke-width: 0px;"/>
      </g>
    </g>
    <path d="m166.9265,262.3796c-6.3308-2.1921-9.6834-9.1032-7.4913-15.434,2.1941-6.3308,9.1032-9.6834,15.434-7.4893,6.3308,2.1921,9.6834,9.1032,7.4913,15.4321-2.1941,6.3308-9.1032,9.6834-15.434,7.4913" style="fill: #42659f; stroke-width: 0px;"/>
    <path d="m64.3066,163.3421c-9.8913-3.4258-15.1311-14.2221-11.7032-24.1134,3.4258-9.8894,14.2221-15.1291,24.1134-11.7033,9.8893,3.4278,15.1311,14.2241,11.7032,24.1115-3.4258,9.8913-14.2221,15.133-24.1134,11.7052" style="fill: #000e52; stroke-width: 0px;"/>
    <path d="m48.7746,286.6395c-3.5149-1.2179-5.3764-5.0556-4.1605-8.5685,1.2179-3.5169,5.0556-5.3783,8.5705-4.1605,3.5149,1.2179,5.3764,5.0556,4.1585,8.5705-1.2179,3.513-5.0536,5.3764-8.5685,4.1585" style="fill: #000e52; stroke-width: 0px;"/>
    <path d="m240.7902,181.8606c-3.5149-1.2178-5.3764-5.0556-4.1585-8.5685,1.2179-3.5149,5.0536-5.3784,8.5685-4.1605,3.5149,1.2178,5.3783,5.0556,4.1585,8.5685-1.2159,3.5149-5.0536,5.3784-8.5685,4.1605" style="fill: #42659f; stroke-width: 0px;"/>
    <path d="m197.8807,314.1376c-3.5149-1.2198-5.3764-5.0556-4.1585-8.5705,1.2179-3.5149,5.0536-5.3764,8.5685-4.1585s5.3764,5.0536,4.1585,8.5685c-1.2178,3.5149-5.0536,5.3764-8.5685,4.1605" style="fill: #42659f; stroke-width: 0px;"/>
    <path d="m121.1811,331.2976c-10.7824-3.7367-16.4954-15.5053-12.7587-26.2897,3.7347-10.7805,15.5033-16.4935,26.2877-12.7587,10.7824,3.7367,16.4954,15.5053,12.7587,26.2897-3.7347,10.7805-15.5053,16.4935-26.2877,12.7587" style="fill: #000e52; stroke-width: 0px;"/>
  </g>
  <g>
    <rect x="254.1481" y="283.1673" width="93.3244" height="143.9153" style="fill: #e8edf3; stroke-width: 0px;"/>
    <rect x="249.2361" y="267.3068" width="103.1483" height="15.8605" style="fill: #000e52; stroke-width: 0px;"/>
    <rect x="163.9429" y="302.7467" width="90.2052" height="124.3359" transform="translate(418.091 729.8293) rotate(180)" style="fill: #f4f6f9; stroke-width: 0px;"/>
    <rect x="347.4268" y="302.7467" width="90.2052" height="124.3359" transform="translate(785.0588 729.8293) rotate(180)" style="fill: #f4f6f9; stroke-width: 0px;"/>
    <rect x="174.8677" y="311.0952" width="29.9199" height="108.3427" transform="translate(379.6552 730.533) rotate(180)" style="fill: #d1dbe7; stroke-width: 0px;"/>
    <rect x="214.1548" y="311.0952" width="29.9199" height="108.3427" transform="translate(458.2294 730.533) rotate(180)" style="fill: #d1dbe7; stroke-width: 0px;"/>
    <rect x="357.9259" y="311.0952" width="29.9199" height="108.3427" transform="translate(745.7718 730.533) rotate(180)" style="fill: #d1dbe7; stroke-width: 0px;"/>
    <rect x="397.213" y="311.0952" width="29.9199" height="108.3427" transform="translate(824.3459 730.533) rotate(180)" style="fill: #d1dbe7; stroke-width: 0px;"/>
    <polygon points="157.1002 299.7251 254.1481 298.5597 254.1481 302.7467 157.1002 302.7467 157.1002 299.7251" style="fill: #000e52; stroke-width: 0px;"/>
    <polygon points="444.5204 299.7251 347.4725 298.5597 347.4725 302.7467 444.5204 302.7467 444.5204 299.7251" style="fill: #000e52; stroke-width: 0px;"/>
    <rect x="265.0553" y="377.8701" width="71.5099" height="10.9593" style="fill: #42659f; stroke-width: 0px;"/>
    <rect x="273.8512" y="388.8293" width="53.9182" height="38.2533" style="fill: #a4b7d0; stroke-width: 0px;"/>
    <rect x="280.8243" y="388.8293" width="39.9719" height="38.2533" style="fill: #8ea3c5; stroke-width: 0px;"/>
    <circle cx="299.7237" cy="321.1135" r="21.3884" style="fill: #000e52; stroke-width: 0px;"/>
    <polygon points="312.5617 317.4372 304.2549 317.4372 304.2549 309.1302 295.1928 309.1302 295.1928 317.4372 286.8858 317.4372 286.8858 326.4993 295.1928 326.4993 295.1928 334.8062 304.2549 334.8062 304.2549 326.4993 312.5617 326.4993 312.5617 317.4372" style="fill: #00ff64; stroke-width: 0px;"/>
  </g>
</svg>