<?xml version="1.0" encoding="UTF-8"?>
<svg id="a" data-name="Design" xmlns="http://www.w3.org/2000/svg" width="500" height="500" viewBox="0 0 500 500">
  <g>
    <path d="m411.3074,378.4477v-201.3872h20.1414c3.3971,0,6.1618,2.7326,6.1618,6.0903v189.2065c0,3.3577-2.7646,6.0903-6.1618,6.0903h-20.1414Z" style="fill: #000e52; stroke-width: 0px;"/>
    <rect x="265.2285" y="358.1732" width="79.0816" height="78.1777" style="fill: #42659f; stroke-width: 0px;"/>
    <rect x="332.4737" y="373.6108" width="11.7087" height="59.1983" style="fill: #000e52; stroke-width: 0px;"/>
    <path d="m429.796,378.4477H129.4225c-2.2679,0-4.1062-1.8395-4.1062-4.105v-193.176c0-2.2679,1.8383-4.1062,4.1062-4.1062h300.3735c2.2666,0,4.1049,1.8383,4.1049,4.1062v193.176c0,2.2655-1.8383,4.105-4.1049,4.105" style="fill: #42659f; stroke-width: 0px;"/>
    <path d="m367.3564,436.8036h-163.8624c0-6.3222,5.1257-11.4479,11.4479-11.4479h140.9666c6.3221,0,11.4479,5.1257,11.4479,11.4479" style="fill: #000e52; stroke-width: 0px;"/>
    <rect x="129.9793" y="182.8203" width="298.925" height="190.2556" transform="translate(558.8836 555.8963) rotate(-180)" style="fill: #e8edf3; stroke-width: 0px;"/>
    <g>
      <rect x="283.3435" y="230.547" width="124.5362" height="134.4269" rx="4.4124" ry="4.4124" style="fill: #d1dbe7; stroke-width: 0px;"/>
      <g>
        <g>
          <rect x="342.17" y="276.3068" width="53.7126" height="6.5522" style="fill: #fff; stroke-width: 0px;"/>
          <rect x="342.17" y="287.9276" width="36.9816" height="6.5522" style="fill: #fff; stroke-width: 0px;"/>
          <g>
            <rect x="295.3407" y="265.721" width="39.3338" height="39.3338" rx="10.2165" ry="10.2165" style="fill: #e8edf3; stroke-width: 0px;"/>
            <g>
              <path d="m326.7557,273.0607c1.0088.919,1.5493,2.1671,1.6085,3.4388s-.3629,2.5646-1.2819,3.5734l-15.7844,17.3266c-1.8378,2.0173-4.9933,2.1632-7.0109.3252-1.0088-.919-1.5493-2.1672-1.6097-3.4375-.0578-1.2703.3643-2.5633,1.2832-3.572l15.7844-17.3266c1.838-2.0176,4.9935-2.1656,7.0108-.3279Z" style="fill: #6884b2; stroke-width: 0px;"/>
              <path d="m318.613,281.9989c1.0088.919,1.5494,2.167,1.6096,3.4375.0592,1.2716-.3629,2.5646-1.2819,3.5734l-7.6429,8.3897c-1.8378,2.0173-4.9933,2.1632-7.0109.3252-1.0088-.919-1.5493-2.1672-1.6097-3.4375-.0578-1.2703.3643-2.5633,1.2832-3.572l7.6429-8.3897c1.838-2.0176,4.9923-2.1644,7.0096-.3266Z" style="fill: #000e52; stroke-width: 0px;"/>
              <path d="m305.8161,291.3566l.1176.1071c.2854.26.7326.2394.9931-.0465l9.5895-10.5264c-.6671-.1716-1.3548-.2032-2.0309-.0951l-8.7157,9.5673c-.2605.2859-.2394.7331.0465.9936Z" style="fill: #d1dbe7; stroke-width: 0px;"/>
              <path d="m320.8256,273.8361l-6.3402,6.9597c.6761-.1081,1.3638-.0765,2.0309.0951l5.4665-6.0006c.2607-.2862.2396-.7334-.0458-.9934l-.1176-.1071c-.2859-.2605-.7331-.2399-.9938.0463Z" style="fill: #8ea3c5; stroke-width: 0px;"/>
            </g>
          </g>
        </g>
        <g>
          <rect x="342.17" y="321.6512" width="53.7126" height="6.5522" style="fill: #fff; stroke-width: 0px;"/>
          <rect x="342.17" y="333.272" width="36.9816" height="6.5522" style="fill: #fff; stroke-width: 0px;"/>
          <g>
            <rect x="295.3407" y="312.3308" width="39.3338" height="39.3338" rx="10.2165" ry="10.2165" style="fill: #bbc9dc; stroke-width: 0px;"/>
            <g id="b" data-name="MEDIKAMENTENSCHACHTEL">
              <rect x="300.2814" y="325.4681" width="30.4788" height="14.9996" style="fill: #f4f6f9; stroke-width: 0px;"/>
              <rect x="311.1177" y="325.4681" width="19.6425" height="14.9996" style="fill: #99d7cb; stroke-width: 0px;"/>
              <rect x="325.8847" y="325.4681" width="4.8755" height="14.9996" style="fill: #00766e; stroke-width: 0px;"/>
              <rect x="312.3994" y="326.9313" width="10.4883" height="1.5285" style="fill: #ccebe5; stroke-width: 0px;"/>
              <rect x="312.3994" y="329.9735" width="5.7126" height=".7642" style="fill: #ccebe5; stroke-width: 0px;"/>
            </g>
          </g>
        </g>
      </g>
    </g>
    <rect x="135.9833" y="230.6824" width="53.9639" height="135.2365" transform="translate(325.9306 596.6012) rotate(-180)" style="fill: #a7bbd4; stroke-width: 0px;"/>
    <rect x="129.9793" y="202.4346" width="298.925" height="23.2976" style="fill: #a7bbd4; stroke-width: 0px;"/>
    <rect x="129.9793" y="182.6081" width="298.925" height="20.1796" style="fill: #00ff64; stroke-width: 0px;"/>
    <rect x="153.4623" y="239.4919" width="31.068" height="5.6136" transform="translate(337.9925 484.5974) rotate(-180)" style="fill: #fff; stroke-width: 0px;"/>
    <rect x="295.3407" y="242.3755" width="100.5418" height="12.2551" transform="translate(691.2233 497.0061) rotate(-180)" style="fill: #bbc9dc; stroke-width: 0px;"/>
    <rect x="153.4623" y="253.2627" width="31.068" height="5.6136" transform="translate(337.9925 512.139) rotate(-180)" style="fill: #fff; stroke-width: 0px;"/>
    <rect x="153.4623" y="267.0335" width="31.068" height="5.6136" transform="translate(337.9925 539.6806) rotate(-180)" style="fill: #fff; stroke-width: 0px;"/>
    <rect x="153.4623" y="280.8043" width="31.068" height="5.6136" transform="translate(337.9925 567.2223) rotate(-180)" style="fill: #fff; stroke-width: 0px;"/>
    <rect x="142.1855" y="239.492" width="8.24" height="5.6136" transform="translate(292.611 484.5977) rotate(-180)" style="fill: #000e52; stroke-width: 0px;"/>
    <rect x="142.1855" y="253.2628" width="8.24" height="5.6136" transform="translate(292.611 512.1393) rotate(-180)" style="fill: #000e52; stroke-width: 0px;"/>
    <rect x="142.1855" y="267.0336" width="8.24" height="5.6136" transform="translate(292.611 539.6809) rotate(-180)" style="fill: #000e52; stroke-width: 0px;"/>
    <rect x="142.1855" y="280.8045" width="8.24" height="5.6136" transform="translate(292.611 567.2225) rotate(-180)" style="fill: #000e52; stroke-width: 0px;"/>
    <rect x="195.3038" y="230.7112" width="78.6808" height="17.619" transform="translate(469.2883 479.0414) rotate(-180)" style="fill: #fff; stroke-width: 0px;"/>
    <rect x="195.3038" y="252.2213" width="78.6808" height="17.619" transform="translate(469.2883 522.0617) rotate(-180)" style="fill: #fff; stroke-width: 0px;"/>
    <rect x="195.3038" y="273.7314" width="78.6808" height="17.619" transform="translate(469.2883 565.0819) rotate(-180)" style="fill: #fff; stroke-width: 0px;"/>
    <rect x="195.3038" y="295.2416" width="78.6808" height="17.619" transform="translate(469.2883 608.1021) rotate(-180)" style="fill: #fff; stroke-width: 0px;"/>
  </g>
  <g>
    <rect x="56.4736" y="77.5491" width="137.6853" height="139.8091" rx="68.8426" ry="68.8426" transform="translate(250.6325 294.9074) rotate(-180)" style="fill: #fff; stroke-width: 0px;"/>
    <g>
      <g>
        <path d="m185.7415,181.5191c-1.9233-13.3787-31.3218-17.95-27.6841-38.4392,4.2373-23.8628.6475-37.9004-15.4668-43.3789-4.4331-1.842-9.7847-2.7449-15.4141-2.6633-5.6294-.0815-10.981.8213-15.4146,2.6633-16.1138,5.4785-18.6064,23.0557-19.7563,47.6685-1.0767,23.05-18.7039,16.5829-20.2974,44.3186,12.6191,15.6497,31.939,25.6702,53.6079,25.6702h0c26.0615,0,48.7363-14.4841,60.4253-35.8391Z" style="fill: #733826; stroke-width: 0px;"/>
        <path d="m149.6898,189.3304c-.0669-.0107-.1333-.0212-.2002-.0317-6.3159-.9961-10.9971-6.3853-10.9971-12.7798v-27.2351c0-7.1069-5.7612-12.8679-12.8682-12.8679s-12.8682,5.761-12.8682,12.8679v27.2363c0,6.3943-4.6807,11.7834-10.9966,12.7798-.0669.0105-.1338.0212-.2012.0317-5.0469.803-8.7886,5.1082-8.7886,10.2185v9.6365c9.6919,5.2102,20.772,8.1716,32.5464,8.1716h0c12.0249,0,23.3252-3.0903,33.1626-8.509v-9.3003c0-5.1106-3.7422-9.416-8.7891-10.2185Z" style="fill: #ffae7a; stroke-width: 0px;"/>
        <circle cx="147.669" cy="142.491" r="8.1934" style="fill: #ffae7a; stroke-width: 0px;"/>
        <circle cx="104.2085" cy="142.491" r="8.1934" style="fill: #ffae7a; stroke-width: 0px;"/>
        <circle cx="149.8564" cy="150.1191" r="1.5676" style="fill: #fff; stroke-width: 0px;"/>
        <path d="m128.982,160.2487s-15.7646,12.3511-2.3735,11.8629c9.0326-.3293,11.8838-1.6756,11.8838-1.6756v-12.1908l-9.5103,2.0035Z" style="fill: #e89966; stroke-width: 0px;"/>
        <circle cx="149.8564" cy="150.1191" r="1.5676" style="fill: #fff; stroke-width: 0px;"/>
        <circle cx="102.1301" cy="150.1191" r="1.5676" style="fill: #fff; stroke-width: 0px;"/>
        <path d="m114.6528,168.7489l.5857.3527c3.2857,1.9786,7.0485,3.0241,10.884,3.0241h0c4.038,0,7.9913-1.1588,11.3903-3.3389h0c6.5903-4.2269,10.9672-11.1584,11.9506-18.9257l.4304-3.3994,1.089-14.1005c.1671-2.1638-4.8037-7.9455-5.2043-10.0784-3.0007-15.9764-7.555-17.2026-20.0024-17.2026h0c-12.4475,0-22.8,8.9695-24.9469,20.7978-.3876,2.1354-.4269,4.3194-.2598,6.4832l1.0195,13.2012.4706,3.7973c.9981,8.0539,5.6412,15.2026,12.5935,19.3892Z" style="fill: #ffae7a; stroke-width: 0px;"/>
        <path d="m126.6838,104.2482c-11.0458-.0974-17.5457-.4208-17.5457,17.0757,0,.7219,35.0916.7219,35.0916,0,0-17.4965-6.5002-17.1731-17.5459-17.0757Z" style="fill: #733826; stroke-width: 0px;"/>
        <path d="m100.7775,135.0579s4.8809-2.9924,7.2537-14.674c2.3728-11.6816,5.183-11.6816,5.183-11.6816l30.4113,1.6118s2.2975,19.044,7.1603,24.597h0c1.177-2.2043,1.7814-4.518,1.7814-7.0169v-8.1189c0-6.1155-4.9576-11.073-11.073-11.073h-31.1511c-6.1155,0-11.073,4.9576-11.073,11.073v8.3585c0,1.6842.2798,3.3567.8278,4.9493l.6796,1.9748Z" style="fill: #733826; stroke-width: 0px;"/>
        <path d="m134.5713,134.4254c.4575-1.3869,2.0986-1.054,2.2192.3463.0701.8149.0811,2.3219-.7743,2.7749-.6715.3555-1.3041-.1597-1.513-.7854-.1531-.459-.1938-1.5417.0681-2.3357Z" style="stroke-width: 0px;"/>
        <path d="m114.0113,134.4989c.429-1.3001,1.9673-.988,2.0804.3246.0657.7639.0761,2.1767-.7259,2.6013-.6295.3333-1.2226-.1496-1.4182-.7362-.1436-.4303-.1817-1.4452.0638-2.1897Z" style="stroke-width: 0px;"/>
        <path d="m124.6353,148.2725c1.7657-2.4022.7866-5.732.1701-8.3359-.1947-.8221,1.2159-1.1736,1.4113-.3481.7082,2.9917,1.703,6.5961-.3178,9.3451-.5155.7013-1.7834.0459-1.2637-.661Z" style="fill: #d38c5d; stroke-width: 0px;"/>
        <path d="m125.8772,153.6304c1.1686-.0068,4.925-.3593,5.4761.5548.8133,1.3489-2.4841,3.302-3.6221,3.5285-3.211.639-8.6118-.6692-8.9948-3.1348-.1874-1.2063,3.9492-.93,7.1408-.9485Z" style="fill: #fff; stroke-width: 0px;"/>
        <path d="m118.1929,129.4101c.0443-.0744.063-.1605.0488-.2602-.0652-.4593-1.3945-.7916-1.8405-.8896-.8885-.1953-1.8726-.1453-2.7826-.0347-1.1667.1419-2.9108.3563-3.8081,1.0883-1.4167,1.156,1.4248,1.0233,2.1711.9772,1.3441-.083,2.6868-.1955,4.0242-.3501.4784-.0553,1.8941-.0385,2.1871-.5309Z" style="fill: #733826; stroke-width: 0px;"/>
        <path d="m131.7733,129.4101c-.0443-.0744-.063-.1605-.0488-.2602.0652-.4593,1.3945-.7916,1.8405-.8896.8885-.1953,1.8726-.1453,2.7826-.0347,1.1667.1419,2.9108.3563,3.8081,1.0883,1.4167,1.156-1.4248,1.0233-2.1711.9772-1.3441-.083-2.6868-.1955-4.0242-.3501-.4784-.0553-1.8941-.0385-2.1871-.5309Z" style="fill: #733826; stroke-width: 0px;"/>
        <circle cx="114.3365" cy="135.9866" r="7.1642" style="fill: #fff; opacity: .3; stroke-width: 0px;"/>
        <circle cx="136.0226" cy="135.9866" r="7.1642" style="fill: #fff; opacity: .3; stroke-width: 0px;"/>
        <path d="m129.6687,135.9716h-8.8831c-.296,0-.5362-.2402-.5362-.5362s.2402-.5362.5362-.5362h8.8831c.296,0,.5362.2402.5362.5362s-.2402.5362-.5362.5362Z" style="fill: #fff; stroke-width: 0px;"/>
        <path d="m150.5289,133.5467h-8.1682c-.296,0-.5362-.2402-.5362-.5362s.2402-.5362.5362-.5362h8.1682c.296,0,.5362.2402.5362.5362s-.2402.5362-.5362.5362Z" style="fill: #fff; stroke-width: 0px;"/>
        <path d="m108.1633,133.5467h-6.0228c-.296,0-.5362-.2402-.5362-.5362s.2402-.5362.5362-.5362h6.0228c.296,0,.5362.2402.5362.5362s-.2402.5362-.5362.5362Z" style="fill: #fff; stroke-width: 0px;"/>
      </g>
      <path d="m156.47,190.659c-2.606-.6465-5.3848-1.1672-8.1172-1.6643,0,0-7.9771,6.7688-20.7529,6.7686-7.5259-.0002-23.2031-7.2234-23.2031-7.2234,0,0-6.1665,1.5898-8.9722,2.3025-5.8354,1.4827-10.5107,5.7771-13.0811,11.438,11.7788,9.4272,26.7119,15.0779,42.9727,15.0779h0c16.8247,0,32.2324-6.0435,44.1909-16.0671-2.7837-5.2827-7.3857-9.2305-13.0371-10.6321Z" style="fill: #ee8360; stroke-width: 0px;"/>
    </g>
  </g>
</svg>