<?xml version="1.0" encoding="UTF-8"?>
<svg xmlns="http://www.w3.org/2000/svg" width="500" height="500" xmlns:xlink="http://www.w3.org/1999/xlink" viewBox="0 0 500 500">
  <defs>
    <clipPath id="e">
      <rect x="245.6545" y="85.076" width="42.8517" height="51.6235" style="fill: none; stroke-width: 0px;"/>
    </clipPath>
  </defs>
  <g style="isolation: isolate;">
    <g id="a" data-name="Design">
      <g>
        <circle cx="342.2125" cy="338.3438" r="78.0715" style="fill: #e8edf3; stroke-width: 0px;"/>
        <g>
          <path d="m314.1283,384.8491c7.0477-1.1114,12.2707-7.1247,12.2707-14.2594v-30.3885c0-7.9297,6.428-14.3579,14.3579-14.3579h0c7.9295,0,14.3579,6.4282,14.3579,14.3579v30.3899c0,7.1345,5.2226,13.1476,12.2699,14.2593,3.3435.5274,6.687,1.1546,10.0306,1.8829v2.4498c-23.7576,5.0446-48.1902,5.087-73.3169,0v-2.4516c3.3434-.7281,6.6866-1.3551,10.0299-1.8823Z" style="fill: #e89966; stroke-width: 0px;"/>
          <path d="m342.3098,346.4219s-16.2686,25.1942-3.7777,25.2311c12.4909.0369,16.5826-3.1545,16.5826-3.1545v-22.6343s-12.8049.5577-12.8049.5577Z" style="fill: #d38c5d; stroke-width: 0px;"/>
          <g id="b" data-name="KRANKENSCHWESTER_HEAD_FRONTAL">
            <path d="m307.1697,349.5299s5.5257-1.722,7.8941-9.1307c2.3683-7.4087.1305.6264.1305.6264l.957,6.2383s-1.1104,3.4616-8.9816,2.266Z" style="fill: #000e52; stroke-width: 0px;"/>
            <path d="m310.6926,357.2472s4.2535-3.9252,3.216-11.6337c-1.0375-7.7085.3865.5099.3865.5099l3.5397,5.2253s.4812,3.6033-7.1422,5.8985Z" style="fill: #000e52; stroke-width: 0px;"/>
            <path d="m354.5655,300.8421c1.918-4.8467,4.3547-11.0038,1.62-15.857-5.0152-8.9-25.3486-9.738-31.3851-.5977-3.671,5.5586-.9741,13.1715.4485,17.1868.7252,2.0474,5.5746,15.736,14.0584,15.938,8.5799.2043,14.023-13.5489,15.2581-16.6701Z" style="fill: #000e52; stroke-width: 0px;"/>
            <path d="m310.9428,328.6886s-13.4994-38.0119,17.3361-38.0119h12.2205v39.3059l-29.5566-1.294Z" style="fill: #000e52; stroke-width: 0px;"/>
            <path d="m369.2618,328.6886s13.4994-38.0119-17.3361-38.0119h-12.2205s0,39.3059,0,39.3059l29.5566-1.294Z" style="fill: #000e52; stroke-width: 0px;"/>
            <g>
              <path d="m320.4477,345.5899h-5.6195c-2.668,0-4.9505-1.9166-5.412-4.5444l-1.5087-8.5915c-.6652-3.7878,2.6664-7.0696,6.4437-6.3474l6.0964,1.1655v18.3178Z" style="fill: #e89966; stroke-width: 0px;"/>
              <path d="m320.4477,345.5899h-5.6195c-2.668,0-4.9505-1.9166-5.412-4.5444l-1.5087-8.5915c-.6652-3.7878,2.6664-7.0696,6.4437-6.3474l6.0964,1.1655v18.3178Z" style="fill: #e89966; mix-blend-mode: multiply; opacity: .2; stroke-width: 0px;"/>
            </g>
            <g>
              <path d="m358.51,345.5899h5.6195c2.668,0,4.9505-1.9166,5.412-4.5444l1.5087-8.5915c.6652-3.7878-2.6664-7.0696-6.4437-6.3474l-6.0964,1.1655v18.3178Z" style="fill: #e89966; stroke-width: 0px;"/>
              <path d="m358.51,345.5899h5.6195c2.668,0,4.9505-1.9166,5.412-4.5444l1.5087-8.5915c.6652-3.7878-2.6664-7.0696-6.4437-6.3474l-6.0964,1.1655v18.3178Z" style="fill: #e89966; mix-blend-mode: multiply; opacity: .2; stroke-width: 0px;"/>
            </g>
            <path d="m340.3095,371.9332c14.259,0,24.4086-18.9245,25.4822-27.4044l.4699-3.7113,1.1889-15.3941c.1824-2.3623.1395-4.7467-.2836-7.078-2.3439-12.9134-13.6461-22.7058-27.2356-22.7058h0c-13.5894,0-24.8917,9.7924-27.2356,22.7058-.4231,2.3313-.4661,4.7157-.2836,7.078l1.1131,14.4123.5137,4.1457c1.0896,8.7927,12.0117,27.9519,26.2707,27.9519Z" style="fill: #e89966; stroke-width: 0px;"/>
            <path d="m349.5502,328.983c.5345-1.6201,2.4516-1.2312,2.5924.4045.0819.9519.0948,2.7124-.9046,3.2416-.7844.4153-1.5234-.1865-1.7674-.9175-.1789-.5362-.2264-1.8009.0796-2.7285Z" style="stroke-width: 0px;"/>
            <path d="m327.203,329.0689c.5011-1.5187,2.2982-1.1542,2.4302.3792.0768.8924.0888,2.5427-.848,3.0387-.7354.3894-1.4281-.1747-1.6567-.86-.1678-.5027-.2123-1.6883.0745-2.5579Z" style="stroke-width: 0px;"/>
            <path d="m338.7784,345.1587c2.0627-2.8062.9189-6.696.1988-9.7378-.2274-.9604,1.4203-1.3709,1.6487-.4067.8273,3.4948,1.9893,7.7054-.3712,10.9166-.6022.8192-2.0833.0536-1.4763-.7722Z" style="fill: #d38c5d; stroke-width: 0px;"/>
            <path d="m340.2291,351.4177c1.3651-.0079,5.7532-.4197,6.3971.6481.95,1.5757-2.9018,3.8573-4.2313,4.1219-3.751.7465-10.0601-.7817-10.5074-3.662-.2189-1.4092,4.6133-1.0864,8.3417-1.108Z" style="fill: #fff; stroke-width: 0px;"/>
            <path d="m345.203,324.0377c-.0655-.0862-.0922-.1865-.0693-.3033.1056-.538,2.1138-.9505,2.7873-1.0731,1.3418-.2443,2.8238-.2035,4.1933-.0905,1.7555.1449,4.3799.3641,5.7202,1.2037,2.1161,1.3259-2.1632,1.2219-3.2868,1.1815-2.0238-.0728-4.0452-.1803-6.0577-.3369-.7198-.056-2.8533-.011-3.2869-.5813Z" style="fill: #000e52; stroke-width: 0px;"/>
            <path d="m334.6641,324.0347c.0655-.0862.0921-.1865.069-.3033-.1061-.538-2.1148-.9495-2.7885-1.0718-1.3421-.2436-2.824-.2022-4.1933-.0887-1.7554.1457-4.3796.3661-5.7189,1.2064-2.1145,1.3269,2.1645,1.2209,3.2882,1.18,2.0237-.0738,4.0449-.1821,6.0573-.3397.7198-.0563,2.8533-.0123,3.2862-.5828Z" style="fill: #000e52; stroke-width: 0px;"/>
            <path d="m313.2373,336.1097s4.7307-11.0092,7.3212-23.7625c2.5905-12.7533,4.3203-17.0115,4.3203-17.0115h32.2126s2.9006,10.8339,4.083,16.516c1.2838,6.1694,2.6657,21.1022,5.4293,24.258h0c1.285-2.4065,2.5766-12.8349,2.5766-15.563v-8.8638c0-6.6765-5.4124-16.3472-12.0889-16.3472h-34.0089c-6.6765,0-12.0889,9.6706-12.0889,16.3472v9.1253c0,1.8387.3054,3.6647.9038,5.4033l1.3399,9.8982Z" style="fill: #000e52; stroke-width: 0px;"/>
            <path d="m340.8995,287.101c-15.4137-.1254-27.8583.3298-22.4242,27.6583.2287,1.1496,44.5888,1.1438,44.849,0,6.2029-27.2825-7.1279-27.5337-22.4247-27.6583Z" style="fill: #000e52; stroke-width: 0px;"/>
            <path d="m358.1828,303.9779s.9484,7.1737-2.4539,13.0522h-3.5019s4.738-5.7788,5.9558-13.0522Z" style="fill: #e89966; stroke-width: 0px;"/>
            <path d="m345.3631,310.1534s-1.0203,7.2371-7.1243,10.2159l-5.1022-2.7098s7.1567-2.1507,12.2266-7.5061Z" style="fill: #e89966; stroke-width: 0px;"/>
          </g>
          <path d="m342.2125,416.4153c19.2126,0,36.793-6.9529,50.3938-18.4626-3.1155-5.5493-8.5039-9.7429-15.188-11.2227-3.332-.7373-6.8557-1.4016-10.4731-1.9736l-.124-.0198-.1125.0562c-9.3132,4.6646-18.5681,7.0295-27.5076,7.0298-15.1753.0005-24.3049-6.9192-24.3955-6.9893l-.1074-.083-.2043.002-.0288.0046c-3.2454.5142-6.4602,1.1145-9.5559,1.7834-6.2668,1.3542-11.4404,5.0112-14.7925,9.9377,13.8188,12.3921,32.0737,19.9373,52.0959,19.9373Z" style="fill: #fff; stroke-width: 0px;"/>
        </g>
      </g>
      <g>
        <circle cx="384.6337" cy="402.8697" r="35.3559" style="fill: #000e52; stroke-width: 0px;"/>
        <g>
          <line x1="368.2699" y1="385.9726" x2="401.8611" y2="419.5638" style="fill: #ff1b7c; stroke-width: 0px;"/>
          <path d="m401.8611,423.7457c-1.0703,0-2.1404-.4082-2.9571-1.2249l-33.5912-33.5912c-1.6331-1.6331-1.6331-4.281,0-5.9142s4.2809-1.6333,5.9142,0l33.5912,33.5912c1.6331,1.6331,1.6331,4.281,0,5.9142-.8166.8166-1.8868,1.2249-2.9571,1.2249Z" style="fill: #ff1b7c; stroke-width: 0px;"/>
        </g>
        <g>
          <line x1="401.8611" y1="385.9726" x2="368.2699" y2="419.5638" style="fill: #ff1b7c; stroke-width: 0px;"/>
          <path d="m368.2699,423.7457c-1.0703,0-2.1404-.4082-2.9571-1.2249-1.6331-1.6331-1.6331-4.281,0-5.9142l33.5912-33.5912c1.6333-1.6333,4.2809-1.6333,5.9142,0,1.6331,1.6331,1.6331,4.281,0,5.9142l-33.5912,33.5912c-.8166.8166-1.8868,1.2249-2.9571,1.2249Z" style="fill: #ff1b7c; stroke-width: 0px;"/>
        </g>
      </g>
      <g>
        <circle cx="147.6186" cy="338.3438" r="78.0715" style="fill: #e8edf3; stroke-width: 0px;"/>
        <path d="m161.4032,371.8672v-30.7527c0-8.0247-6.5049-14.5298-14.5298-14.5298s-14.5298,6.5051-14.5298,14.5298v30.7539c0,7.2202-5.2852,13.3052-12.417,14.4302-3.3838.5339-6.7671,1.1685-10.1509,1.9055v18.4265c11.2114,6.2266,24.1094,9.7847,37.8428,9.7847,13.1299,0,25.4934-3.2561,36.3525-8.9819v-19.231c-3.3833-.7368-6.7666-1.3713-10.1499-1.9048-7.1323-1.125-12.418-7.2102-12.418-14.4304Z" style="fill: #ffae7a; stroke-width: 0px;"/>
        <path d="m147.6185,416.4153c19.6172,0,37.5298-7.2517,51.2444-19.1995-3.3108-4.573-8.2559-7.968-14.1936-9.2825-3.4321-.7595-7.0618-1.4438-10.7881-2.033l-.1279-.0205-.1157.0579c-9.5933,4.8047-19.127,7.241-28.335,7.2412-15.6313.0005-25.0356-7.1272-25.1289-7.1995l-.1108-.0854-.2104.002-.0298.0046c-3.3428.5298-6.6548,1.1482-9.8433,1.8372-5.877,1.27-10.8247,4.5037-14.2715,8.9006,13.7969,12.2949,31.9766,19.7769,51.9106,19.7769Z" style="fill: #fff; stroke-width: 0px;"/>
        <path d="m152.5488,356.6128s-11.851,16.8201-3.2949,16.8201,12.1494-1.9609,12.1494-1.9609v-17.5484l-8.8545,2.6892Z" style="fill: #e89966; stroke-width: 0px;"/>
        <g id="c" data-name="ARZT_HEAD_FRONTAL">
          <path d="m172.2692,348.263c-1.6032,6.5113-4.9444,12.4652-9.6668,17.2261l-3.3216,3.3487h0c-2.8198,2.9357-6.7145,4.5951-10.7851,4.5951h-1.0288c-4.0287,0-7.9337-1.3912-11.055-3.9383l-4.0484-3.8111c-5.1802-4.8766-8.8461-11.1421-10.5592-18.0472h0v-35.0802c0-9.6957,7.8599-17.5556,17.5556-17.5556h15.528c9.6957,0,17.5556,7.8599,17.5556,17.5556v34.9996l-.1742.7074Z" style="fill: #ffae7a; stroke-width: 0px;"/>
          <g>
            <path d="m157.2603,331.7245c.3892-1.2357,1.8489-.9602,1.9727.2804.072.722.0999,2.0587-.6535,2.4708-.5913.3235-1.1587-.1259-1.3515-.6785-.1414-.4053-.1905-1.3652.0323-2.0727Z" style="stroke-width: 0px;"/>
            <path d="m135.8946,331.0923c.3892-1.2357,1.849-.9602,1.9727.2805.072.722.0999,2.0587-.6535,2.4708-.5914.3234-1.1587-.1259-1.3515-.6785-.1413-.4053-.1904-1.3652.0323-2.0727Z" style="stroke-width: 0px;"/>
            <path d="m153.2568,326.8333c-.1247-1.8707,4.206-1.9708,5.0707-1.9141,1.3299.0874,2.6934.3708,3.9391.966.6703.3203,3.5701,2.1749,1.5621,2.671-1.7385.4295-3.433-.2386-5.1579-.5557-1.1081-.2038-4.704.8212-5.3061-.7122-.0637-.1623-.0985-.3137-.108-.455Z" style="fill: #42659f; stroke-width: 0px;"/>
            <path d="m141.3629,327.2004c.2367-1.8599-4.0803-2.2195-4.9468-2.2147-1.3328.0075-2.7107.2086-3.99.728-.6883.2795-3.694,1.9568-1.7194,2.5725,1.7096.533,3.4411-.0322,5.1819-.2454,1.1183-.1369,4.6463,1.102,5.3392-.3926.0733-.1581.1172-.3072.1351-.4477Z" style="fill: #42659f; stroke-width: 0px;"/>
            <path d="m140.5157,352.1701c.1872-.1271.4763-.1973.9989-.1648,3.3587.2092,6.7643.1419,10.129.1978,1.18.0196,3.1138.4685,1.9892,1.6611-1.8736,1.987-4.959,2.9743-8.7213,2.3638-1.7707-.2873-5.909-3.0304-4.3957-4.058Z" style="fill: #fff; stroke-width: 0px;"/>
            <path d="m145.63,333.8924c.2022-.9056,1.6309-.6646,1.427.2486-.4448,1.9914-1.0484,3.9287-1.4668,5.9317-.2483,1.1887-.6469,2.0376-.0258,3.2305.3588.6891,1.2202,1.5359,1.7903,2.104.6553.6531-.2595,1.7765-.9205,1.1179-1.0956-1.0918-2.738-2.555-2.7595-4.1992-.0361-2.7714,1.3573-5.7561,1.9553-8.4334Z" style="fill: #e89966; stroke-width: 0px;"/>
          </g>
          <path d="m175.1744,310.9761c-1.675-15.808-9.3324-8.5957-9.3324-8.5957,0,0-1.0004,3.7126,3.2051,15.7851l.018,16.0202c0,5.0601,3.4486,8.3698,3.4486,8.3698l2.5337-20.9515c.4266-3.5276.5015-7.0944.127-10.6279Z" style="fill: #42659f; stroke-width: 0px;"/>
          <path d="m118.0444,311.8479c-.4852-14.5157.7299-17.8246,10.5684-20.1187,3.5444-.8265,7.1619-1.293,10.7953-1.5043,1.5348-.0892,3.6577-.2267,6.5724-.4384,8.7157-.6329,13.6922-5.9156,16.8327-3.6174,3.1405,2.2983.9199,4.5528.9199,4.5528,1.9337-.0687,3.6366-1.9582,6.5216-2.7916,2.9978-.866,9.7407,2.6849,5.5958,9.0599-2.7265,4.1934-4.4027,7.3149-16.1078,7.3149h-27.072s-1.4708,8.3916-7.382,13.8604l-.018,16.0202c0,5.0601-3.4486,8.3698-3.4486,8.3698l-2.6659-18.357c-.5944-4.0929-.9736-8.2171-1.1118-12.3506Z" style="fill: #42659f; stroke-width: 0px;"/>
          <path d="m171.7645,326.9328c.0206.0014-.0127.0001.0079.0018h.0784c4.0679.3244,6.89,4.087,6.1684,8.1034l-1.3107,7.2944c-.4841,2.6944-2.4318,4.7608-4.9441,5.4396v-20.8392Z" style="fill: #ffae7a; stroke-width: 0px;"/>
          <path d="m122.2559,326.9328c-.0206.0014-.0657.0001-.0863.0018h.0783c-4.0679.3244-7.0468,4.087-6.3251,8.1034l1.3107,7.2944c.4841,2.6944,2.5102,4.7608,5.0224,5.4396v-20.8392Z" style="fill: #ffae7a; stroke-width: 0px;"/>
        </g>
        <polygon points="129.7282 388.268 142.5318 381.6093 148.4051 393.0931 133.3696 393.5756 129.7282 388.268" style="fill: #d1dbe7; stroke-width: 0px;"/>
        <polygon points="146.6431 393.0931 142.5318 381.6093 133.4871 395.0231 118.6627 386.7622 128.671 373.6962 143.7065 380.3548 148.4051 393.0931 146.6431 393.0931" style="fill: #f4f6f9; stroke-width: 0px;"/>
        <polygon points="163.2487 388.533 150.4451 381.8744 144.5719 393.3581 159.6073 393.8406 163.2487 388.533" style="fill: #d1dbe7; stroke-width: 0px;"/>
        <polygon points="146.3338 393.3581 150.4451 381.8744 159.4899 395.2882 174.3142 387.0272 164.3059 373.9612 149.2704 380.6199 144.5719 393.3581 146.3338 393.3581" style="fill: #f4f6f9; stroke-width: 0px;"/>
      </g>
      <g>
        <circle cx="190.4059" cy="403.2358" r="34.9898" style="fill: #000e52; stroke-width: 0px;"/>
        <path d="m185.4678,420.7338c-1.074,0-2.1057-.4294-2.8633-1.1958l-13.0933-13.2525c-1.5624-1.581-1.5466-4.1299.0344-5.6923,1.58-1.5604,4.1299-1.5476,5.6923.0344l10.0118,10.1337,20.1249-23.6082c1.4415-1.693,3.9815-1.8964,5.6736-.452,1.6921,1.4415,1.8945,3.9825.452,5.6736l-22.9695,26.9452c-.7311.8578-1.7884,1.3698-2.9154,1.411-.0491.002-.0983.0029-.1474.0029Z" style="fill: #00ff64; stroke-width: 0px;"/>
      </g>
      <g>
        <path d="m224.6461,76.4597h0c0-5.3039-4.2997-9.6036-9.6036-9.6036h-44.4838c-5.3039,0-9.6036,4.2997-9.6036,9.6036v122.8236h149.6171v-103.6164c0-5.3039-4.2997-9.6036-9.6036-9.6036h-66.7191c-5.3039,0-9.6036-4.2997-9.6036-9.6036Z" style="fill: #6884b2; stroke-width: 0px;"/>
        <g id="d" data-name="SCREEN_CONTENT">
          <path d="m176.8901,76.2828h118.609c1.0993,0,1.9918.8925,1.9918,1.9918v92.101h-122.5927v-92.101c0-1.0993.8925-1.9918,1.9918-1.9918Z" style="fill: #f4f6f9; stroke-width: 0px;"/>
          <g>
            <rect x="186.744" y="116.4795" width="30.2675" height="2.8258" style="fill: #d1dbe7; stroke-width: 0px;"/>
            <rect x="186.744" y="122.3557" width="30.2675" height="2.8258" style="fill: #d1dbe7; stroke-width: 0px;"/>
            <rect x="186.744" y="128.2319" width="30.2675" height="2.8258" style="fill: #d1dbe7; stroke-width: 0px;"/>
            <rect x="186.744" y="84.8401" width="48.6698" height="2.8258" style="fill: #000e52; stroke-width: 0px;"/>
            <rect x="186.744" y="90.7163" width="48.6698" height="2.8258" style="fill: #000e52; stroke-width: 0px;"/>
            <rect x="186.744" y="96.5925" width="30.2675" height="2.8258" style="fill: #000e52; stroke-width: 0px;"/>
            <rect x="186.744" y="104.9194" width="40.3505" height="2.8258" style="fill: #00ff64; stroke-width: 0px;"/>
            <g style="clip-path: url(#e);">
              <rect x="229.6881" y="72.0705" width="67.9884" height="74.3831" style="fill: #b3c1d9; stroke-width: 0px;"/>
              <g>
                <path d="m277.8194,129.6714c-2.9231-.461-5.0894-2.955-5.0894-5.9142v-12.6039c0-3.2889-2.6661-5.9551-5.9551-5.9551h0c-3.2888,0-5.9551,2.6662-5.9551,5.9551v12.6045c0,2.9591-2.1661,5.4531-5.0891,5.9142-1.3868.2188-2.7735.4789-4.1603.7809v24.0961h30.4089v-24.0969c-1.3867-.302-2.7733-.562-4.16-.7807Z" style="fill: #9e6a4d; stroke-width: 0px;"/>
                <path d="m246.4761,186.3089l-2.796-45.5362c-.3086-5.0252,3.0449-9.4458,7.9738-10.511,1.3069-.2824,2.6642-.5358,4.0343-.7529l.0121-.0019.0862-.0008.0454.0351c.0382.0296,3.8925,2.9509,10.2991,2.9507,3.774-.0002,7.6812-.9986,11.613-2.9678l.0475-.0237.0525.0084c1.5272.2415,3.0147.5219,4.4214.8332,4.7151,1.0437,7.9246,5.2735,7.6315,10.0577l-2.8119,45.9094h-40.6089Z" style="fill: #fff; stroke-width: 0px;"/>
                <path d="m268.6708,119.3178s-5.6865,3.5467-1.1399,3.5479c4.5466.0011,5.199-1.4501,5.199-1.4501v-5.0259l-4.0591,2.9281Z" style="fill: #895d42; stroke-width: 0px;"/>
                <g id="f" data-name="FEMALE_01_HEAD_FRONT">
                  <path d="m255.7214,92.3941s-16.078,25.7502,11.5477,25.7502,10.3009-25.7502,10.3009-25.7502h-21.8487Z" style="fill: #eb823d; stroke-width: 0px;"/>
                  <path d="m263.3488,90.4353h8.0383c3.7323,0,6.7579,3.0256,6.7579,6.7579v14.8903c0,4.6765-6.919,10.7834-10.7045,10.7834s-11.9492-5.3008-11.9492-10.6155l-.4194-6.9822c0-4.3396,3.9373-14.8339,8.2769-14.8339Z" style="fill: #9e6a4d; stroke-width: 0px;"/>
                  <circle cx="257.233" cy="108.3915" r="3.7918" style="fill: #9e6a4d; stroke-width: 0px;"/>
                  <circle cx="275.7417" cy="108.3915" r="3.7918" style="fill: #9e6a4d; stroke-width: 0px;"/>
                  <path d="m276.1792,90.4353c-2.6112-2.6112-6.5885-2.5501-6.5885-2.5501l-3.1014-.0075-2.699.0075s-3.9771-.0611-6.5883,2.5501c-5.8074,5.8072-2.3019,14.8888-2.3019,14.8888,14.9905-3.8471,21.8335-11.6093,19.1985-12.3889,2.7465,2.3478,4.2373,8.4974,4.0555,12.5315,0,0,3.8324-9.2241-1.9749-15.0314Z" style="fill: #eb823d; stroke-width: 0px;"/>
                  <path d="m274.7593,92.3941s-2.0602,7.7289-17.9898,10.4246v-1.2387s11.08-2.4707,15.3297-8.2357l2.6601-.9503Z" style="fill: #eb823d; stroke-width: 0px;"/>
                </g>
              </g>
            </g>
          </g>
        </g>
        <path d="m332.1882,132.8295h-130.7236c-3.6919,0-6.9958,1.6567-8.2886,4.1561l-32.2209,62.2978h149.6171l29.9045-57.8192c2.1619-4.18-2.1142-8.6347-8.2886-8.6347Z" style="fill: #8da5c4; stroke-width: 0px;"/>
      </g>
      <line x1="194.1888" y1="214.3708" x2="164.1564" y2="246.228" style="fill: none; stroke: #000e52; stroke-linecap: round; stroke-linejoin: round; stroke-width: 5px;"/>
      <line x1="285.676" y1="214.3708" x2="315.7084" y2="246.228" style="fill: none; stroke: #000e52; stroke-linecap: round; stroke-linejoin: round; stroke-width: 5px;"/>
    </g>
  </g>
</svg>