<?xml version="1.0" encoding="UTF-8"?>
<svg id="a" data-name="Design" xmlns="http://www.w3.org/2000/svg" width="500" height="500" viewBox="0 0 500 500">
  <g>
    <g>
      <g>
        <polygon points="301.7634 433.8036 89.8614 433.8036 89.8614 164.2874 224.5291 164.2874 301.7634 241.5217 301.7634 433.8036" style="fill: #e8edf3; stroke-width: 0px;"/>
        <polygon points="301.7634 241.5217 224.5291 241.5217 224.5291 164.2874 301.7634 241.5217" style="fill: #a7bbd4; stroke-width: 0px;"/>
      </g>
      <rect x="110.1715" y="184.0711" width="99.1198" height="14.9666" style="fill: #a7bbd4; stroke-width: 0px;"/>
      <rect x="110.1715" y="209.1764" width="76.1521" height="14.9666" style="fill: #a7bbd4; stroke-width: 0px;"/>
    </g>
    <g>
      <path d="m195.9315,275.294c2.6412-4.7047,3.5149-12.9347,3.0415-16.6128-.1748-1.3583.5518-2.6814,1.8168-3.2062,1.253-.5198,3.0818-.7769,5.5965-.0046.8396.2579,1.5015.9053,1.7714,1.7412.8061,2.4961,1.9134,8.5511-1.8234,17.6074l-10.4028.475Z" style="fill: #42659f; stroke-width: 0px;"/>
      <path d="m206.3343,274.819c2.6121.4962,8.4827-9.4964,10.1863-12.6578.3486-.6468,1.03-1.0383,1.7646-1.0218,1.5023.0336,3.7973.635,4.0141,3.9487,0,0-2.7182,10.3033-6.4595,17.5383l-9.5055-7.8074Z" style="fill: #42659f; stroke-width: 0px;"/>
      <path d="m186.0628,304.012c-10.9003-4.513-35.9907,7.1277-41.7524,14.0002-2.9811,3.5558-2.4947,17.4209.7171,29.4027,2.9958,11.1762,7.1007,22.0009,9.358,24.9807,4.6773,6.1744,29.7028,35.9614,40.8697,37.021,14.4997,1.3759,36.592-33.7317,38.0854-55.894,1.1496-17.061-4.4702-46.0132-11.3541-48.5127-6.8838-2.4995-35.9238-.9979-35.9238-.9979Z" style="fill: #bbc9dc; stroke-width: 0px;"/>
      <path d="m169.9722,301.4218c-2.4573-15.7078,12.2882-33.5398,28.1292-32.8285s24.0709,10.6214,22.6823,24.2879l-3.3156,6.6076-11.0176-2.082-10.3586.7257-8.4946,6.7013-3.4565,10.9348s-10.2948-2.8356-14.1685-14.3468Z" style="fill: #8da5c4; stroke-width: 0px;"/>
      <path d="m197.5526,287.5977s8.9473-3.819,12.4956,4.0469c2.3037,5.1067-7.1004,6.8549-7.1004,6.8549l-7.0202-3.5226,1.625-7.3792Z" style="fill: #42659f; stroke-width: 0px;"/>
      <path d="m222.9754,307.4102c3.1277.9205,11.0491,1.5736,14.5875.8925.8768-.1688,1.7577.3059,2.0891,1.1349.6391,1.5987,1.1104,4.2676-.921,7.134,0,0-11.2278.5644-19.6522-1.1232-8.4245-1.6876,3.8966-8.0383,3.8966-8.0383Z" style="fill: #a4b7d0; stroke-width: 0px;"/>
      <path d="m225.3488,314.4959c2.6659,1.8769,9.9572,5.0411,13.5268,5.5333.8845.122,1.5661.8545,1.6135,1.7461.0914,1.7193-.3201,4.3981-3.1648,6.4596,0,0-10.8135-3.0739-18.2487-7.3794-7.4352-4.3056,6.2733-6.3596,6.2733-6.3596Z" style="fill: #a4b7d0; stroke-width: 0px;"/>
      <path d="m232.5264,333.6064c-1.351,2.0825-2.8965-.3775-9.1459-4.4343-6.2498-4.0553-15.6817-9.3126-15.5145-18.1323,0,0,7.3896-15.2451,11.816-13.7836,3.101,1.0246,7.8043,5.6805,10.3729,10.9843.0353.0713.0696.1454.1044.2181,1.0367,2.1986,1.7005,4.5008,1.7281,6.6942.006.4921.02.9887.04,1.4874.0157.409.0363.818.0592,1.2296.1792,3.0963.5515,6.238.7955,8.9195.2931,3.2411.3983,5.8115-.2556,6.8171Z" style="fill: #a4b7d0; stroke-width: 0px;"/>
      <path d="m230.0549,308.2404l-.1778.1985c-7.2722-3.4265-20.1056.345-22.011,2.6008,0,0,7.3896-15.2451,11.816-13.7836,3.101,1.0246,7.8043,5.6805,10.3729,10.9843Z" style="fill: #8da5c4; stroke-width: 0px;"/>
      <path d="m196.8553,286.9956c4.265,3.8633,10.3229,6.2137,20.6586,3.4733l-3.3283,15.5618s-15.3012,7.1416-15.0733,22.4846c0,0-13.6038-5.8568-14.9715-12.7466,0,0-1.6294-16.6709,12.7145-28.7731Z" style="fill: #a4b7d0; stroke-width: 0px;"/>
      <path d="m197.5526,287.5977c-4.7392,2.7371-9.6981,11.7573-8.5204,18.9145,1.1777,7.1572-2.3814,13.1178-7.5002,15.7965-5.1188,2.6787-7.032-12.7157-7.032-12.7157,0,0,5.0106-14.1925,5.1585-14.6116.148-.4191,7.4253-9.2355,7.4253-9.2355l3.3463-3.875,7.1225,5.7267Z" style="fill: #6884b2; stroke-width: 0px;"/>
      <path d="m217.5138,290.4689c11.3999-1.1553,16.394,2.5124,20.996,5.8784,1.2569.9193,1.6847,2.6098,1.0244,4.02-.9886,2.1113-2.9969,4.862-6.6374,4.3366,0,0-6.9941-4.1668-18.7112,1.3268l-9.3608-4.697,12.6891-10.8647Z" style="fill: #a4b7d0; stroke-width: 0px;"/>
      <path d="m184.2748,307.7574s5.7216-24.6578,22.2234-21.4366l-6.1853-8.9633-16.5863.7741s-7.4519,21.8911-8.0055,23.6811c-.5536,1.7901,8.5537,5.9447,8.5537,5.9447Z" style="fill: #8da5c4; stroke-width: 0px;"/>
      <path d="m193.6045,269.86s1.0726.3482,1.1297,1.8882c.0615,1.6576-1.18,3.0921-2.8232,3.319-3.2674.4512-10.1884,3.3209-16.004,18.5301l-4.9554,2.7046,2.1572-12.4337,11.7999-13.4732,7.8126-3.3933.8831,2.8582Z" style="fill: #6884b2; stroke-width: 0px;"/>
      <path d="m155.4523,298.9258c2.8753-7.7275,9.6331-37.5239,8.2413-49.4194-.1353-1.1568.4036-2.2901,1.3764-2.9306,1.6716-1.1007,4.5-2.1442,7.8598-.073,1.119.6898,1.6566,2.0294,1.3596,3.3099-1.2024,5.1836-3.9301,19.2731,1.5425,20.7706,2.9725.8134,9.8833-8.3905,17.3158-7.2364,0,0,3.6477,3.0845.4567,6.513,0,0-14.324,1.2505-21.6828,29.5397l-16.4694-.4739Z" style="fill: #8da5c4; stroke-width: 0px;"/>
      <path d="m173.3368,291.9692c-16.5152-9.0766-28.7947,8.7833-31.1168,28.5214-2.0093,17.0794,4.1156,31.5497,4.1156,31.5497,2.2945-.2709,9.507-20.5208,30.0777-27.0529,15.6791-4.9788,10.8237-25.3788-3.0765-33.0182Z" style="fill: #a4b7d0; stroke-width: 0px;"/>
    </g>
  </g>
  <g>
    <g>
      <g>
        <polygon points="407.7145 343.9345 195.8124 343.9345 195.8124 74.4183 330.4801 74.4183 407.7145 151.6527 407.7145 343.9345" style="fill: #fff; stroke-width: 0px;"/>
        <polygon points="407.7145 151.6527 330.4801 151.6527 330.4801 74.4183 407.7145 151.6527" style="fill: #e8edf3; stroke-width: 0px;"/>
      </g>
      <g>
        <path d="m307.4713,203.6077l-.0014-47.8553-10.2131.0003.0014,47.8555c-1.5391,5.8813-5.7056,16.8227-16.7544,28.1294l5.5203,5.3944c8.7062-8.909,13.5961-17.6875,16.3409-24.5026,2.7449,6.815,7.6353,15.5931,16.3421,24.5016l5.52-5.3947c-11.0495-11.3061-15.2167-22.2474-16.7558-28.1285Z" style="fill: #000e52; stroke-width: 0px;"/>
        <path d="m324.8856,181.5606c12.7317-.0004,32.708,21.2917,42.1478,46.5354,9.4398,25.2436,8.1236,52.6827-2.413,55.5367-10.5365,2.854-12.7318-3.9508-23.9271-7.6822-11.1952-3.7314-18.6585.6591-24.5858-12.0724-7.5976-16.3195-7.4659-82.317,8.778-82.3174Z" style="fill: #00ff64; stroke-width: 0px;"/>
        <path d="m278.6364,181.562c-12.7317.0004-32.7067,21.2937-42.145,46.5379-9.4383,25.2442-8.1204,52.6832,2.4163,55.5366,10.5367,2.8533,12.7316-3.9516,23.9266-7.6837,11.195-3.732,18.6586.658,24.585-12.0739,7.5966-16.3199,7.4609-82.3174-8.783-82.3169Z" style="fill: #00ff64; stroke-width: 0px;"/>
      </g>
    </g>
    <rect x="211.656" y="92.9995" width="99.1198" height="14.9666" style="fill: #e8edf3; stroke-width: 0px;"/>
    <rect x="211.656" y="118.1048" width="76.1521" height="14.9666" style="fill: #e8edf3; stroke-width: 0px;"/>
  </g>
</svg>