<?xml version="1.0" encoding="UTF-8"?>
<svg xmlns="http://www.w3.org/2000/svg" viewBox="0 0 500 500">
  <g id="Hintergrund">
    <rect x="0" width="500" height="500" fill="#d1dbe7" stroke-width="0"/>
  </g>
  <g id="Design">
    <g>
      <path d="M74.92,283.27c0,7.36,5.97,13.33,13.33,13.33h275.67c7.36,0,13.33-5.97,13.33-13.33v-153.38H74.92v153.38Z" fill="#fdf3ef" stroke-width="0"/>
      <path d="M363.92,96.15H88.25c-7.36,0-13.33,5.97-13.33,13.33v20.41h302.33v-20.41c0-7.36-5.97-13.33-13.33-13.33ZM93.18,119.93c-3.3,0-5.98-2.68-5.98-5.98s2.68-5.98,5.98-5.98,5.98,2.68,5.98,5.98-2.68,5.98-5.98,5.98ZM110.36,119.93c-3.3,0-5.98-2.68-5.98-5.98s2.68-5.98,5.98-5.98,5.98,2.68,5.98,5.98-2.68,5.98-5.98,5.98Z" fill="#4e76a9" stroke-width="0"/>
      <circle cx="93.18" cy="113.95" r="5.98" fill="#000e52" stroke-width="0"/>
      <circle cx="110.36" cy="113.95" r="5.98" fill="#7a98bf" stroke-width="0"/>
    </g>
    <g>
      <path d="M99.36,160.8c-4.82,1.54-9.82,2.32-14.9,2.32-26.95,0-48.87-21.92-48.87-48.87,0-26.95,21.92-48.87,48.87-48.87,26.95,0,48.87,21.92,48.87,48.87,0,12.63-4.96,24.84-13.69,33.91,2.08,3.37,4.23,6.76,6.41,10.11.48.74.65,1.65.45,2.52-.19.87-.73,1.62-1.48,2.09-.52.32-3.44,1.96-8.91,1.96-4.11,0-9.68-.93-16.74-4.04Z" fill="#000e52" stroke-width="0"/>
      <path d="M71,116.52c0-6.26,4.14-9.76,9.95-11.97,7.18-2.76,9.21-4.6,9.21-7.64,0-3.22-2.67-4.6-5.99-4.6-3.87,0-6.63,2.21-7.83,6.17l-10.04-1.66c1.38-7.74,7.55-14.09,17.59-14.09s17.04,5.71,17.04,14.55c0,7.37-4.7,10.31-12.71,13.44-6.08,2.39-7.83,3.59-7.83,6.08,0,2.03,1.47,3.22,3.31,3.22,2.58,0,4.33-1.66,5.25-4.24l8.1,3.04c-2.03,5.8-6.72,9.48-13.35,9.48-7.37,0-12.71-4.7-12.71-11.79ZM76.07,140.92c0-4.24,3.41-7.74,7.64-7.74s7.64,3.5,7.64,7.74-3.41,7.55-7.64,7.55-7.64-3.31-7.64-7.55Z" fill="#fff" stroke-width="0"/>
    </g>
    <g>
      <path d="M166.08,255.12c10.99-1.02,20.73,7.07,21.75,18.06.18,1.97.06,3.91-.31,5.76h.01s-3.36,17.66-3.36,17.66h84.8l-6.17-16.97h.01c-.68-1.77-1.12-3.65-1.28-5.63-.86-11.01,7.36-20.63,18.37-21.49,7.43-.58,14.22,2.99,18.12,8.75-5.07-8.05-15.59-13.62-34.72-17.64-4-.91-8.97-1.66-13.44-2.28h.01s-6.02,17.36-6.02,17.36c-2.04,5.89-9.62,7.47-13.85,2.9-1.31-1.41-2.69-2.76-4.13-4.06l-.27.06h-.36l-.23-.09c-1.46,1.31-2.85,2.68-4.17,4.1-4.23,4.58-11.81,2.99-13.85-2.9l-5.98-17.23c-4.21.59-8.76,1.3-12.47,2.15-24.41,5.12-34.76,13.25-38.51,22.59,2.97-6.03,8.89-10.42,16.08-11.09Z" fill="#66c2b0" stroke-width="0"/>
      <path d="M300.39,266.08l.32.98c-.09-.33-.21-.66-.32-.98Z" fill="#66c2b0" stroke-width="0"/>
      <path d="M279.9,252.51c-11.01.86-19.23,10.48-18.37,21.49.15,1.98.6,3.86,1.28,5.62l37.36-14.22c-.56-1.48-1.28-2.87-2.15-4.15-3.9-5.76-10.69-9.33-18.12-8.75Z" fill="#66c2b0" stroke-width="0"/>
      <polygon points="262.81 279.62 262.8 279.63 268.97 296.6 310.3 296.6 300.71 267.06 300.39 266.08 300.18 265.4 300.17 265.41 262.81 279.62" fill="#66c2b0" stroke-width="0"/>
      <path d="M225.23,257.27c-.08.07-.15.15-.23.22l.23.09h.36l.27-.06c-.09-.08-.18-.17-.27-.26,16.66-6.57,19.16-19.65,19.16-19.65l.02.02.65-7.65s-.03.03-.05.05l-.38,4.25c-6.35,4.25-13.99,4.44-17.36,4.27-1.1-.02-1.74-.14-1.74-.14,0,0-10.08,1.97-19.57-8.47l-.68,8.2c.77,2.48,4.89,13.34,19.58,19.13Z" fill="#e89966" stroke-width="0"/>
      <path d="M227.64,238.56c3.37.17,11-.02,17.36-4.27l.38-4.25c-7.08,7.73-14.47,8.58-17.74,8.52Z" fill="#d38c5d" stroke-width="0"/>
      <path d="M191.23,194.18l1.02,6.82c.35,2.36,1.9,4.24,3.94,5.12-.69-6.51-.34-12.94-.71-19.15-2.88,1.08-4.72,4.05-4.24,7.22Z" fill="#e89966" stroke-width="0"/>
      <path d="M260.12,200.99l1.02-6.82c.5-3.36-1.61-6.51-4.81-7.4-.39,6.35-.02,12.9-.75,19.56,2.33-.76,4.15-2.76,4.54-5.35Z" fill="#e89966" stroke-width="0"/>
      <path d="M226.9,154.26c-.33.02-.66.03-1,.03-1.63,0-3.12-.24-4.5-.56-1.74-.32-3.54-.74-5.59-1.17-.23-.05-.46-.12-.68-.19-.31,0-.61,0-.9.04-8.17,1.12-9.72,3.66-12.46,6.71-3.71,4.14-3.06,6.59-3.06,26.96s5.35,24.8,7.75,26.92c2.4,2.13,4.69,1.59,7.31-1.17,2.62-2.76,12.12-1.7,12.12-1.7,0,0,9.5-1.06,12.12,1.7,2.62,2.76,4.91,3.29,7.31,1.17,2.4-2.13,7.75-6.55,7.75-26.92s.65-22.82-3.06-26.96c-2.73-3.05-4.29-5.59-12.46-6.71-.9-.12-1.88,0-2.96.25v.15c-2.98,1.01-5.44,1.41-7.72,1.45ZM212.51,191.47c-.27.78-1.08,1.42-1.92.96-1.07-.58-1.03-2.48-.93-3.5.18-1.76,2.25-2.15,2.8-.4.32,1,.25,2.36.05,2.94ZM213,182.08c-1.81.08-3.62.23-5.42.45-.94.12-6.17,1.46-4.93-1.19,1.74-3.72,13.58-5.5,14.12-.26.15,1.43-2.97.97-3.77,1.01ZM225.74,204.49c-.58,1.12-2.35.28-1.77-.84,1.44-2.79,1.94-4.71,1.07-7.86-.53-1.93-1.2-3.81-1.69-5.75-.31-1.21,1.52-1.9,1.83-.68.67,2.62,1.7,5.17,2.22,7.83.53,2.71-.42,4.93-1.65,7.31ZM240.55,191.63c-.25.71-.98,1.29-1.74.87-.97-.53-.93-2.25-.84-3.17.16-1.59,2.03-1.95,2.53-.36.29.91.22,2.14.04,2.66ZM247.67,181.34c1.24,2.66-3.99,1.31-4.93,1.19-1.8-.22-3.61-.37-5.42-.45-.8-.03-3.92.43-3.77-1.01.55-5.24,12.39-3.46,14.12.26Z" fill="#e89966" stroke-width="0"/>
      <path d="M225.9,238.42s.64.12,1.74.14c3.27.06,10.65-.79,17.74-8.52.02-.02.03-.03.05-.05,1.01-1.11,2.02-2.35,3-3.76,4.66-6.65,6.44-13.31,7.16-19.89.73-6.65.36-13.21.75-19.56.07-1.15.17-2.3.3-3.44,1.53-13.15,5.78-38.41-27.56-39.97,3.21,1.19,5.54,4.28,5.54,7.96v1.33c1.07-.24,2.06-.37,2.96-.25,8.17,1.12,9.72,3.66,12.46,6.71,3.71,4.14,3.06,6.59,3.06,26.96s-5.35,24.8-7.75,26.92c-2.4,2.13-4.69,1.59-7.31-1.17-2.62-2.76-12.12-1.7-12.12-1.7,0,0-9.5-1.06-12.12,1.7-2.62,2.76-4.91,3.29-7.31,1.17-2.4-2.13-7.75-6.55-7.75-26.92s-.65-22.82,3.06-26.96c2.73-3.05,4.29-5.59,12.46-6.71.29-.04.59-.05.9-.04-3.33-.95-5.87-3.53-7.55-5.82-16.68,7.49-13.65,26.12-12.41,36.79.14,1.2.24,2.4.31,3.61.37,6.22.03,12.64.71,19.15.7,6.65,2.47,13.39,7.18,20.11.97,1.39,1.96,2.62,2.96,3.71,9.49,10.45,19.57,8.47,19.57,8.47ZM227.42,218.99c1.26,0,5.29-.39,5.89.6.87,1.45-2.67,3.55-3.89,3.79-3.45.69-9.26-.72-9.67-3.37-.2-1.3,4.25-1,7.68-1.02Z" fill="#bbc9dc" stroke-width="0"/>
      <path d="M226.9,154.26c-1.88.03-3.65-.19-5.5-.53,1.38.31,2.88.56,4.5.56.34,0,.67-.01,1-.03Z" fill="#bbc9dc" stroke-width="0"/>
      <path d="M215.12,152.38c.23.06.45.14.68.19,2.05.42,3.86.85,5.59,1.17,1.85.34,3.62.56,5.5.53,2.28-.04,4.74-.44,7.72-1.45v-1.48c0-3.68-2.33-6.77-5.54-7.96-1.17-.44-2.46-.63-3.8-.49-7.06.72-16.19,1.22-20.09-.34,0,0,.82,1.87,2.39,4.02,1.68,2.29,4.22,4.87,7.55,5.82Z" fill="#bbc9dc" stroke-width="0"/>
      <path d="M209.67,188.93c-.1,1.02-.14,2.92.93,3.5.84.46,1.64-.18,1.92-.96.2-.57.27-1.94-.05-2.94-.55-1.75-2.62-1.36-2.8.4Z" stroke-width="0"/>
      <path d="M237.97,189.33c-.09.93-.13,2.64.84,3.17.76.42,1.49-.16,1.74-.87.18-.52.24-1.75-.04-2.66-.5-1.59-2.38-1.23-2.53.36Z" stroke-width="0"/>
      <path d="M202.65,181.34c-1.24,2.66,3.99,1.31,4.93,1.19,1.8-.22,3.61-.37,5.42-.45.8-.03,3.92.43,3.77-1.01-.55-5.24-12.39-3.46-14.12.26Z" fill="#bbc9dc" stroke-width="0"/>
      <path d="M225.17,189.36c-.31-1.22-2.14-.53-1.83.68.49,1.94,1.16,3.83,1.69,5.75.87,3.15.38,5.07-1.07,7.86-.58,1.12,1.19,1.95,1.77.84,1.23-2.38,2.18-4.6,1.65-7.31-.52-2.66-1.55-5.2-2.22-7.83Z" fill="#d38c5d" stroke-width="0"/>
      <path d="M233.55,181.08c-.15,1.43,2.97.97,3.77,1.01,1.81.08,3.62.23,5.42.45.94.12,6.17,1.46,4.93-1.19-1.74-3.72-13.58-5.5-14.12-.26Z" fill="#bbc9dc" stroke-width="0"/>
      <path d="M220.82,261.59c1.32-1.43,2.71-2.79,4.17-4.1.08-.07.15-.15.23-.22-14.69-5.79-18.82-16.65-19.58-19.13-.1-.33-.15-.52-.15-.52l-4.55,3.72.04.13,5.98,17.23c2.04,5.89,9.62,7.47,13.85,2.9Z" fill="#33ae96" stroke-width="0"/>
      <path d="M225.59,257.27c.09.08.18.17.27.26,1.45,1.3,2.83,2.65,4.13,4.06,4.23,4.58,11.81,2.99,13.85-2.9l6.02-17.35h-.01s-5.08-3.7-5.08-3.7l-.02-.02s-2.51,13.08-19.16,19.65Z" fill="#33ae96" stroke-width="0"/>
      <path d="M148.04,272.91l.11-.75c-.04.25-.08.5-.11.75Z" fill="#66c2b0" stroke-width="0"/>
      <path d="M187.53,278.94c.37-1.85.49-3.78.31-5.76-1.02-11-10.76-19.08-21.75-18.06-7.18.67-13.1,5.06-16.08,11.09-.78,1.59-1.37,3.28-1.71,5.06l39.23,7.67Z" fill="#66c2b0" stroke-width="0"/>
      <polygon points="184.18 296.6 187.54 278.94 187.53 278.94 148.3 271.26 148.29 271.26 148.16 272.16 148.04 272.91 144.54 296.6 184.18 296.6" fill="#66c2b0" stroke-width="0"/>
      <path d="M229.42,223.38c1.22-.24,4.77-2.34,3.89-3.79-.59-.98-4.63-.6-5.89-.6-3.43.02-7.88-.28-7.68,1.02.41,2.65,6.22,4.06,9.67,3.37Z" fill="#fff" stroke-width="0"/>
    </g>
    <g>
      <path d="M177.03,296.81v120.63c0,5.79,4.69,10.49,10.49,10.49h216.81c5.79,0,10.49-4.69,10.49-10.49v-120.63h-237.79Z" fill="#a7bbd4" stroke-width="0"/>
      <path d="M414.81,280.76c0-5.79-4.69-10.49-10.49-10.49h-216.81c-5.79,0-10.49,4.69-10.49,10.49v16.05h237.79v-16.05ZM191.38,288.98c-2.6,0-4.7-2.1-4.7-4.7s2.1-4.7,4.7-4.7,4.7,2.1,4.7,4.7-2.1,4.7-4.7,4.7ZM204.9,288.98c-2.6,0-4.7-2.1-4.7-4.7s2.1-4.7,4.7-4.7,4.7,2.1,4.7,4.7-2.11,4.7-4.7,4.7Z" fill="#4e76a9" stroke-width="0"/>
      <path d="M191.38,279.58c-2.6,0-4.7,2.1-4.7,4.7s2.1,4.7,4.7,4.7,4.7-2.1,4.7-4.7-2.1-4.7-4.7-4.7Z" fill="#000e52" stroke-width="0"/>
      <path d="M204.9,279.58c-2.6,0-4.7,2.1-4.7,4.7s2.1,4.7,4.7,4.7,4.7-2.1,4.7-4.7-2.11-4.7-4.7-4.7Z" fill="#7a98bf" stroke-width="0"/>
    </g>
    <g>
      <path d="M320.39,334.9l-.02-.07s0,.03,0,.04c0,0,0,.02,0,.03Z" fill="#ffd9ab" stroke-width="0"/>
      <path d="M319.44,330.45c-1-5.09-1.49-9.13-1.49-9.13l-1.07-.06c.53,1.32.95,2.89,1.24,4.76.47,1.31.91,2.78,1.32,4.43Z" fill="#ffd9ab" stroke-width="0"/>
      <path d="M238.45,420.27h.01c.18-.41.36-.82.57-1.22,1.18-2.24,2.81-4.07,4.72-5.49,3.5-2.79,8.41-4.94,14.43-6.11.67-.13,1.73-.3,3.02-.48,6.98-1.73,10.63-3.12,13.78-4.99.96-1.43,2.18-2.67,3.75-3.86.28-.21.66-.21.94-.02l.28-2.29h0s1.14-.46,3.06-1.05v-8.72c-5.96-4.33-10.11-10.71-11.66-17.92-.12.03-.24.04-.37.04-.98,0-1.77-.79-1.77-1.77,0-.11.01-.22.03-.32-3.07-1.51-5.18-4.66-5.18-8.31s2.21-6.94,5.39-8.41h0l-.77-2.24c-.62-1.8-.94-3.7-.94-5.6v-9.46c0-6.92,5.61-12.53,12.54-12.53h1.27c3.18-5.29,9.12-5.11,17.23-5.04,8.12-.07,14.07-.24,17.24,5.07,6.7.25,12.06,5.75,12.06,12.51v9.19c0,2.83-.68,5.45-2.02,7.94h0c3.37,1.39,5.75,4.71,5.75,8.58,0,3.61-2.06,6.72-5.07,8.26.03.12.04.25.04.38,0,.98-.79,1.77-1.77,1.77-.27,0-.52-.06-.75-.17-1.46,7.58-5.79,14.31-12.11,18.78v7.91c.78.34,1.56.71,2.32,1.14l.26,2.14h0s0,0,0,0c.21-.03.42.02.6.16.79.6,1.49,1.21,2.11,1.85,3.07,2.09,7.98,4.84,14.92,6.42h0c2.18.35,4.58.75,6.16,1.06,6.83,1.33,12.37,3.87,15.97,7.23.02.01.03.03.05.04,1.6,1.5,2.82,3.17,3.58,4.96.39.84.71,1.73.96,2.65h.02s1.5,5.6,1.5,5.6h7c-3.45-4.48-6.23-9.08-4.13-15.92.5-1.64,1.2-3.17,1.69-4.75,6-19.57-35.43-23.13-30.86-48.85,4.8-27.01.73-42.9-17.51-49.11-5.02-2.09-11.08-3.11-17.45-3.01-6.37-.09-12.43.93-17.45,3.01-18.24,6.2-21.06,26.1-22.36,53.96-1.22,26.09-26.46,19.27-23.75,39.56.22,1.64.66,3.26.89,4.96,1.49,11.14-9.44,13.77-16.46,20.14h15.04l3.22-7.66Z" fill="#ffd9ab" stroke-width="0"/>
      <path d="M243.75,413.55c-1.9,1.42-3.54,3.25-4.72,5.49-.21.4-.39.82-.57,1.23l.15.07c.91-2.51,2.66-4.81,5.13-6.79Z" fill="#f4f6f9" stroke-width="0"/>
      <path d="M238.61,420.34l-.15-.07h-.01s-3.22,7.66-3.22,7.66h1.98c.29-2.33.65-4.54.87-5.68.12-.65.31-1.28.54-1.91Z" fill="#f4f6f9" stroke-width="0"/>
      <path d="M312.17,396.93l2.29-1.12c-.76-.43-1.53-.8-2.32-1.14v1.6c0,.22.02.44.03.66Z" fill="#000e52" stroke-width="0"/>
      <path d="M283,396.27v-1.51c-1.92.59-3.06,1.05-3.06,1.05l3.02,1.47c.02-.34.05-.67.05-1.01Z" fill="#000e52" stroke-width="0"/>
      <path d="M282.96,397.28l10.33,5.04s0,0,0,0h0s3.96,5.43,3.96,5.43l3.87-5.43,11.06-5.39c0-.22-.03-.44-.03-.66v-6.89s-2.97,1.39-12.18,1.84c-.29.02-.58.03-.87.04-.14,0-.26.01-.4.02-.05,0-.09,0-.13,0-.14,0-.28.02-.42.02-.09,0-.19,0-.28,0-.45,0-.87-.01-1.25-.04-.05,0-.1,0-.15,0-.15-.01-.3-.03-.44-.04-3.6-.32-7.09-1.44-10.2-3.32l-.66-.4c-.74-.45-1.45-.93-2.15-1.44v10.23c0,.34-.02.68-.05,1.01Z" fill="#ffae7a" stroke-width="0"/>
      <path d="M324.74,364.63c.09-.01.17-.03.26-.03.85,0,1.56.6,1.73,1.4,3-1.53,5.07-4.65,5.07-8.26,0-3.87-2.38-7.19-5.75-8.58l-1.01,13.07-.3,2.39Z" fill="#ffae7a" stroke-width="0"/>
      <path d="M270.78,364.63l-.42-3.4-.92-11.89c-3.18,1.47-5.39,4.68-5.39,8.41s2.11,6.8,5.18,8.31c.14-.76.77-1.35,1.55-1.43Z" fill="#ffae7a" stroke-width="0"/>
      <path d="M299.96,391.22c9.21-.45,12.18-1.84,12.18-1.84v-2.62c-.36.26-.73.51-1.11.76-3.34,2.14-7.14,3.41-11.07,3.71Z" fill="#e89966" stroke-width="0"/>
      <path d="M296.45,391.23c-.15-.01-.29-.03-.44-.04.14.02.29.03.44.04Z" fill="#e89966" stroke-width="0"/>
      <path d="M297.85,391.28c-.42,0-.83-.02-1.25-.04.38.03.8.04,1.25.04Z" fill="#e89966" stroke-width="0"/>
      <path d="M298.69,391.28c.14,0,.27-.01.4-.02-.18,0-.36.02-.53.02.05,0,.08,0,.13,0Z" fill="#e89966" stroke-width="0"/>
      <path d="M325,364.61c-.09,0-.17.01-.26.03l-.18,1.46c-.08.64-.19,1.27-.31,1.89.23.11.48.17.75.17.98,0,1.77-.79,1.77-1.77,0-.13-.02-.26-.04-.38-.17-.8-.88-1.4-1.73-1.4Z" fill="#fff" stroke-width="0"/>
      <path d="M270.9,365.52l-.11-.9c-.78.08-1.41.67-1.55,1.43-.02.1-.03.21-.03.32,0,.98.79,1.77,1.77,1.77.13,0,.25-.01.37-.04-.18-.86-.34-1.72-.45-2.59Z" fill="#fff" stroke-width="0"/>
      <path d="M279.95,343.89c-.69-.12-1.07-.41-.28-1.06,1.02-.83,2.99-1.07,4.31-1.23,1.03-.12,2.14-.18,3.15.04.5.11,2.01.49,2.08,1.01.02.11,0,.21-.06.29-.09.14-.26.25-.48.33,2.17,1.19,3.73,3.34,4.12,5.89h8.54c.38-2.48,1.88-4.59,3.97-5.8-.35-.08-.65-.21-.78-.42-.05-.08-.07-.18-.06-.29.07-.52,1.58-.9,2.08-1.01,1.01-.22,2.12-.16,3.15-.04,1.32.16,3.3.4,4.31,1.23.65.53.5.82.05.97.96.69,1.77,1.59,2.35,2.62.03,0,.06-.02.1-.02h7.74c-1.6-3.08-2.88-7.35-3.86-11.51,0,0,0-.02,0-.03,0-.01,0-.03,0-.04-.35-1.5-.67-2.98-.94-4.38-.41-1.65-.84-3.12-1.32-4.43.34,2.16.51,4.72.51,7.76,0,.82-39.72.82-39.72,0,0-3.16.19-5.8.56-8.02-.6,1.77-1.22,4.04-1.81,6.95-1.42,7-3.64,11.24-5.41,13.69h5.48c.56-.99,1.32-1.84,2.22-2.52Z" fill="#ffae7a" stroke-width="0"/>
      <path d="M285.81,387.87c3.11,1.87,6.6,3,10.2,3.32.15.01.29.03.44.04.05,0,.1,0,.15,0,.42.03.83.04,1.25.04.09,0,.19,0,.28,0,.14,0,.28-.01.42-.02.18,0,.36-.01.53-.02.29-.01.58-.02.87-.04,3.93-.3,7.74-1.57,11.07-3.71.38-.24.74-.5,1.11-.76,6.32-4.46,10.65-11.19,12.11-18.78.12-.63.23-1.26.31-1.89l.18-1.46.3-2.39,1.01-13.07h0c-.39-.45-.76-.97-1.12-1.55h-7.98c.31.86.49,1.79.49,2.76,0,4.48-3.63,8.11-8.11,8.11s-8.11-3.63-8.11-8.11c0,0,0-.01,0-.02h-8.33s0,.01,0,.02c0,4.48-3.63,8.11-8.11,8.11s-8.11-3.63-8.11-8.11c0-.97.18-1.9.49-2.76h-5.89c-1.08,1.25-1.84,1.71-1.84,1.71h0l.92,11.89.42,3.4.11.9c.11.88.27,1.74.45,2.59,1.55,7.2,5.7,13.59,11.66,17.92.69.5,1.4.99,2.15,1.44l.66.4ZM296.64,354.86c-.22-.93,1.38-1.33,1.6-.39.8,3.39,1.93,7.47-.36,10.58-.58.79-2.02.05-1.43-.75,2-2.72.89-6.49.19-9.44ZM297.86,370.36c1.32,0,5.58-.41,6.2.63.92,1.53-2.81,3.74-4.1,3.99-3.63.72-9.75-.76-10.18-3.55-.21-1.37,4.47-1.05,8.08-1.07Z" fill="#ffae7a" stroke-width="0"/>
      <path d="M318.63,333.79c0-3.04-.17-5.6-.51-7.76-.29-1.87-.71-3.44-1.24-4.76l-33.35-1.77s-1.93,0-4.06,6.27c-.37,2.22-.56,4.86-.56,8.02,0,.82,39.72.82,39.72,0Z" fill="#ffd9ab" stroke-width="0"/>
      <path d="M283.52,319.5h32.01c.16,0,.32.02.48.02-3.17-5.31-9.12-5.14-17.24-5.07-8.11-.07-14.05-.24-17.23,5.04h1.98Z" fill="#ffd9ab" stroke-width="0"/>
      <path d="M269.44,349.33s.75-.46,1.84-1.71h-.3c-.34,0-.61-.27-.61-.61s.27-.61.61-.61h1.26c1.77-2.44,3.99-6.69,5.41-13.69.59-2.91,1.21-5.18,1.81-6.95,2.12-6.27,4.06-6.27,4.06-6.27h-3.25c-6.92,0-12.54,5.61-12.54,12.53v9.46c0,1.91.32,3.8.94,5.6l.77,2.24h0Z" fill="#ffd9ab" stroke-width="0"/>
      <path d="M283.52,319.5l33.35,1.77,1.07.06s.49,4.04,1.49,9.13c.27,1.4.59,2.88.94,4.38l.02.07c.98,4.15,2.26,8.43,3.86,11.51h1.51c.34,0,.61.27.61.61s-.27.61-.61.61h-.82c.36.58.73,1.1,1.12,1.54h0c1.33-2.5,2.02-5.11,2.02-7.94v-9.19c0-6.76-5.36-12.26-12.06-12.51-.16,0-.32-.02-.48-.02h-32.01Z" fill="#ffd9ab" stroke-width="0"/>
      <path d="M297.88,365.04c2.29-3.11,1.16-7.19.36-10.58-.22-.93-1.82-.54-1.6.39.7,2.95,1.81,6.72-.19,9.44-.59.8.85,1.54,1.43.75Z" fill="#d38c5d" stroke-width="0"/>
      <path d="M299.96,374.98c1.29-.26,5.02-2.47,4.1-3.99-.62-1.03-4.88-.64-6.2-.63-3.61.02-8.3-.29-8.08,1.07.43,2.79,6.55,4.27,10.18,3.55Z" fill="#fff" stroke-width="0"/>
      <path d="M289.16,342.94c.05-.08.07-.18.06-.29-.07-.52-1.58-.9-2.08-1.01-1.01-.22-2.12-.16-3.15-.04-1.32.16-3.3.4-4.31,1.23-.79.65-.41.94.28,1.06,1.35-1.01,3.02-1.61,4.84-1.61,1.41,0,2.73.36,3.89.99.22-.08.39-.18.48-.33Z" fill="#ffd9ab" stroke-width="0"/>
      <path d="M314.02,342.83c-1.02-.83-2.99-1.07-4.31-1.23-1.03-.12-2.14-.18-3.15.04-.5.11-2.01.49-2.08,1.01-.02.11,0,.21.06.29.12.21.42.33.78.42,1.19-.68,2.56-1.08,4.03-1.08,1.77,0,3.4.57,4.73,1.53.45-.15.6-.44-.05-.97Z" fill="#ffd9ab" stroke-width="0"/>
      <path d="M291.49,349.76c0-.34.27-.61.61-.61h.71c-.39-2.54-1.95-4.7-4.12-5.89-.62.22-1.6.23-2,.27-1.51.18-3.03.3-4.56.4-.43.03-1.46.08-2.17-.05-.91.68-1.67,1.53-2.22,2.52h.08c.33,0,.61.27.61.61s-.27.61-.61.61h-.63c-.31.86-.49,1.79-.49,2.76,0,4.48,3.63,8.11,8.11,8.11s8.11-3.63,8.11-8.11c0,0,0-.01,0-.02h-.81c-.34,0-.61-.27-.61-.61ZM284.43,348.7c.49-1.47,2.23-1.12,2.35.37.07.86.09,2.46-.82,2.94-.71.38-1.38-.17-1.61-.83-.16-.49-.21-1.64.07-2.48Z" fill="#ffae7a" stroke-width="0"/>
      <path d="M291.49,349.76c0-.34.27-.61.61-.61h.71c-.39-2.54-1.95-4.7-4.12-5.89-.62.22-1.6.23-2,.27-1.51.18-3.03.3-4.56.4-.43.03-1.46.08-2.17-.05-.91.68-1.67,1.53-2.22,2.52h.08c.33,0,.61.27.61.61s-.27.61-.61.61h-.63c-.31.86-.49,1.79-.49,2.76,0,4.48,3.63,8.11,8.11,8.11s8.11-3.63,8.11-8.11c0,0,0-.01,0-.02h-.81c-.34,0-.61-.27-.61-.61ZM284.43,348.7c.49-1.47,2.23-1.12,2.35.37.07.86.09,2.46-.82,2.94-.71.38-1.38-.17-1.61-.83-.16-.49-.21-1.64.07-2.48Z" fill="#fff" opacity=".3" stroke-width="0"/>
      <path d="M285.96,352.01c.91-.48.9-2.08.82-2.94-.13-1.49-1.87-1.84-2.35-.37-.28.84-.23,1.99-.07,2.48.22.66.89,1.21,1.61.83Z" fill="#ffae7a" stroke-width="0"/>
      <path d="M285.96,352.01c.91-.48.9-2.08.82-2.94-.13-1.49-1.87-1.84-2.35-.37-.28.84-.23,1.99-.07,2.48.22.66.89,1.21,1.61.83Z" stroke-width="0"/>
      <path d="M285.96,352.01c.91-.48.9-2.08.82-2.94-.13-1.49-1.87-1.84-2.35-.37-.28.84-.23,1.99-.07,2.48.22.66.89,1.21,1.61.83Z" fill="#fff" opacity=".3" stroke-width="0"/>
      <path d="M279.95,343.89c.71.13,1.75.08,2.17.05,1.52-.09,3.04-.22,4.56-.4.4-.05,1.38-.05,2-.27-1.15-.63-2.48-.99-3.89-.99-1.82,0-3.49.6-4.84,1.61Z" fill="#ffd9ab" stroke-width="0"/>
      <path d="M279.95,343.89c.71.13,1.75.08,2.17.05,1.52-.09,3.04-.22,4.56-.4.4-.05,1.38-.05,2-.27-1.15-.63-2.48-.99-3.89-.99-1.82,0-3.49.6-4.84,1.61Z" fill="#fff" opacity=".3" stroke-width="0"/>
      <path d="M315.91,347.01c0-.3.22-.54.51-.59-.58-1.04-1.39-1.93-2.35-2.62-.67.23-2,.16-2.51.13-1.52-.09-3.04-.22-4.56-.4-.34-.04-1.1-.05-1.7-.19-2.09,1.2-3.59,3.31-3.97,5.8h.81c.33,0,.61.27.61.61s-.27.61-.61.61h-.92s0,.01,0,.02c0,4.48,3.63,8.11,8.11,8.11s8.11-3.63,8.11-8.11c0-.97-.18-1.9-.49-2.76h-.44c-.33,0-.61-.27-.61-.61ZM307.7,348.62c.52-1.57,2.38-1.19,2.51.39.08.92.09,2.63-.88,3.14-.76.4-1.48-.18-1.71-.89-.17-.52-.22-1.75.08-2.64Z" fill="#ffae7a" stroke-width="0"/>
      <path d="M315.91,347.01c0-.3.22-.54.51-.59-.58-1.04-1.39-1.93-2.35-2.62-.67.23-2,.16-2.51.13-1.52-.09-3.04-.22-4.56-.4-.34-.04-1.1-.05-1.7-.19-2.09,1.2-3.59,3.31-3.97,5.8h.81c.33,0,.61.27.61.61s-.27.61-.61.61h-.92s0,.01,0,.02c0,4.48,3.63,8.11,8.11,8.11s8.11-3.63,8.11-8.11c0-.97-.18-1.9-.49-2.76h-.44c-.33,0-.61-.27-.61-.61ZM307.7,348.62c.52-1.57,2.38-1.19,2.51.39.08.92.09,2.63-.88,3.14-.76.4-1.48-.18-1.71-.89-.17-.52-.22-1.75.08-2.64Z" fill="#fff" opacity=".3" stroke-width="0"/>
      <path d="M309.34,352.15c.97-.51.96-2.22.88-3.14-.14-1.59-1.99-1.96-2.51-.39-.3.9-.25,2.12-.08,2.64.24.71.95,1.29,1.71.89Z" fill="#ffae7a" stroke-width="0"/>
      <path d="M309.34,352.15c.97-.51.96-2.22.88-3.14-.14-1.59-1.99-1.96-2.51-.39-.3.9-.25,2.12-.08,2.64.24.71.95,1.29,1.71.89Z" stroke-width="0"/>
      <path d="M309.34,352.15c.97-.51.96-2.22.88-3.14-.14-1.59-1.99-1.96-2.51-.39-.3.9-.25,2.12-.08,2.64.24.71.95,1.29,1.71.89Z" fill="#fff" opacity=".3" stroke-width="0"/>
      <path d="M305.31,343.35c.6.14,1.36.15,1.7.19,1.51.18,3.03.3,4.56.4.5.03,1.84.09,2.51-.13-1.33-.96-2.96-1.53-4.73-1.53-1.47,0-2.85.4-4.03,1.08Z" fill="#ffd9ab" stroke-width="0"/>
      <path d="M305.31,343.35c.6.14,1.36.15,1.7.19,1.51.18,3.03.3,4.56.4.5.03,1.84.09,2.51-.13-1.33-.96-2.96-1.53-4.73-1.53-1.47,0-2.85.4-4.03,1.08Z" fill="#fff" opacity=".3" stroke-width="0"/>
      <path d="M302.76,349.76c0-.34-.27-.61-.61-.61h-10.06c-.34,0-.61.27-.61.61s.27.61.61.61h10.06c.33,0,.61-.27.61-.61Z" fill="#fff" stroke-width="0"/>
      <path d="M326.37,347.01c0-.34-.27-.61-.61-.61h-9.25s-.07.01-.1.02c-.29.05-.51.29-.51.59,0,.34.27.61.61.61h9.25c.34,0,.61-.27.61-.61Z" fill="#fff" stroke-width="0"/>
      <path d="M278.41,347.01c0-.34-.27-.61-.61-.61h-6.82c-.34,0-.61.27-.61.61s.27.61.61.61h6.82c.33,0,.61-.27.61-.61Z" fill="#fff" stroke-width="0"/>
      <path d="M354.54,414.72c1.47,1.39,2.69,3.07,3.58,4.96-.75-1.8-1.98-3.46-3.58-4.96Z" fill="#f4f6f9" stroke-width="0"/>
      <path d="M273.33,423.14l.99-1.04-.99.2c0,.27,0,.55,0,.83Z" fill="#f4f6f9" stroke-width="0"/>
      <path d="M339.67,410.63c5.51-1.24,10.99.45,14.82,4.04-3.6-3.36-9.14-5.9-15.97-7.23-1.58-.31-3.98-.71-6.16-1.06l-3.62,8.77c-.99,2.63-3.61,4.27-6.4,4.02.02,2.06.01,4.33-.02,6.85.29.61.48,1.25.59,1.91h4.03c-.65-8.01,4.66-15.49,12.73-17.3Z" fill="#f4f6f9" stroke-width="0"/>
      <path d="M320.72,423.75c.01-1.7.01-3.28,0-4.74l-4.46-.5,4.47,5.25Z" fill="#f4f6f9" stroke-width="0"/>
      <path d="M271.72,424.83c0-.76-.01-1.5-.02-2.22-4,.44-7.77-2.18-8.7-6.19l-2.16-9.37c.12-.03.23-.06.35-.09-1.29.19-2.36.36-3.02.48-6.02,1.17-10.93,3.32-14.43,6.11-2.47,1.97-4.22,4.27-5.13,6.79-.23.62-.42,1.26-.54,1.91-.21,1.14-.57,3.36-.87,5.68h31.61c.14-.17.27-.34.42-.5l2.47-2.6Z" fill="#f4f6f9" stroke-width="0"/>
      <polygon points="307.18 412.56 297.72 420.51 287.51 412.68 280.79 409.9 282.75 427.93 306.85 427.93 311.34 410.84 307.18 412.56" fill="#8ea3c5" stroke-width="0"/>
      <path d="M301.11,402.32l-3.87,5.43-3.96-5.43h0c-2.28,3.14-3.53,6.9-4.1,11.06l-1.68-.7,10.21,7.82,9.46-7.94-1.96.81c-.57-4.16-1.82-7.92-4.1-11.06Z" fill="#e8edf3" stroke-width="0"/>
      <path d="M279.7,399.41s-.03.03-.05.04l1.14,10.45,6.72,2.79,1.68.7c.57-4.16,1.82-7.92,4.1-11.06t0,0l-10.33-5.04-3.02-1.47h0s-.28,2.29-.28,2.29c.07.05.14.1.2.17.27.36.2.86-.16,1.13Z" fill="#fff" stroke-width="0"/>
      <path d="M301.11,402.32c2.28,3.14,3.53,6.9,4.1,11.06l1.96-.81,4.16-1.73,3-11.44c-.34-.27-.41-.77-.15-1.12.13-.17.32-.28.52-.31h0s-.26-2.16-.26-2.16l-2.29,1.12-11.06,5.39Z" fill="#fff" stroke-width="0"/>
      <path d="M263.01,416.42c.92,4,4.69,6.62,8.7,6.19-.04-10.72.5-16.49,3.27-20.63-3.15,1.87-6.8,3.26-13.78,4.99-.12.03-.23.06-.35.09l2.16,9.37Z" fill="#e8edf3" stroke-width="0"/>
      <path d="M322.34,419.17c2.79.25,5.41-1.39,6.4-4.02l3.62-8.77h0c-6.93-1.58-11.85-4.33-14.92-6.42,3.8,3.9,4.78,8.98,4.9,19.21Z" fill="#e8edf3" stroke-width="0"/>
      <path d="M322.3,427.93h.61c-.11-.66-.3-1.3-.59-1.91,0,.62-.02,1.26-.03,1.91Z" fill="#e8edf3" stroke-width="0"/>
      <path d="M269.25,427.43c-.15.16-.29.33-.42.5h2.94c-.02-1.07-.03-2.11-.04-3.1l-2.47,2.6Z" fill="#e8edf3" stroke-width="0"/>
      <path d="M316.26,418.5l4.46.5c-.14-11.17-1.37-15.82-6.36-19.6,0,0,0,0-.01-.01l-3,11.44-4.48,17.09h13.82c.02-1.47.04-2.87.05-4.19l-4.47-5.25Z" fill="#e8edf3" stroke-width="0"/>
      <path d="M279.65,399.45c-5.42,4.12-6.37,9.3-6.33,22.86l.99-.2-.99,1.04c0,1.49.03,3.09.05,4.79h9.38l-1.96-18.04-1.14-10.45Z" fill="#e8edf3" stroke-width="0"/>
      <path d="M314.73,397.96s0,0,0,0h0s0,0,.01,0Z" fill="#e8edf3" stroke-width="0"/>
      <path d="M359.07,422.33c-.25-.92-.56-1.81-.96-2.65-.89-1.9-2.1-3.57-3.58-4.96-.02-.01-.03-.03-.05-.04-3.83-3.59-9.31-5.28-14.82-4.04-8.07,1.81-13.38,9.29-12.73,17.3h12.98l19.15-5.6Z" fill="#f4f6f9" stroke-width="0"/>
      <polygon points="359.07 422.33 339.92 427.93 360.59 427.93 359.09 422.32 359.07 422.33" fill="#f4f6f9" stroke-width="0"/>
      <path d="M322.34,419.17c-.12-10.22-1.1-15.31-4.9-19.21-.63-.64-1.32-1.25-2.11-1.85-.18-.13-.39-.18-.6-.16,0,0,0,0-.01,0-.2.03-.39.14-.52.31-.27.35-.2.85.15,1.12,0,0,0,0,.01.01,5,3.78,6.22,8.43,6.36,19.6.02,1.47.02,3.04,0,4.74,0,1.32-.03,2.71-.05,4.19h1.62c0-.65.02-1.29.03-1.91.03-2.51.04-4.79.02-6.85Z" fill="#000e52" stroke-width="0"/>
      <path d="M273.32,422.31c-.04-13.56.91-18.74,6.33-22.86.02-.01.03-.03.05-.04.36-.27.43-.78.16-1.13-.05-.07-.12-.13-.2-.17-.28-.19-.65-.2-.94.02-1.56,1.18-2.79,2.42-3.75,3.86-2.77,4.14-3.31,9.91-3.27,20.63,0,.72,0,1.46.02,2.22,0,.99.02,2.03.04,3.1h1.62c-.02-1.7-.04-3.29-.05-4.79,0-.28,0-.56,0-.83Z" fill="#000e52" stroke-width="0"/>
    </g>
    <g>
      <path d="M378.5,326.68c-5.53,0-8.48-1.66-9.01-1.98-.76-.47-1.3-1.23-1.5-2.11-.2-.88-.03-1.79.46-2.55,2.2-3.39,4.37-6.82,6.48-10.22-8.83-9.17-13.84-21.51-13.84-34.28,0-27.24,22.16-49.4,49.4-49.4,27.24,0,49.4,22.16,49.4,49.4,0,27.24-22.16,49.4-49.4,49.4-5.13,0-10.19-.79-15.06-2.35-7.14,3.15-12.77,4.09-16.93,4.09Z" fill="#000e52" stroke-width="0"/>
      <g>
        <path d="M412.51,264.03c4.35,0,7.56-3.31,7.56-7.56s-3.22-7.55-7.56-7.55-7.55,3.31-7.55,7.55,3.21,7.56,7.55,7.56Z" fill="#fff" stroke-width="0"/>
        <path d="M423.41,298.45c-.42-.74-1.35-1.02-2.11-.64l-3.4,1.72c-2.07,1.05-4.44-.72-4.04-3l4.48-25.41c.37-2.11-1.25-4.04-3.39-4.04h-15.3c-1.11,0-2.01.9-2.01,2.01s.84,1.95,1.9,2l2.24.12c1.62.09,2.8,1.58,2.5,3.17l-3.86,20.59c-.58,3.07-.31,10.91,10.06,10.91,6.12,0,10.79-3.74,12.64-5.49.53-.5.64-1.3.28-1.93Z" fill="#fff" stroke-width="0"/>
      </g>
    </g>
  </g>
</svg>