<?xml version="1.0" encoding="UTF-8"?>
<svg xmlns="http://www.w3.org/2000/svg" viewBox="0 0 500 500">
  <g id="Hintergrund">
    <rect x="-.01" width="500" height="500" fill="#d1dbe7" stroke-width="0"/>
  </g>
  <g id="Design">
    <g>
      <rect x="114.62" y="376.59" width="53.82" height="64.84" fill="none" stroke-width="0"/>
      <g id="GKARTE">
        <rect x="66.57" y="74.29" width="159.13" height="100.15" rx="9.58" ry="9.58" fill="#f4f6f9" stroke-width="0"/>
        <rect x="75.68" y="141.9" width="55.47" height="5.14" fill="#8da5c4" stroke-width="0"/>
        <rect x="75.68" y="150.63" width="64.52" height="5.14" fill="#8da5c4" stroke-width="0"/>
        <rect x="75.68" y="159.36" width="32.26" height="5.14" fill="#8da5c4" stroke-width="0"/>
        <rect x="113.88" y="159.36" width="35.59" height="5.14" fill="#8da5c4" stroke-width="0"/>
        <rect x="87.82" y="111.57" width="20.37" height="16.43" rx="3.89" ry="3.89" fill="#00ff64" stroke-width="0"/>
        <g>
          <path d="M132.71,85.39c0-2.4,1.61-3.6,3.35-3.6,1.57,0,2.56.94,2.93,2.22l-1.2.31c-.33-.8-.87-1.33-1.73-1.33-1.13,0-2.02.75-2.02,2.39s.9,2.39,1.99,2.39c1.04,0,1.5-.7,1.58-1.34h-1.31v-1.09h2.57v3.55h-1.1l-.11-.75c-.27.41-.8.83-1.71.83-1.7,0-3.25-1.2-3.25-3.6Z" fill="#000e52" stroke-width="0"/>
          <path d="M144.79,86.78h-3.5c.11.77.57,1.15,1.21,1.15.57,0,.93-.26,1.23-.78l1.01.37c-.39.9-1.08,1.48-2.3,1.48-1.74,0-2.43-1.42-2.43-2.61s.69-2.61,2.43-2.61,2.36,1.4,2.36,2.5v.51ZM143.51,85.79c-.11-.5-.42-.97-1.09-.97-.53,0-.95.33-1.11.97h2.19Z" fill="#000e52" stroke-width="0"/>
          <path d="M145.44,87.62l1-.53c.18.49.51.83,1.01.83.29,0,.58-.15.58-.49s-.51-.55-1.05-.76c-.7-.28-1.21-.7-1.21-1.49s.66-1.42,1.6-1.42c.68,0,1.28.3,1.59.82l-.74.68c-.22-.32-.5-.44-.81-.44-.25,0-.49.14-.49.38,0,.22.18.4,1.04.71.72.26,1.24.67,1.24,1.43,0,1-.72,1.64-1.73,1.64-1.13,0-1.81-.69-2.01-1.37Z" fill="#000e52" stroke-width="0"/>
          <path d="M150.09,87.46v-3.62h1.25v3.25c0,.6.3.83.72.83.6,0,1.16-.72,1.16-2.06v-2.02h1.25v5.07h-1.25v-.81c-.37.53-.92.9-1.57.9-.91,0-1.56-.51-1.56-1.53Z" fill="#000e52" stroke-width="0"/>
          <path d="M155.87,83.84h1.25v.81c.37-.53.92-.9,1.57-.9.91,0,1.56.51,1.56,1.53v3.62h-1.25v-3.25c0-.6-.3-.83-.72-.83-.6,0-1.16.72-1.16,2.06v2.02h-1.25v-5.07Z" fill="#000e52" stroke-width="0"/>
          <path d="M161.38,86.38c0-1.56.78-2.61,2.21-2.61.61,0,1.11.26,1.33.54v-2.51h1.25v7.12h-1.25v-.52c-.14.26-.6.6-1.33.6-1.43,0-2.21-1.06-2.21-2.61ZM165.03,86.38c0-1.01-.51-1.55-1.17-1.55s-1.18.54-1.18,1.55.52,1.55,1.18,1.55,1.17-.54,1.17-1.55Z" fill="#000e52" stroke-width="0"/>
          <path d="M167.57,81.79h1.25v2.87c.32-.51.88-.9,1.61-.9.96,0,1.58.49,1.58,1.53v3.62h-1.25v-3.18c0-.61-.24-.9-.75-.9-.57,0-1.19.57-1.19,1.94v2.14h-1.25v-7.12Z" fill="#000e52" stroke-width="0"/>
          <path d="M177.93,86.78h-3.5c.11.77.57,1.15,1.21,1.15.57,0,.93-.26,1.23-.78l1.01.37c-.39.9-1.08,1.48-2.3,1.48-1.74,0-2.43-1.42-2.43-2.61s.69-2.61,2.43-2.61,2.36,1.4,2.36,2.5v.51ZM176.65,85.79c-.11-.5-.42-.97-1.09-.97-.53,0-.95.33-1.11.97h2.19Z" fill="#000e52" stroke-width="0"/>
          <path d="M178.88,82.38c0-.45.34-.8.8-.8s.8.35.8.8-.34.8-.8.8-.8-.35-.8-.8ZM179.06,83.84h1.25v5.07h-1.25v-5.07Z" fill="#000e52" stroke-width="0"/>
          <path d="M181.88,87.12v-2.21h-.78v-1.07h.78v-1.27l1.25-.78v2.05h1.34v1.07h-1.34v2.19c0,.62.24.82.66.82.17,0,.31-.03.48-.12l.29,1.01c-.28.13-.55.18-.82.18-1.15,0-1.86-.61-1.86-1.87Z" fill="#000e52" stroke-width="0"/>
          <path d="M184.99,87.62l1-.53c.18.49.51.83,1.01.83.29,0,.58-.15.58-.49s-.51-.55-1.05-.76c-.7-.28-1.21-.7-1.21-1.49s.66-1.42,1.6-1.42c.68,0,1.28.3,1.59.82l-.74.68c-.22-.32-.5-.44-.81-.44-.25,0-.49.14-.49.38,0,.22.18.4,1.04.71.72.26,1.24.67,1.24,1.43,0,1-.72,1.64-1.73,1.64-1.13,0-1.81-.69-2.01-1.37Z" fill="#000e52" stroke-width="0"/>
          <path d="M189.76,81.79h1.25v4.04l1.65-1.99h1.54l-2.03,2.33,2.16,2.74h-1.53l-1.79-2.39v2.39h-1.25v-7.12Z" fill="#000e52" stroke-width="0"/>
          <path d="M194.71,87.45c0-1.01.82-1.66,2.12-1.66h.88v-.22c0-.53-.42-.74-.88-.74-.4,0-.71.16-.87.58l-1.06-.24c.16-.83.92-1.41,1.93-1.41,1.34,0,2.13.7,2.13,2.12v3.03h-1.03l-.13-.64c-.35.43-.83.72-1.56.72-.86,0-1.54-.53-1.54-1.54ZM197.71,86.88v-.1h-.83c-.53,0-.86.2-.86.65,0,.29.23.49.56.49.56,0,1.14-.39,1.14-1.05Z" fill="#000e52" stroke-width="0"/>
          <path d="M200.23,83.84h1.25v.82c.36-.59.93-.9,1.5-.9.22,0,.41.04.61.1l-.23,1.16c-.15-.09-.31-.14-.52-.14-.72,0-1.36.59-1.36,2.23v1.8h-1.25v-5.07Z" fill="#000e52" stroke-width="0"/>
          <path d="M204.9,87.12v-2.21h-.78v-1.07h.78v-1.27l1.25-.78v2.05h1.34v1.07h-1.34v2.19c0,.62.24.82.66.82.17,0,.31-.03.48-.12l.29,1.01c-.28.13-.55.18-.82.18-1.15,0-1.86-.61-1.86-1.87Z" fill="#000e52" stroke-width="0"/>
          <path d="M212.72,86.78h-3.5c.11.77.57,1.15,1.21,1.15.57,0,.93-.26,1.23-.78l1.01.37c-.39.9-1.08,1.48-2.3,1.48-1.74,0-2.43-1.42-2.43-2.61s.69-2.61,2.43-2.61,2.36,1.4,2.36,2.5v.51ZM211.44,85.79c-.11-.5-.42-.97-1.09-.97-.53,0-.95.33-1.11.97h2.19Z" fill="#000e52" stroke-width="0"/>
        </g>
        <g>
          <rect x="170.53" y="94.32" width="21.06" height="2.05" fill="red" stroke-width="0"/>
          <rect x="191.59" y="94.32" width="21.06" height="2.05" fill="#fc0" stroke-width="0"/>
          <rect x="149.47" y="94.32" width="21.06" height="2.05" stroke-width="0"/>
        </g>
        <g>
          <path d="M174.29,144.71c1.27-1.7,3.14-2.96,5.37-3.44,1.17-.25,2.38-.48,3.61-.67h.01s.08,0,.08,0l.04.03s.04.03.1.07c2.52-.49,4.37-2.66,4.37-5.25v-3.25c-1.35-.97-2.61-2.15-3.49-3.45-9.11-4.34-4.01-15.93-1.87-19.96.46-1.11,1.15-2.19,2.12-3.17,2.34-2.34,5.9-2.28,5.9-2.28h2.42s2.78,0,2.78,0c0,0,3.56-.05,5.9,2.28.92.92,1.55,1.93,2,2.98,2.34,4,8.71,16.65-1.88,20.62-.87,1.23-2.01,2.38-3.21,3.31v2.92c0,2.57,1.83,4.73,4.33,5.24.05-.03.11-.05.16-.07l.04-.02h.05c1.37.22,2.7.47,3.96.75,2.42.54,4.39,2.01,5.59,3.97v-44.49h-38.36v43.88Z" fill="#b3c1d9" stroke-width="0"/>
          <path d="M202.86,140.68c-2.5-.5-4.33-2.67-4.33-5.24v-2.1s-.58,1.3-4.65,1.3c-.02,0-.03,0-.04,0-.01,0-.02,0-.04,0-.07,0-.14-.01-.21-.02-.16,0-.31-.02-.44-.04-1.49-.21-3.47-1.11-5.28-2.4v3.25c0,2.58-1.85,4.76-4.37,5.25.57.4,3.89,2.57,9.12,2.57,3.33,0,6.77-.87,10.24-2.58Z" fill="#ffae7a" stroke-width="0"/>
          <path d="M207.06,141.34c-1.26-.28-2.59-.53-3.96-.75h-.05s-.04.01-.04.01c-.05.03-.11.05-.16.07-3.47,1.71-6.91,2.58-10.24,2.58-5.23,0-8.55-2.17-9.12-2.57-.06-.04-.09-.07-.1-.07l-.04-.03h-.08s-.01,0-.01,0c-1.23.19-2.44.42-3.61.67-2.23.48-4.1,1.74-5.37,3.44v2.32h38.36v-1.72c-1.2-1.96-3.17-3.44-5.59-3.97Z" fill="#fff" stroke-width="0"/>
          <path d="M193.58,134.63c-.14,0-.28-.01-.44-.04.12.02.28.03.44.04Z" fill="#e89966" stroke-width="0"/>
          <path d="M193.87,134.65c4.07,0,4.65-1.3,4.65-1.3v-.82c-1.63,1.26-3.37,2.1-4.7,2.12.02,0,.03,0,.04,0Z" fill="#e89966" stroke-width="0"/>
          <path d="M203.38,119.07c.02-.45.02-.93,0-1.42v1.44c.75.62,1.24,1.55,1.24,2.61s-.49,1.98-1.24,2.6v.7c0,1.35-.65,2.83-1.64,4.22,10.58-3.97,4.22-16.63,1.88-20.62,2.08,4.88-.23,10.48-.23,10.48Z" fill="#000e52" stroke-width="0"/>
          <path d="M183.07,124.68c-1.07-.57-1.81-1.69-1.81-2.98,0-1.15.58-2.17,1.46-2.78h0c-.05,0-.1.03-.15.04,0,0-2.07-5.36-.06-10.16-2.14,4.04-7.24,15.62,1.87,19.96-.78-1.15-1.28-2.37-1.28-3.6l-.03-.47Z" fill="#000e52" stroke-width="0"/>
          <path d="M193.58,134.63c.07,0,.14.02.21.02.01,0,.02,0,.04,0,1.32-.01,3.06-.85,4.7-2.12,1.2-.93,2.34-2.08,3.21-3.31.99-1.39,1.64-2.87,1.64-4.22v-.7c-.59.49-1.33.79-2.15.79-1.87,0-3.39-1.52-3.39-3.39s1.52-3.39,3.39-3.39c.82,0,1.56.3,2.15.79v-1.44c-.17-3.26-1.29-7.33-3.18-9.37.5,1.59-4.85,6.83-15.38,10.03,1.8.08,3.24,1.56,3.24,3.38s-1.52,3.39-3.39,3.39c-.58,0-1.11-.16-1.59-.41l.03.47c0,1.23.49,2.46,1.28,3.6.88,1.29,2.14,2.48,3.49,3.45,1.81,1.29,3.79,2.19,5.28,2.4.15.02.3.03.44.04Z" fill="#ffae7a" stroke-width="0"/>
          <polygon points="182.72 118.9 182.72 118.91 182.73 118.9 182.72 118.9" fill="#ffae7a" stroke-width="0"/>
          <path d="M182.72,118.91c-.88.61-1.46,1.63-1.46,2.78,0,1.3.74,2.41,1.81,2.98.48.25,1.01.41,1.59.41,1.87,0,3.39-1.52,3.39-3.39s-1.44-3.29-3.24-3.38c-.67.2-1.37.4-2.08.59,0,0,0,0,0,0Z" fill="#ffae7a" stroke-width="0"/>
          <path d="M204.62,121.69c0-1.05-.49-1.98-1.24-2.61-.59-.49-1.33-.79-2.15-.79-1.87,0-3.39,1.52-3.39,3.39s1.52,3.39,3.39,3.39c.82,0,1.56-.3,2.15-.79.75-.62,1.24-1.55,1.24-2.6Z" fill="#ffae7a" stroke-width="0"/>
          <path d="M182.57,118.95c.05-.01.1-.03.15-.04,0,0,0,0,0,0,.72-.19,1.41-.38,2.08-.59,10.53-3.2,15.88-8.44,15.38-10.03,1.89,2.04,3.02,6.11,3.18,9.37.02.5.03.97,0,1.42,0,0,2.32-5.6.23-10.48-.45-1.04-1.08-2.06-2-2.98-2.34-2.34-5.9-2.28-5.9-2.28h-2.78s-2.42,0-2.42,0c0,0-3.56-.05-5.9,2.28-.98.98-1.66,2.06-2.12,3.17-2.01,4.8.06,10.16.06,10.16ZM184.24,116.7v-1.11s9.92-2.21,13.72-7.37l2.38-.85s-1.84,6.92-16.1,9.33Z" fill="#000e52" stroke-width="0"/>
          <path d="M184.24,115.6v1.11c14.26-2.41,16.1-9.33,16.1-9.33l-2.38.85c-3.8,5.16-13.72,7.37-13.72,7.37Z" fill="#000e52" stroke-width="0"/>
        </g>
      </g>
      <g>
        <path d="M235.05,226.37h0c-58.48,0-105.89,47.41-105.89,105.89v3.27c0,30.36,12.78,57.73,33.25,77.04,4.9-5.89,11.75-10.19,19.8-11.93,4.56-.99,9.3-1.87,14.09-2.63h.04s.3,0,.3,0l.16.12s.16.12.42.3c9.81-1.92,17-10.43,17-20.5v-12.34c-2.52-1.77-4.9-3.78-7.01-5.99-57.28-16.3-12.11-90.44-12.11-90.44l.2.02c1.31-2.55,3-4.95,5.18-7.12,9.49-9.47,23.93-9.24,23.93-9.24l9.8-.02,11.26.04s13.08,1.38,23.92,9.28c5.66,4.12,9.23,8.76,11.32,13.56h0s39.16,66.28-16.63,83.18c-2.44,2.91-5.29,5.55-8.28,7.81v11.26c0,10.01,7.11,18.48,16.84,20.46.22-.11.45-.21.67-.32l.17-.08.18.03c5.33.84,10.53,1.82,15.44,2.91,7.67,1.7,14.19,5.81,18.87,11.4,20.31-19.29,32.98-46.56,32.98-76.79v-3.27c0-58.48-47.41-105.89-105.89-105.89Z" fill="#f4f6f9" stroke-width="0"/>
        <path d="M272.64,398.39c-9.73-1.98-16.84-10.45-16.84-20.46v-8.18s-2.28,5.07-18.15,5.06c-2.65,0-4.29-.35-5.2-.93-5.49-1.17-12.23-4.08-18.23-8.3v12.34c0,10.07-7.19,18.58-17,20.5,2.42,1.69,15.35,10,35.55,10,12.96,0,26.38-3.38,39.88-10.04Z" fill="#ffae7a" stroke-width="0"/>
        <path d="M289.09,400.92c-4.91-1.09-10.11-2.07-15.44-2.91l-.18-.03-.17.08c-.22.11-.45.21-.67.32-13.5,6.66-26.92,10.04-39.88,10.04-20.2,0-33.13-8.31-35.55-10-.26-.18-.4-.29-.42-.3l-.16-.12h-.3s-.04,0-.04,0c-4.78.76-9.52,1.64-14.09,2.63-8.05,1.74-14.9,6.05-19.8,11.93,18.96,17.89,44.52,28.86,72.65,28.86h0c28.26,0,53.93-11.07,72.92-29.11-4.68-5.59-11.21-9.7-18.87-11.4Z" fill="#fff" stroke-width="0"/>
        <path d="M232.44,373.89c.92.57,2.55.93,5.2.93,15.88,0,18.15-5.06,18.15-5.06v-3.09c-6.34,4.78-13.33,7.81-18.5,7.8-1.44,0-3.09-.2-4.86-.58Z" fill="#e89966" stroke-width="0"/>
        <path d="M273.56,316.34c3.32,2.52,5.47,6.49,5.47,10.98,0,5.24-2.94,9.8-7.26,12.12v1.28c0,6.36-3.14,12.7-7.69,18.13,55.79-16.9,16.63-83.18,16.63-83.18h0c6.63,15.3-1.91,32.39-7.14,40.67Z" fill="#000e52" stroke-width="0"/>
        <path d="M198.88,339.81c-4.8-2.16-8.14-6.97-8.13-12.57,0-5.23,2.92-9.77,7.21-12.1-4.65-11.78-10.13-31.41-2.67-45.98l-.2-.02s-45.18,74.15,12.11,90.44c-4.92-5.15-8.32-11.39-8.31-18.33v-1.46Z" fill="#000e52" stroke-width="0"/>
        <path d="M237.3,374.47c5.17,0,12.16-3.02,18.5-7.8,2.99-2.26,5.84-4.9,8.28-7.81,4.55-5.43,7.69-11.77,7.69-18.13v-1.28c-1.94,1.04-4.16,1.64-6.52,1.64-7.6,0-13.76-6.18-13.76-13.78,0-2.66.77-5.13,2.07-7.23-.13.12-.26.24-.42.32-1.14.6-2.22-.27-2.58-1.34-.26-.78-.33-2.63.12-3.98.78-2.36,3.58-1.79,3.78.59.08.98.1,2.52-.39,3.63,2.5-3.48,6.58-5.76,11.19-5.76,1.86,0,3.64.38,5.26,1.05.86-10.91,1.29-17.08-6.54-32.55-7.72,7.48-22.94,17.05-51.76,20.74-3.22,3.16-5.84,6.71-7.54,10.72,7.53.09,13.61,6.22,13.6,13.77,0,7.6-6.18,13.76-13.78,13.76-2.01,0-3.91-.44-5.62-1.21v1.46c0,6.94,3.4,13.18,8.31,18.33,2.11,2.21,4.49,4.21,7.01,5.99,6,4.22,12.74,7.13,18.23,8.3,1.77.38,3.42.58,4.86.58ZM235.26,324.45c-.33-1.4,2.07-2,2.4-.59,1.2,5.1,2.89,11.24-.55,15.92-.88,1.19-3.04.08-2.15-1.13,3.01-4.09,1.35-9.76.3-14.2ZM237.07,347.77c1.99-.01,8.39-.6,9.33.95,1.38,2.3-4.24,5.62-6.18,6.01-5.47,1.08-14.67-1.15-15.32-5.35-.32-2.06,6.73-1.58,12.17-1.61ZM248.32,305.85c1.96-.35,4.12-.29,6.11-.13,2.56.21,6.39.54,8.34,1.76,3.08,1.94-3.16,1.78-4.79,1.72-2.95-.11-5.9-.27-8.83-.5-1.05-.08-4.16-.02-4.79-.85-.1-.13-.13-.27-.1-.44.15-.78,3.08-1.38,4.07-1.56ZM210.56,307.45c1.95-1.22,5.78-1.54,8.34-1.75,2-.16,4.16-.22,6.11.13.98.18,3.91.78,4.06,1.57.03.17,0,.32-.1.44-.63.83-3.74.76-4.79.85-2.93.23-5.88.38-8.83.49-1.64.06-7.88.21-4.79-1.72ZM217.99,318.9c-.24-.73-.31-2.46.11-3.73.73-2.21,3.35-1.68,3.54.56.11,1.3.13,3.71-1.24,4.43-1.07.57-2.08-.26-2.41-1.26Z" fill="#ffae7a" stroke-width="0"/>
        <path d="M221.63,295.42c11.95-3.22,27.05-8.81,36.95-17.92-7.37,4.46-23.78,9.47-36.95,17.92Z" fill="#ffae7a" stroke-width="0"/>
        <path d="M202.61,325.34s-2.21-4.02-4.65-10.19c-4.29,2.33-7.21,6.87-7.21,12.1,0,5.6,3.34,10.41,8.13,12.57,1.72.77,3.62,1.21,5.62,1.21,7.6,0,13.77-6.15,13.78-13.76,0-7.55-6.07-13.68-13.6-13.77-1.51,3.56-2.28,7.49-2.08,11.84Z" fill="#ffae7a" stroke-width="0"/>
        <path d="M279.03,327.32c0-4.49-2.15-8.46-5.47-10.98-2,3.16-3.51,5.05-3.51,5.05.14-2.5.32-4.73.48-6.8-1.62-.67-3.39-1.05-5.26-1.05-4.62,0-8.69,2.27-11.19,5.76-.13.3-.3.56-.51.77-1.3,2.1-2.07,4.57-2.07,7.23,0,7.6,6.15,13.77,13.76,13.78,2.36,0,4.58-.59,6.52-1.64,4.32-2.32,7.25-6.88,7.26-12.12Z" fill="#ffae7a" stroke-width="0"/>
        <path d="M197.96,315.15c2.44,6.17,4.65,10.19,4.65,10.19-.2-4.35.57-8.28,2.08-11.84,1.7-4.01,4.32-7.56,7.54-10.72-3.01.39-6.17.71-9.48.96l.42-4.48s8.03-1.02,18.47-3.84c13.17-8.46,29.58-13.46,36.95-17.92.98-.91,1.92-1.85,2.79-2.82l9.94-2.54s-1.62,4.38-7.33,9.91c7.84,15.47,7.41,21.64,6.54,32.55-.16,2.07-.34,4.3-.48,6.8,0,0,1.52-1.88,3.51-5.05,5.23-8.28,13.77-25.37,7.14-40.67-2.08-4.81-5.66-9.44-11.32-13.56-10.83-7.9-23.92-9.28-23.92-9.28l-11.26-.04-9.8.02s-14.44-.23-23.93,9.24c-2.18,2.17-3.87,4.57-5.18,7.12-7.46,14.57-1.99,34.2,2.67,45.98Z" fill="#000e52" stroke-width="0"/>
        <path d="M271.31,272.13l-9.94,2.54c-.87.98-1.81,1.92-2.79,2.82-9.89,9.12-25,14.7-36.95,17.92-10.44,2.82-18.47,3.84-18.47,3.84l-.42,4.48c3.32-.25,6.47-.57,9.48-.96,28.82-3.68,44.04-13.26,51.76-20.74,5.71-5.53,7.33-9.91,7.33-9.91Z" fill="#000e52" stroke-width="0"/>
        <path d="M254.08,319.3c.49-1.11.47-2.66.39-3.63-.2-2.39-3-2.95-3.78-.59-.45,1.35-.38,3.2-.12,3.98.35,1.07,1.43,1.94,2.58,1.34.16-.08.29-.2.42-.32.22-.21.38-.48.51-.77Z" stroke-width="0"/>
        <path d="M220.4,320.15c1.37-.72,1.35-3.13,1.24-4.43-.19-2.24-2.81-2.77-3.54-.56-.42,1.27-.36,3-.11,3.73.33,1,1.34,1.82,2.41,1.26Z" stroke-width="0"/>
        <path d="M237.11,339.77c3.45-4.68,1.76-10.82.55-15.92-.33-1.41-2.73-.81-2.4.59,1.05,4.44,2.71,10.11-.3,14.2-.89,1.2,1.27,2.32,2.15,1.13Z" fill="#faa56e" stroke-width="0"/>
        <path d="M240.22,354.73c1.94-.38,7.56-3.71,6.18-6.01-.94-1.56-7.34-.96-9.33-.95-5.44.03-12.48-.45-12.17,1.61.65,4.2,9.85,6.44,15.32,5.35Z" fill="#fff" stroke-width="0"/>
        <path d="M249.14,308.71c2.93.23,5.88.39,8.83.5,1.64.06,7.88.22,4.79-1.72-1.95-1.23-5.78-1.55-8.34-1.76-2-.17-4.16-.23-6.11.13-.98.18-3.91.78-4.07,1.56-.03.17,0,.32.1.44.63.83,3.74.77,4.79.85Z" fill="#000e52" stroke-width="0"/>
        <path d="M228.98,307.84c.1-.13.13-.27.1-.44-.15-.78-3.08-1.39-4.06-1.57-1.96-.36-4.12-.3-6.11-.13-2.56.21-6.39.53-8.34,1.75-3.08,1.93,3.16,1.78,4.79,1.72,2.95-.11,5.9-.26,8.83-.49,1.05-.08,4.16-.01,4.79-.85Z" fill="#000e52" stroke-width="0"/>
      </g>
      <line x1="149.47" y1="187.89" x2="174.29" y2="223.3" fill="none" stroke="#000e52" stroke-linecap="round" stroke-linejoin="round" stroke-width="7.5"/>
      <g>
        <circle cx="124.14" cy="395.83" r="39.79" fill="#000e52" stroke-width="0"/>
        <path d="M118.53,415.73c-1.22,0-2.39-.49-3.26-1.36l-14.89-15.07c-1.78-1.8-1.76-4.7.04-6.47,1.8-1.77,4.7-1.76,6.47.04l11.38,11.52,22.88-26.84c1.64-1.93,4.53-2.16,6.45-.51,1.92,1.64,2.15,4.53.51,6.45l-26.12,30.64c-.83.98-2.03,1.56-3.31,1.6-.06,0-.11,0-.17,0Z" fill="#00ff64" stroke-width="0"/>
      </g>
      <g>
        <g>
          <path d="M300.27,253.03c-2.08,0-3.77-1.69-3.77-3.77v-16.95c0-8.19,2.15-16.26,6.2-23.34,3.93-6.86,9.58-12.68,16.32-16.82,1.78-1.09,4.1-.53,5.19,1.24,1.09,1.78.53,4.1-1.24,5.19-11.85,7.27-18.92,19.88-18.92,33.73v16.95c0,2.08-1.69,3.77-3.77,3.77Z" fill="#000e52" stroke-width="0"/>
          <path d="M343.57,314.53c-25.96,0-47.08-21.12-47.08-47.08,0-2.08,1.69-3.77,3.77-3.77s3.77,1.69,3.77,3.77c0,21.8,17.74,39.54,39.54,39.54,6.94,0,13.77-1.83,19.75-5.3,5.81-3.37,10.71-8.19,14.17-13.95,1.07-1.79,3.39-2.36,5.18-1.29,1.79,1.07,2.36,3.39,1.29,5.18-4.11,6.85-9.94,12.59-16.85,16.59-7.13,4.13-15.27,6.32-23.54,6.32Z" fill="#000e52" stroke-width="0"/>
          <path d="M386.89,271.22c-2.08,0-3.77-1.69-3.77-3.77v-35.14c0-21.8-17.74-39.54-39.54-39.54-2.08,0-3.77-1.69-3.77-3.77s1.69-3.77,3.77-3.77c25.96,0,47.08,21.12,47.08,47.08v35.14c0,2.08-1.69,3.77-3.77,3.77Z" fill="#000e52" stroke-width="0"/>
          <path d="M326.81,290.58c-.88,0-1.76-.3-2.47-.92-6.45-5.6-10.15-13.69-10.15-22.21v-35.14c0-16.21,13.19-29.4,29.39-29.4,12.34,0,23.46,7.81,27.66,19.43.71,1.96-.31,4.12-2.27,4.83-1.96.71-4.12-.31-4.83-2.27-3.12-8.64-11.39-14.45-20.56-14.45-12.05,0-21.85,9.8-21.85,21.85v35.14c0,6.33,2.75,12.34,7.55,16.51,1.57,1.36,1.74,3.75.38,5.32-.75.86-1.8,1.3-2.85,1.3Z" fill="#000e52" stroke-width="0"/>
          <path d="M343.57,296.84c-2.08,0-3.77-1.69-3.77-3.77s1.69-3.77,3.77-3.77c12.05,0,21.85-9.8,21.85-21.85v-28.35c0-2.08,1.69-3.77,3.77-3.77s3.77,1.69,3.77,3.77v28.35c0,16.21-13.19,29.4-29.4,29.4Z" fill="#000e52" stroke-width="0"/>
          <path d="M343.57,279.15c-6.46,0-11.71-5.25-11.71-11.71v-19.45c0-2.08,1.69-3.77,3.77-3.77s3.77,1.69,3.77,3.77v19.45c0,2.29,1.87,4.16,4.16,4.16,2.08,0,3.77,1.69,3.77,3.77s-1.69,3.77-3.77,3.77Z" fill="#000e52" stroke-width="0"/>
          <path d="M351.51,262.88c-2.08,0-3.77-1.69-3.77-3.77v-26.8c0-2.29-1.87-4.16-4.16-4.16s-4.16,1.87-4.16,4.16c0,2.08-1.69,3.77-3.77,3.77s-3.77-1.69-3.77-3.77c0-6.46,5.25-11.71,11.71-11.71s11.71,5.25,11.71,11.71v26.8c0,2.08-1.69,3.77-3.77,3.77Z" fill="#000e52" stroke-width="0"/>
        </g>
        <g>
          <path d="M426.72,336.11h-34.22c-3.7,0-6.71-3.01-6.71-6.71v-24.96c0-3.7,3.01-6.71,6.71-6.71h34.22c3.7,0,6.71,3.01,6.71,6.71v24.96c0,3.7-3.01,6.71-6.71,6.71ZM393.34,328.56h32.54v-23.29h-32.54v23.29Z" fill="#000e52" stroke-width="0"/>
          <path d="M420.41,305.27c-2.08,0-3.77-1.69-3.77-3.77v-18.04c0-3.28-3.15-5.94-7.02-5.94s-7.02,2.67-7.02,5.94v7.35c0,2.08-1.69,3.77-3.77,3.77s-3.77-1.69-3.77-3.77v-7.35c0-7.44,6.53-13.49,14.57-13.49s14.57,6.05,14.57,13.49v18.04c0,2.08-1.69,3.77-3.77,3.77Z" fill="#000e52" stroke-width="0"/>
        </g>
      </g>
      <g>
        <circle cx="253.49" cy="100.58" r="42" fill="#000e52" stroke-width="0"/>
        <g>
          <g>
            <line x1="235.69" y1="82.77" x2="271.29" y2="118.38" fill="#ff1b7c" stroke-width="0"/>
            <path d="M271.29,122.82c-1.13,0-2.27-.43-3.13-1.3l-35.61-35.61c-1.73-1.73-1.73-4.54,0-6.27,1.73-1.73,4.54-1.73,6.27,0l35.61,35.61c1.73,1.73,1.73,4.54,0,6.27-.87.87-2,1.3-3.13,1.3Z" fill="#ff1b7c" stroke-width="0"/>
          </g>
          <g>
            <line x1="271.29" y1="82.77" x2="235.69" y2="118.38" fill="#ff1b7c" stroke-width="0"/>
            <path d="M235.69,122.82c-1.13,0-2.27-.43-3.13-1.3-1.73-1.73-1.73-4.54,0-6.27l35.61-35.61c1.73-1.73,4.54-1.73,6.27,0,1.73,1.73,1.73,4.54,0,6.27l-35.61,35.61c-.87.87-2,1.3-3.13,1.3Z" fill="#ff1b7c" stroke-width="0"/>
          </g>
        </g>
      </g>
    </g>
  </g>
</svg>