<?xml version="1.0" encoding="UTF-8"?>
<svg xmlns="http://www.w3.org/2000/svg" viewBox="0 0 500 500">
  <g id="Hintergrund">
    <rect x="0" width="500" height="500" fill="#d1dbe7" stroke-width="0"/>
  </g>
  <g id="Design">
    <path d="M256.05,384.78l-.42-143.12c-.08-26.56,21.39-48.15,47.95-48.23l52.12-.15" fill="none" stroke="#000e52" stroke-miterlimit="10" stroke-width="7.5"/>
    <path d="M255.67,269.58V126.46c0-26.56,21.53-48.09,48.09-48.09h52.12" fill="none" stroke="#000e52" stroke-miterlimit="10" stroke-width="7.5"/>
    <path d="M255.86,339.11l-.42-143.12c-.08-26.56-21.67-48.02-48.23-47.95l-52.12.15" fill="none" stroke="#000e52" stroke-miterlimit="10" stroke-width="7.5"/>
    <g>
      <circle cx="134.46" cy="146.91" r="38.52" fill="#4e76a9" stroke-width="0"/>
      <path d="M129.03,166.17c-1.18,0-2.32-.47-3.15-1.32l-14.42-14.59c-1.72-1.74-1.7-4.55.04-6.27,1.74-1.72,4.55-1.7,6.27.04l11.02,11.16,22.16-25.99c1.59-1.86,4.38-2.09,6.25-.5,1.86,1.59,2.09,4.38.5,6.25l-25.29,29.67c-.8.94-1.97,1.51-3.21,1.55-.05,0-.11,0-.16,0Z" fill="#00ff64" stroke-width="0"/>
    </g>
    <g>
      <circle cx="363.43" cy="196.29" r="39.41" fill="#7a98bf" stroke-width="0"/>
      <path d="M357.87,215.99c-1.21,0-2.37-.48-3.23-1.35l-14.75-14.93c-1.76-1.78-1.74-4.65.04-6.41,1.78-1.76,4.65-1.74,6.41.04l11.28,11.41,22.67-26.59c1.62-1.91,4.48-2.14,6.39-.51,1.91,1.62,2.13,4.49.51,6.39l-25.87,30.35c-.82.97-2.01,1.54-3.28,1.59-.06,0-.11,0-.17,0Z" fill="#00ff64" stroke-width="0"/>
    </g>
    <g>
      <circle cx="364.32" cy="74.97" r="38.52" fill="#000e52" stroke-width="0"/>
      <path d="M358.88,94.23c-1.18,0-2.32-.47-3.15-1.32l-14.42-14.59c-1.72-1.74-1.7-4.55.04-6.27,1.74-1.72,4.55-1.7,6.27.04l11.02,11.16,22.16-25.99c1.59-1.86,4.38-2.09,6.25-.5,1.86,1.59,2.09,4.38.5,6.25l-25.29,29.67c-.8.94-1.97,1.51-3.21,1.55-.05,0-.11,0-.16,0Z" fill="#00ff64" stroke-width="0"/>
    </g>
    <g>
      <rect x="132.46" y="267.04" width="237.34" height="183.91" rx="16.95" ry="16.95" fill="#e9eef4" stroke-width="0"/>
      <g>
        <polyline points="156.48 415.53 293.63 397.88 293.93 336.17 156.48 415.53" fill="#225494" stroke-width="0"/>
        <polyline points="352.34 370.24 293.93 336.17 156.48 415.53" fill="#8da5c4" stroke-width="0"/>
        <line x1="156.48" y1="415.53" x2="352.34" y2="370.24" fill="#d9e0ec" stroke-width="0"/>
        <polyline points="156.48 415.53 306.56 343.81 293.93 336.17 156.48 415.53" fill="#000e52" stroke-width="0"/>
        <polyline points="156.48 415.53 234.92 302.45 293.93 336.17 156.48 415.53" fill="#8da5c4" stroke-width="0"/>
        <polyline points="156.48 415.53 280.7 328.88 293.93 336.17 156.48 415.53" fill="#000e52" stroke-width="0"/>
      </g>
    </g>
    <g>
      <path d="M112.99,236.76l-49.27,19.29v42.47c0,20.54,11.11,36.19,20.43,45.7,10.78,11,22.49,17.44,28.84,19.59,6.34-2.15,18.06-8.6,28.84-19.59,9.32-9.51,20.43-25.16,20.43-45.7v-42.47s-49.27-19.29-49.27-19.29Z" fill="#fff" stroke-width="0"/>
      <path d="M111.51,370.64c-16.39-4.23-55.69-30.94-55.69-71.97v-47.14s57.17-22.39,57.17-22.39l57.17,22.39v47.14c0,41.03-39.3,67.75-55.69,71.97l-1.48.38-1.48-.38ZM112.99,241.85l-45.33,17.75v39.07c0,18.9,10.22,33.29,18.8,42.04,9.92,10.12,20.69,16.04,26.53,18.02,5.83-1.98,16.61-7.91,26.53-18.02,8.58-8.75,18.8-23.14,18.8-42.04v-39.07s-45.33-17.75-45.33-17.75Z" fill="#225494" stroke-width="0"/>
      <path d="M93.23,305.57h7.35s0-24.83,0-24.83c0-6.84,5.56-12.4,12.4-12.4,6.84,0,12.4,5.56,12.4,12.4v24.83s7.35,0,7.35,0v-24.83c0-10.89-8.86-19.75-19.75-19.75-10.89,0-19.75,8.86-19.75,19.75v24.83Z" fill="#000e52" stroke-width="0"/>
      <path d="M84.68,313.49c0,15.63,12.67,28.31,28.31,28.31,15.63,0,28.31-12.67,28.31-28.31,0-15.63-12.67-28.31-28.31-28.31-15.63,0-28.31,12.67-28.31,28.31ZM109.89,315.93c-1.53-1.01-2.55-2.74-2.55-4.71,0-3.12,2.53-5.64,5.64-5.64,3.12,0,5.64,2.53,5.64,5.64,0,1.97-1.01,3.71-2.55,4.71l2.39,7.46h-10.96s2.39-7.46,2.39-7.46Z" fill="#00ff64" stroke-width="0"/>
    </g>
  </g>
</svg>