<?xml version="1.0" encoding="UTF-8"?>
<svg xmlns="http://www.w3.org/2000/svg" viewBox="0 0 500 500">
  <g id="Hintergrund">
    <rect width="500" height="500" fill="#d1dbe7" stroke-width="0"/>
  </g>
  <g id="Design">
    <g>
      <polygon points="106.45 72.91 97.06 78.41 97.06 84.63 103.2 80.97 103.2 99.48 96.51 99.48 96.51 104.97 115.38 104.97 115.38 99.48 108.97 99.48 108.97 72.91 106.45 72.91" fill="#fff" stroke-width="0"/>
      <g>
        <path d="M142.22,88.94c0-2.06-.14-3.85-.51-5.36l-8.52,15.62c.83.55,1.79.83,2.89.83,4.22,0,6.14-3.94,6.14-11.08M138.92,78.64c-.77-.5-1.74-.78-2.84-.78-4.21,0-6.14,3.94-6.14,11.08,0,2.06.14,3.8.46,5.31l8.52-15.62ZM124.26,88.94c0-10.26,4.17-16.4,11.82-16.4s11.82,6.14,11.82,16.4-4.17,16.4-11.82,16.4-11.82-6.14-11.82-16.4" fill="#fff" stroke-width="0"/>
        <path d="M172.26,88.94c0-2.06-.14-3.85-.51-5.36l-8.52,15.62c.83.55,1.79.83,2.89.83,4.22,0,6.14-3.94,6.14-11.08M168.96,78.64c-.77-.5-1.74-.78-2.84-.78-4.21,0-6.14,3.94-6.14,11.08,0,2.06.14,3.8.46,5.31l8.52-15.62ZM154.31,88.94c0-10.26,4.17-16.4,11.82-16.4s11.82,6.14,11.82,16.4-4.17,16.4-11.82,16.4-11.82-6.14-11.82-16.4" fill="#fff" stroke-width="0"/>
      </g>
      <polygon points="236.34 72.91 226.95 78.41 226.95 84.63 233.09 80.97 233.09 99.48 226.4 99.48 226.4 104.97 245.27 104.97 245.27 99.48 238.86 99.48 238.86 72.91 236.34 72.91" fill="#fff" stroke-width="0"/>
      <path d="M142.95,131.31c0-2.06-.14-3.85-.51-5.36l-8.52,15.62c.83.55,1.79.82,2.89.82,4.22,0,6.14-3.94,6.14-11.08M139.65,121.01c-.77-.5-1.74-.78-2.84-.78-4.21,0-6.14,3.94-6.14,11.08,0,2.06.14,3.8.46,5.31l8.52-15.62ZM125,131.31c0-10.26,4.17-16.4,11.82-16.4s11.82,6.14,11.82,16.4-4.17,16.4-11.82,16.4-11.82-6.14-11.82-16.4" fill="#fff" stroke-width="0"/>
      <polygon points="157.52 141.85 164.2 141.85 164.2 123.34 158.06 127.01 158.06 120.78 167.46 115.28 169.98 115.28 169.98 141.85 176.39 141.85 176.39 147.34 157.52 147.34 157.52 141.85" fill="#fff" stroke-width="0"/>
      <polygon points="187.75 141.85 194.43 141.85 194.43 123.34 188.29 127.01 188.29 120.78 197.68 115.28 200.2 115.28 200.2 141.85 206.61 141.85 206.61 147.34 187.75 147.34 187.75 141.85" fill="#fff" stroke-width="0"/>
      <path d="M233.46,131.31c0-2.06-.14-3.85-.51-5.36l-8.52,15.62c.83.55,1.79.82,2.89.82,4.22,0,6.14-3.94,6.14-11.08M230.15,121.01c-.77-.5-1.74-.78-2.84-.78-4.21,0-6.14,3.94-6.14,11.08,0,2.06.14,3.8.46,5.31l8.52-15.62ZM215.5,131.31c0-10.26,4.17-16.4,11.82-16.4s11.82,6.14,11.82,16.4-4.17,16.4-11.82,16.4-11.82-6.14-11.82-16.4" fill="#fff" stroke-width="0"/>
      <polygon points="106.45 157.65 97.06 163.15 97.06 169.38 103.2 165.71 103.2 184.22 96.51 184.22 96.51 189.71 115.38 189.71 115.38 184.22 108.97 184.22 108.97 157.65 106.45 157.65" fill="#fff" stroke-width="0"/>
      <path d="M175.01,173.68c0-2.06-.14-3.85-.51-5.36l-8.52,15.62c.83.55,1.79.83,2.89.83,4.22,0,6.14-3.94,6.14-11.08M171.71,163.38c-.77-.5-1.74-.78-2.84-.78-4.21,0-6.14,3.94-6.14,11.08,0,2.06.14,3.8.46,5.31l8.52-15.62ZM157.06,173.68c0-10.26,4.17-16.4,11.82-16.4s11.82,6.14,11.82,16.4-4.17,16.4-11.82,16.4-11.82-6.14-11.82-16.4" fill="#fff" stroke-width="0"/>
      <polygon points="189.58 184.22 196.26 184.22 196.26 165.72 190.12 169.38 190.12 163.15 199.52 157.65 202.04 157.65 202.04 184.22 208.45 184.22 208.45 189.71 189.58 189.71 189.58 184.22" fill="#fff" stroke-width="0"/>
      <g>
        <path d="M235.29,173.68c0-2.06-.14-3.85-.51-5.36l-8.52,15.62c.83.55,1.79.83,2.89.83,4.22,0,6.14-3.94,6.14-11.08M231.99,163.38c-.77-.5-1.74-.78-2.84-.78-4.21,0-6.14,3.94-6.14,11.08,0,2.06.14,3.8.46,5.31l8.52-15.62ZM217.33,173.68c0-10.26,4.17-16.4,11.82-16.4s11.82,6.14,11.82,16.4-4.17,16.4-11.82,16.4-11.82-6.14-11.82-16.4" fill="#fff" stroke-width="0"/>
        <path d="M334.03,173.68c0-2.06-.14-3.85-.51-5.36l-8.52,15.62c.83.55,1.79.83,2.89.83,4.22,0,6.14-3.94,6.14-11.08M330.73,163.38c-.77-.5-1.74-.78-2.84-.78-4.21,0-6.14,3.94-6.14,11.08,0,2.06.14,3.8.46,5.31l8.52-15.62ZM316.08,173.68c0-10.26,4.17-16.4,11.82-16.4s11.82,6.14,11.82,16.4-4.17,16.4-11.82,16.4-11.82-6.14-11.82-16.4" fill="#fff" stroke-width="0"/>
      </g>
      <polygon points="106.45 200.02 97.06 205.52 97.06 211.75 103.2 208.08 103.2 226.59 96.51 226.59 96.51 232.08 115.38 232.08 115.38 226.59 108.97 226.59 108.97 200.02 106.45 200.02" fill="#fff" stroke-width="0"/>
      <polygon points="126.74 226.59 133.42 226.59 133.42 208.09 127.28 211.75 127.28 205.52 136.68 200.03 139.2 200.03 139.2 226.59 145.61 226.59 145.61 232.09 126.74 232.09 126.74 226.59" fill="#fff" stroke-width="0"/>
      <path d="M172.45,216.06c0-2.06-.14-3.85-.51-5.36l-8.52,15.62c.83.55,1.79.83,2.89.83,4.22,0,6.14-3.94,6.14-11.08M169.15,205.75c-.77-.5-1.74-.78-2.84-.78-4.21,0-6.14,3.94-6.14,11.08,0,2.06.14,3.8.46,5.31l8.52-15.62ZM154.49,216.06c0-10.26,4.17-16.4,11.82-16.4s11.82,6.14,11.82,16.4-4.17,16.4-11.82,16.4-11.82-6.14-11.82-16.4" fill="#fff" stroke-width="0"/>
      <polygon points="169.65 242.4 160.26 247.9 160.26 254.12 166.4 250.46 166.4 268.96 159.72 268.96 159.72 274.46 178.58 274.46 178.58 268.96 172.17 268.96 172.17 242.4 169.65 242.4" fill="#fff" stroke-width="0"/>
      <polygon points="199.88 242.4 190.49 247.9 190.49 254.12 196.63 250.46 196.63 268.96 189.94 268.96 189.94 274.46 208.81 274.46 208.81 268.96 202.4 268.96 202.4 242.4 199.88 242.4" fill="#fff" stroke-width="0"/>
      <path d="M229.24,258.43c0-2.06-.14-3.85-.51-5.36l-8.52,15.62c.83.55,1.79.83,2.89.83,4.22,0,6.14-3.94,6.14-11.08M225.94,248.12c-.77-.5-1.74-.78-2.84-.78-4.21,0-6.14,3.94-6.14,11.08,0,2.06.14,3.8.46,5.31l8.52-15.62ZM211.28,258.43c0-10.26,4.17-16.4,11.82-16.4s11.82,6.13,11.82,16.4-4.17,16.4-11.82,16.4-11.82-6.14-11.82-16.4" fill="#fff" stroke-width="0"/>
    </g>
    <g>
      <path d="M303.13,71.95c-26.37,0-47.75,21.38-47.75,47.75v54.35h95.51v-54.35c0-26.37-21.38-47.75-47.75-47.75ZM333.81,155.8h-61.35v-34.91c0-16.94,13.73-30.68,30.68-30.68s30.68,13.73,30.68,30.68v34.91Z" fill="#a4b7d0" stroke-width="0"/>
      <path d="M302.34,155.8h-29.89v-34.91c0-16.68,13.31-30.21,29.89-30.64v-18.26c-26.01.42-46.97,21.61-46.97,47.71v54.35h46.97v-18.26Z" fill="#bbc9dc" stroke-width="0"/>
      <path d="M280.65,147.13h44.97c37.49,0,67.92,30.43,67.92,67.92v46.29c0,16.62-13.49,30.11-30.11,30.11h-120.58c-16.62,0-30.11-13.49-30.11-30.11v-46.29c0-37.49,30.43-67.92,67.92-67.92Z" transform="translate(606.26 438.58) rotate(-180)" fill="#bbc9dc" stroke-width="0"/>
      <path d="M242.84,147.13h59.5v144.32h-21.7c-37.51,0-67.92-30.41-67.92-67.92v-46.29c0-16.63,13.48-30.11,30.11-30.11Z" fill="#6884b2" stroke-width="0"/>
      <path d="M280.65,157.48h44.97c37.49,0,67.92,30.43,67.92,67.92v46.29c0,16.62-13.49,30.11-30.11,30.11h-120.58c-16.62,0-30.11-13.49-30.11-30.11v-46.29c0-37.49,30.43-67.92,67.92-67.92Z" transform="translate(606.26 459.28) rotate(-180)" fill="#a4b7d0" stroke-width="0"/>
      <path d="M242.84,157.48h59.5v144.32h-21.7c-37.51,0-67.92-30.41-67.92-67.92v-46.29c0-16.63,13.48-30.11,30.11-30.11Z" fill="#8ea3c5" stroke-width="0"/>
      <path d="M283.95,223.92c0-10.16,8.24-18.4,18.4-18.4,10.16,0,18.4,8.24,18.4,18.4,0,7.24-4.19,13.48-10.27,16.48l3.22,13.66h-22.69s3.22-13.66,3.22-13.66c-6.08-3-10.27-9.25-10.27-16.48Z" fill="#000e52" stroke-width="0"/>
    </g>
    <g>
      <circle cx="385.83" cy="300.08" r="46.53" fill="#000e52" stroke-width="0"/>
      <path d="M417.68,299.48c-.04-1.68-1.45-3.03-3.12-2.99-1.68.04-3.02,1.43-2.99,3.12.19,8.73-4.04,16.82-11.3,21.64-5.63,3.74-12.37,5.06-19,3.72-6.62-1.34-12.33-5.18-16.06-10.8-7.71-11.62-4.53-27.35,7.09-35.06,9.85-6.54,22.66-5.25,31.03,2.38h-3.33c-1.69,0-3.05,1.37-3.05,3.05s1.37,3.05,3.05,3.05h10c1.69,0,3.05-1.37,3.05-3.05v-10c0-1.68-1.37-3.05-3.05-3.05s-3.05,1.37-3.05,3.05v2.01c-10.39-9.08-25.98-10.52-38.03-2.53-14.42,9.57-18.37,29.1-8.79,43.52,4.64,6.99,11.72,11.75,19.94,13.41,2.09.42,4.2.63,6.28.63,6.11,0,12.09-1.79,17.3-5.25,9.02-5.98,14.26-16.02,14.03-26.85Z" fill="#00ff64" stroke-width="0"/>
    </g>
    <g>
      <path d="M190.45,362.92c-15.04,0-27.24-12.19-27.24-27.24s12.19-27.24,27.24-27.24,27.24,12.19,27.24,27.24-12.19,27.24-27.24,27.24M303.28,322.41l-20.35-7.29c-2.19-9.86-5.96-19.44-11.33-28.33l9.69-19.31c.34-.68.21-1.5-.32-2.04l-18.12-18.55c-.53-.54-1.35-.69-2.03-.37l-19.53,9.23c-8.76-5.58-18.25-9.58-28.05-12l-6.81-20.52c-.24-.72-.91-1.21-1.67-1.22l-25.93-.31c-.76,0-1.44.46-1.69,1.18l-7.29,20.35c-9.86,2.19-19.44,5.96-28.33,11.33l-19.31-9.69c-.68-.34-1.5-.21-2.04.32l-18.55,18.12c-.54.53-.69,1.34-.37,2.03l9.23,19.53c-5.58,8.76-9.58,18.25-12,28.05l-20.52,6.81c-.72.24-1.21.91-1.22,1.67l-.31,25.93c0,.76.46,1.44,1.18,1.69l20.35,7.29c2.19,9.86,5.96,19.44,11.33,28.33l-9.69,19.31c-.34.68-.21,1.5.32,2.04l18.12,18.55c.53.54,1.35.69,2.03.36l19.53-9.23c8.76,5.58,18.25,9.58,28.05,12l6.8,20.52c.24.72.91,1.21,1.67,1.22l25.93.31c.76,0,1.44-.46,1.69-1.18l7.29-20.35c9.86-2.19,19.44-5.96,28.33-11.33l19.31,9.69c.68.34,1.5.21,2.04-.32l18.55-18.12c.54-.53.69-1.34.37-2.03l-9.23-19.53c5.58-8.76,9.58-18.25,12-28.05l20.52-6.8c.72-.24,1.21-.91,1.22-1.67l.31-25.93c0-.76-.46-1.44-1.18-1.69" fill="#225494" stroke-width="0"/>
      <path d="M182.53,362.92c-15.04,0-27.24-12.19-27.24-27.24s12.19-27.24,27.24-27.24,27.24,12.19,27.24,27.24-12.19,27.24-27.24,27.24M295.36,322.41l-20.35-7.29c-2.19-9.86-5.96-19.44-11.33-28.33l9.69-19.31c.34-.68.21-1.5-.32-2.04l-18.12-18.55c-.53-.54-1.35-.69-2.03-.37l-19.53,9.23c-8.76-5.58-18.25-9.58-28.05-12l-6.81-20.52c-.24-.72-.91-1.21-1.67-1.22l-25.93-.31c-.76,0-1.44.46-1.69,1.18l-7.29,20.35c-9.86,2.19-19.44,5.96-28.33,11.33l-19.31-9.69c-.68-.34-1.5-.21-2.04.32l-18.55,18.12c-.54.53-.69,1.34-.36,2.03l9.23,19.53c-5.58,8.76-9.58,18.25-12,28.05l-20.52,6.81c-.72.24-1.21.91-1.22,1.67l-.31,25.93c0,.76.46,1.44,1.18,1.69l20.35,7.29c2.19,9.86,5.96,19.44,11.33,28.33l-9.69,19.31c-.34.68-.21,1.5.32,2.04l18.12,18.55c.53.54,1.35.69,2.03.36l19.53-9.23c8.76,5.58,18.25,9.58,28.05,12l6.8,20.52c.24.72.91,1.21,1.67,1.22l25.93.31c.76,0,1.44-.46,1.69-1.18l7.29-20.35c9.86-2.19,19.44-5.96,28.33-11.33l19.31,9.69c.68.34,1.5.21,2.04-.32l18.55-18.12c.54-.53.69-1.34.37-2.03l-9.23-19.53c5.58-8.76,9.58-18.25,12-28.05l20.52-6.8c.72-.24,1.21-.91,1.22-1.67l.31-25.93c0-.76-.46-1.44-1.18-1.69" fill="#a4b7d0" stroke-width="0"/>
      <path d="M182.53,277.82c-31.9,0-57.86,25.96-57.86,57.86s25.96,57.86,57.86,57.86,57.86-25.96,57.86-57.86-25.96-57.86-57.86-57.86M182.53,400.42c-35.7,0-64.74-29.04-64.74-64.74s29.04-64.74,64.74-64.74,64.74,29.04,64.74,64.74-29.04,64.74-64.74,64.74" fill="#f4f6f9" stroke-width="0"/>
      <polyline points="304.45 449.72 304.45 221.72 68.53 221.72 68.53 449.72 304.45 449.72" fill="none" stroke-width="0"/>
    </g>
  </g>
</svg>