<?xml version="1.0" encoding="UTF-8"?>
<svg xmlns="http://www.w3.org/2000/svg" viewBox="0 0 500 500">
  <g id="Hintergrund">
    <rect x="0" width="500" height="500" fill="#d1dbe7" stroke-width="0"/>
  </g>
  <g id="Design">
    <g>
      <path d="M163.81,298.96c4.12-.91,21.47-4.58,32.63-6.8l-.44-.51,11.79-2.24,1.23,1.31c9.67-3.12,16.48-12.08,16.48-22.52v-9.23s-25.61-4.69-33.68-33.68c-3.21-11.55-2.85-22.25-.7-31.59-4.44-.26-8.66-2.26-11.68-5.69l-2.58-2.94c-5.8-6.59-7.03-16.04-3.11-23.89h0c6.36-12.76,19.13-21.08,33.37-21.74h0c6.05-.28,11.78,2.71,15.02,7.83h0c.16.25.3.5.44.76,9.3-5.84,20.1-9.03,31.29-8.95l20.53.14s14.03-.22,23.24,9.21c.57.58,1.11,1.17,1.63,1.76,0,.01.02.01.03.03h0c18.07,20.46,5.4,42.02,5.4,42.02v16.1c0,14.4-2.17,24.98-8.59,39.84-.46,1.07-.9,2.14-1.3,3.23-1.26,3.41-6.35,13.77-21.54,13.77-.19,0-.41-.01-.61-.02v3.02c0,11.71,8.58,21.59,20.15,23.41.12.02.24.04.37.06.02,0,.05.01.07.01l.82-.88c-.95-.17-1.54-.27-1.54-.27h-.01s-.38-.01-.38-.01h.34s.04,0,.04,0l1.76.04.96-1.04c4,.64,7.96,1.35,11.84,2.14l-1.13,1.32c.92.18,1.78.36,2.52.52,6.82,1.47,12.88,4.58,17.82,8.85.63.34,1.25.71,1.86,1.11.62.41,1.21.84,1.78,1.28h0s.18.14.18.14c.16.13.32.26.48.39l26.65,21.72-9.05-63.7c-.25-1.53,1.87-3.3,5.47-4.9-.6-.73-1.14-1.51-1.6-2.36-4.84-5.25-8.21-12.93-8.96-19.84-1.47-13.47-8.06-17.51-5.56-18.95.73-.42,1.85-.42,3.09.08l-12.79-22.08c-.59-1.03-.24-2.34.78-2.93l28.03-16.23c1.02-.59,2.34-.24,2.93.78l8.86,15.31c.24-.02.49,0,.73.03,1.86.29,3.13,2.14,3,4.21l-.11,1.67c.69-.72,1.6-1.16,2.59-1.15,1.88.01,3.37,1.65,3.48,3.71l.25,4.83c.66-1.06,1.71-1.78,2.93-1.85,1.89-.11,3.47,1.44,3.67,3.51l1.54,16.26,3.55,6.13c.59,1.02.24,2.34-.78,2.93l-2.13,1.23c-.09,2.97-.4,6.55-.91,10.99.42-2.73-.01.13,0,0-.53,3.42-1.96,6.58-3.94,9.31,3.38.44,5.57,1.39,5.8,2.79l9.29,50.21c12.26-21.22,19.28-45.85,19.28-72.11h0c0-79.73-64.64-144.37-144.37-144.37h0c-79.73,0-144.37,64.64-144.37,144.37h0c0,26.7,7.26,51.71,19.9,73.16,3.64-4.34,8.85-7.49,16.01-9.08Z" fill="#225494" stroke-width="0"/>
      <path d="M386.5,223.4l-1.54-16.26c-.2-2.06-1.77-3.61-3.67-3.51-1.21.07-2.27.8-2.93,1.85l-.25-4.83c-.11-2.06-1.6-3.7-3.48-3.71-.99,0-1.9.43-2.59,1.15l.11-1.67c.13-2.07-1.14-3.92-3-4.21-.25-.04-.49-.05-.73-.03l18.07,31.21Z" fill="#f2c29e" stroke-width="0"/>
      <path d="M386.24,244.68c-.01.13.42-2.73,0,0h0Z" fill="#ffd9ab" stroke-width="0"/>
      <path d="M367.24,254.62c5.86-.96,11.22-1.13,15.05-.63,1.99-2.73,3.41-5.89,3.94-9.31.51-4.43.82-8.02.91-10.99l-25.9,15c-1.02.59-2.34.24-2.93-.78l-17.7-30.57c-1.24-.5-2.36-.5-3.09-.08-2.51,1.44,4.09,5.48,5.56,18.95.75,6.91,4.12,14.58,8.96,19.84.46.85,1,1.63,1.6,2.36,3.44-1.53,8.22-2.91,13.6-3.79Z" fill="#ffd9ab" stroke-width="0"/>
      <path d="M358.31,247.91c.59,1.02,1.91,1.37,2.93.78l25.9-15,2.13-1.23c1.03-.59,1.38-1.91.78-2.93l-3.55-6.13-18.07-31.21-8.86-15.31c-.59-1.03-1.91-1.37-2.93-.78l-28.03,16.23c-1.02.59-1.37,1.91-.78,2.93l12.79,22.08,17.7,30.57Z" fill="#000e52" stroke-width="0"/>
      <path d="M293.25,291.68s-.05-.01-.07-.01c-.12-.02-.24-.04-.37-.06-11.57-1.83-20.15-11.7-20.15-23.41v-3.02c.2,0,.42.02.61.02,15.19,0,20.27-10.37,21.54-13.77.4-1.09.84-2.16,1.3-3.23,6.42-14.86,8.59-25.44,8.59-39.84v-16.1s-2.96-23.28-10.33-32.3c-2.8,4.1-13.25,18.4-29.66,29.44.46.04.92.1,1.36.19.98.19,3.91.83,4.06,1.68.03.19,0,.35-.1.48-.64.91-3.75.85-4.8.95-2.19.2-4.4.34-6.6.46-8.73,4.94-18.85,8.72-30.15,9.73-.27-.11-.54-.22-.82-.31-3.4-1.09-7.23-.27-9.65,2.36-1.79,1.94-2.79,4.6-2.54,7.46l.92,10.51c.42,4.84,4.33,8.59,9.13,8.88.19.01.38.03.57.03,3.05,7.6,7.26,14.39,12.09,19.35,8.28,8.49,21.34,12.58,30.3,13.71-20.73-.42-38.64-12.83-42.96-16.06v19.41c0,10.44-6.82,19.4-16.48,22.52l42.87,45.57,41.35-44.6ZM293.78,205.45c-1.25.66-2.42-.3-2.81-1.46-.28-.85-.36-2.86.13-4.34.85-2.58,3.9-1.96,4.12.64.13,1.51.15,4.31-1.44,5.15ZM289.73,189.54c1.7-.37,3.57-.28,5.31-.07,2.23.26,5.55.65,7.26,2.01,2.7,2.14-2.72,1.91-4.14,1.82-2.56-.15-5.13-.35-7.68-.64-.91-.1-3.61-.07-4.17-.98-.08-.14-.12-.3-.09-.48.12-.85,2.66-1.47,3.51-1.66ZM277.68,225.36c3.28-4.46,1.46-10.65.32-15.48-.36-1.53,2.26-2.18,2.62-.65,1.32,5.56,3.16,12.25-.59,17.35-.96,1.3-3.31.09-2.35-1.23ZM277.91,236.23c1.61,0,6.77-.49,7.53.77,1.12,1.86-3.42,4.54-4.99,4.85-4.42.88-11.84-.93-12.37-4.32-.26-1.66,5.43-1.27,9.82-1.3ZM258.91,203.85c-.27-.8-.34-2.68.12-4.07.8-2.41,3.65-1.83,3.86.6.12,1.42.14,4.04-1.35,4.83-1.17.62-2.27-.28-2.63-1.37Z" fill="#ffd9ab" stroke-width="0"/>
      <path d="M268.47,264.85c-8.96-1.13-22.02-5.22-30.3-13.71-4.83-4.95-9.03-11.75-12.09-19.35-.19,0-.38-.02-.57-.03v17.02c4.32,3.23,22.23,15.65,42.96,16.06Z" fill="#f2c29e" stroke-width="0"/>
      <path d="M226.46,198.29c17.56-3.39,41.2-18.82,55.82-34.39-12.94,7.06-35.67,20.02-55.82,34.39Z" fill="#ffd9ab" stroke-width="0"/>
      <path d="M225.51,231.77c-4.79-.29-8.7-4.04-9.13-8.88l-.92-10.51c-.25-2.86.76-5.52,2.54-7.46,2.42-2.63,6.25-3.44,9.65-2.36.28.09.55.2.82.31,11.31-1.01,21.42-4.78,30.15-9.73,2.2-.12,4.41-.26,6.6-.46,1.05-.09,4.16-.04,4.8-.95.1-.14.14-.3.1-.48-.15-.85-3.08-1.49-4.06-1.68-.44-.09-.9-.14-1.36-.19,16.41-11.04,26.86-25.34,29.66-29.44,7.37,9.02,10.33,32.3,10.33,32.3,0,0,12.67-21.56-5.4-42.02h0s-.02-.02-.03-.03c-.52-.59-1.06-1.17-1.63-1.76-9.21-9.43-23.24-9.21-23.24-9.21l-20.53-.14c-11.19-.08-21.99,3.11-31.29,8.95-.14-.25-.28-.51-.44-.76h0c-3.23-5.12-8.97-8.11-15.02-7.83h0c-14.24.66-27.01,8.98-33.37,21.74h0c-3.92,7.86-2.68,17.3,3.11,23.89l2.58,2.94c3.01,3.43,7.24,5.43,11.68,5.69-2.15,9.33-2.52,20.04.7,31.59,8.06,28.98,33.68,33.68,33.68,33.68v-27.2ZM226.46,198.29c20.16-14.37,42.88-27.33,55.82-34.39-14.62,15.56-38.26,31-55.82,34.39Z" fill="#b5632e" stroke-width="0"/>
      <path d="M291.1,199.65c-.49,1.47-.41,3.49-.13,4.34.39,1.16,1.56,2.12,2.81,1.46,1.59-.84,1.57-3.64,1.44-5.15-.22-2.6-3.27-3.22-4.12-.64Z" stroke-width="0"/>
      <path d="M262.89,200.39c-.21-2.44-3.07-3.02-3.86-.6-.46,1.38-.38,3.27-.12,4.07.36,1.09,1.46,1.99,2.63,1.37,1.49-.79,1.47-3.41,1.35-4.83Z" stroke-width="0"/>
      <path d="M280.03,226.59c3.75-5.11,1.91-11.8.59-17.35-.36-1.53-2.98-.88-2.62.65,1.15,4.84,2.96,11.02-.32,15.48-.96,1.31,1.39,2.53,2.35,1.23Z" fill="#f2c29e" stroke-width="0"/>
      <path d="M290.48,192.66c2.55.28,5.11.49,7.68.64,1.42.08,6.84.32,4.14-1.82-1.71-1.36-5.04-1.75-7.26-2.01-1.74-.2-3.61-.29-5.31.07-.85.18-3.39.81-3.51,1.66-.03.19,0,.34.09.48.56.91,3.26.88,4.17.98Z" fill="#b5632e" stroke-width="0"/>
      <polygon points="292.14 290.52 292.51 290.53 292.48 290.53 292.14 290.52" fill="#66c2b0" stroke-width="0"/>
      <path d="M292.51,290.53h.01s.58.1,1.54.27l.21-.23-1.76-.04Z" fill="#66c2b0" stroke-width="0"/>
      <path d="M382.29,253.99c-3.83-.49-9.19-.33-15.05.63-5.38.88-10.16,2.26-13.6,3.79-3.6,1.6-5.72,3.36-5.47,4.9l9.05,63.7-26.65-21.72c-.16-.13-.32-.26-.48-.39l-.18-.15h0c-.57-.44-1.16-.87-1.78-1.28-.61-.4-1.23-.76-1.86-1.11-4.94-4.26-11-7.37-17.82-8.85-.74-.16-1.6-.34-2.52-.52l-54.4,63.24-55.1-64.07c-11.16,2.22-28.51,5.89-32.63,6.8-7.16,1.59-12.37,4.73-16.01,9.08,25.1,42.61,71.44,71.21,124.48,71.21h0c53.47,0,100.14-29.07,125.1-72.26l-9.29-50.21c-.23-1.4-2.42-2.35-5.8-2.79Z" fill="#66c2b0" stroke-width="0"/>
      <path d="M251.54,356.23l54.4-63.24,1.13-1.32c-3.88-.78-7.84-1.5-11.84-2.14l-.96,1.04-.21.23-.82.88-41.35,44.6-42.87-45.57-1.23-1.31-11.79,2.24.44.51,55.1,64.07Z" fill="#33ae96" stroke-width="0"/>
      <path d="M268.09,237.52c.52,3.39,7.95,5.2,12.37,4.32,1.57-.31,6.1-2.99,4.99-4.85-.76-1.26-5.92-.78-7.53-.77-4.39.02-10.08-.36-9.82,1.3Z" fill="#fff" stroke-width="0"/>
    </g>
    <path d="M194.42,334.8c-.6,0-1.2.02-1.79.05-6.08-22.99-27.02-39.94-51.92-39.94-27.72,0-50.54,21.01-53.4,47.97-1.6-.26-3.24-.41-4.91-.41-16.52,0-29.92,13.4-29.92,29.92s13.4,29.92,29.92,29.92h112.01c18.64,0,33.76-15.11,33.76-33.76s-15.11-33.76-33.76-33.76Z" fill="#fff" stroke-width="0"/>
    <g>
      <circle cx="175.47" cy="405.29" r="43.56" fill="#000e52" stroke-width="0"/>
      <g>
        <polyline points="153.05 410.87 175.47 433.28 197.88 410.87" fill="none" stroke="#00ff64" stroke-linecap="round" stroke-miterlimit="10" stroke-width="7.26"/>
        <line x1="175.47" y1="375.78" x2="175.47" y2="428.84" fill="none" stroke="#00ff64" stroke-linecap="round" stroke-miterlimit="10" stroke-width="7.26"/>
      </g>
    </g>
  </g>
</svg>