<?xml version="1.0" encoding="UTF-8"?>
<svg xmlns="http://www.w3.org/2000/svg" viewBox="0 0 500 500">
  <g id="Hintergrund">
    <rect x="-.01" width="500" height="500" fill="#d1dbe7" stroke-width="0"/>
  </g>
  <g id="Design">
    <g>
      <g>
        <g>
          <rect x="75.96" y="54.5" width="159.13" height="100.15" rx="9.58" ry="9.58" fill="#f4f6f9" stroke-width="0"/>
          <path d="M225.52,54.5H85.54c-5.29,0-9.58,4.29-9.58,9.58v24.99c20.85,4.23,42.44,3.42,62.95-2.43l20.69-5.89c21.83-6.22,44.89-6.75,66.98-1.55l8.51,2.01v-17.13c0-5.29-4.29-9.58-9.58-9.58Z" fill="#8ea3c5" stroke-width="0"/>
          <path d="M220.01,82.66c-15.42-4.96-32.01-4.93-47.41.1l-50.83,16.59c-11.62,3.79-23.97,4.76-36.04,2.82l-9.77-1.57v44.48c0,5.29,4.29,9.58,9.58,9.58h139.98c5.29,0,9.58-4.29,9.58-9.58v-57.57l-15.09-4.85Z" fill="#e8edf3" stroke-width="0"/>
          <rect x="85.07" y="122.11" width="55.47" height="5.14" fill="#8ea3c5" stroke-width="0"/>
          <rect x="85.07" y="130.84" width="64.52" height="5.14" fill="#8ea3c5" stroke-width="0"/>
          <rect x="85.07" y="139.57" width="32.26" height="5.14" fill="#8ea3c5" stroke-width="0"/>
          <rect x="123.27" y="139.57" width="35.59" height="5.14" fill="#8ea3c5" stroke-width="0"/>
          <rect x="97.21" y="91.79" width="20.37" height="16.43" rx="3.89" ry="3.89" fill="#00ff64" stroke-width="0"/>
          <g>
            <path d="M89.1,66.82h1.31v2.67h2.81v-2.67h1.31v7.03h-1.31v-3.15h-2.81v3.15h-1.31v-7.03Z" fill="#000e52" stroke-width="0"/>
            <path d="M100.55,71.73h-3.5c.11.77.57,1.14,1.21,1.14.57,0,.92-.26,1.23-.78l1.01.37c-.39.89-1.08,1.48-2.3,1.48-1.74,0-2.43-1.42-2.43-2.61s.69-2.61,2.43-2.61,2.36,1.4,2.36,2.5v.51ZM99.28,70.74c-.11-.5-.42-.97-1.08-.97-.53,0-.94.33-1.11.97h2.19Z" fill="#000e52" stroke-width="0"/>
            <path d="M101.5,67.34c0-.45.34-.8.8-.8s.8.35.8.8-.34.8-.8.8-.8-.35-.8-.8ZM101.68,68.79h1.25v5.06h-1.25v-5.06Z" fill="#000e52" stroke-width="0"/>
            <path d="M104.34,66.74h1.25v7.11h-1.25v-7.11Z" fill="#000e52" stroke-width="0"/>
            <path d="M108.24,73.34v.52h-1.25v-7.11h1.25v2.51c.22-.28.71-.54,1.23-.54,1.53,0,2.31,1.05,2.31,2.61s-.78,2.61-2.31,2.61c-.62,0-1.08-.34-1.23-.6ZM110.47,71.33c0-1-.52-1.55-1.18-1.55s-1.17.54-1.17,1.55.51,1.55,1.17,1.55,1.18-.54,1.18-1.55Z" fill="#000e52" stroke-width="0"/>
            <path d="M117.42,71.73h-3.5c.11.77.57,1.14,1.21,1.14.57,0,.92-.26,1.23-.78l1.01.37c-.39.89-1.08,1.48-2.3,1.48-1.74,0-2.43-1.42-2.43-2.61s.69-2.61,2.43-2.61,2.36,1.4,2.36,2.5v.51ZM116.14,70.74c-.11-.5-.42-.97-1.08-.97-.53,0-.94.33-1.11.97h2.19Z" fill="#000e52" stroke-width="0"/>
            <path d="M118.55,68.79h1.25v.82c.36-.59.92-.9,1.5-.9.22,0,.41.04.61.1l-.23,1.16c-.15-.09-.31-.14-.52-.14-.72,0-1.36.59-1.36,2.23v1.8h-1.25v-5.06Z" fill="#000e52" stroke-width="0"/>
            <path d="M122.66,72.41v-3.62h1.25v3.25c0,.6.3.84.72.84.6,0,1.16-.72,1.16-2.06v-2.02h1.25v5.06h-1.25v-.81c-.37.53-.91.89-1.57.89-.9,0-1.56-.51-1.56-1.53Z" fill="#000e52" stroke-width="0"/>
            <path d="M128.48,69.86h-.64v-1.06h.64v-.26c0-1.24.7-1.79,1.75-1.79.39,0,.72.08.94.2l-.27,1.01c-.21-.09-.39-.14-.6-.14-.35,0-.57.18-.57.63v.35h1.06v1.06h-1.06v4h-1.25v-4Z" fill="#000e52" stroke-width="0"/>
            <path d="M131.22,72.57l1-.53c.18.49.51.84,1,.84.29,0,.58-.15.58-.49s-.51-.55-1.05-.76c-.7-.28-1.21-.7-1.21-1.49s.66-1.42,1.6-1.42c.68,0,1.28.3,1.59.82l-.74.68c-.22-.32-.5-.44-.81-.44-.25,0-.49.14-.49.38,0,.22.18.4,1.03.71.72.26,1.24.67,1.24,1.43,0,1-.72,1.64-1.73,1.64-1.12,0-1.81-.69-2.01-1.37Z" fill="#000e52" stroke-width="0"/>
            <path d="M135.67,72.4c0-1.01.82-1.66,2.12-1.66h.88v-.22c0-.53-.42-.74-.88-.74-.4,0-.71.16-.87.58l-1.06-.24c.16-.83.92-1.41,1.93-1.41,1.34,0,2.13.7,2.13,2.12v3.02h-1.02l-.13-.64c-.35.43-.83.72-1.56.72-.86,0-1.54-.53-1.54-1.54ZM138.67,71.83v-.1h-.83c-.53,0-.86.2-.86.65,0,.29.23.49.56.49.56,0,1.14-.39,1.14-1.05Z" fill="#000e52" stroke-width="0"/>
            <path d="M141.23,72.41v-3.62h1.25v3.25c0,.6.3.84.72.84.6,0,1.16-.72,1.16-2.06v-2.02h1.25v5.06h-1.25v-.81c-.37.53-.91.89-1.57.89-.9,0-1.56-.51-1.56-1.53Z" fill="#000e52" stroke-width="0"/>
            <path d="M146.6,72.57l1-.53c.18.49.51.84,1,.84.29,0,.58-.15.58-.49s-.51-.55-1.05-.76c-.7-.28-1.21-.7-1.21-1.49s.66-1.42,1.6-1.42c.68,0,1.28.3,1.59.82l-.74.68c-.22-.32-.5-.44-.81-.44-.25,0-.49.14-.49.38,0,.22.18.4,1.03.71.72.26,1.24.67,1.24,1.43,0,1-.72,1.64-1.73,1.64-1.12,0-1.81-.69-2.01-1.37Z" fill="#000e52" stroke-width="0"/>
            <path d="M150.76,68.79h1.26l.9,3.48.85-3.48h1.17l.85,3.48.9-3.48h1.26l-1.62,5.06h-1.11l-.87-3.28-.87,3.28h-1.11l-1.62-5.06Z" fill="#000e52" stroke-width="0"/>
            <path d="M163.22,71.73h-3.5c.11.77.57,1.14,1.21,1.14.57,0,.92-.26,1.23-.78l1.01.37c-.39.89-1.08,1.48-2.3,1.48-1.74,0-2.43-1.42-2.43-2.61s.69-2.61,2.43-2.61,2.36,1.4,2.36,2.5v.51ZM161.94,70.74c-.11-.5-.42-.97-1.08-.97-.53,0-.94.33-1.11.97h2.19Z" fill="#000e52" stroke-width="0"/>
            <path d="M164.17,67.34c0-.45.34-.8.8-.8s.8.35.8.8-.34.8-.8.8-.8-.35-.8-.8ZM164.35,68.79h1.25v5.06h-1.25v-5.06Z" fill="#000e52" stroke-width="0"/>
            <path d="M166.54,72.57l1-.53c.18.49.51.84,1,.84.29,0,.58-.15.58-.49s-.51-.55-1.05-.76c-.7-.28-1.21-.7-1.21-1.49s.66-1.42,1.6-1.42c.68,0,1.28.3,1.59.82l-.74.68c-.22-.32-.5-.44-.81-.44-.25,0-.49.14-.49.38,0,.22.18.4,1.03.71.72.26,1.24.67,1.24,1.43,0,1-.72,1.64-1.73,1.64-1.12,0-1.81-.69-2.01-1.37Z" fill="#000e52" stroke-width="0"/>
          </g>
        </g>
        <g>
          <circle cx="235.53" cy="86.46" r="42" fill="#000e52" stroke-width="0"/>
          <g>
            <g>
              <line x1="217.73" y1="68.65" x2="253.33" y2="104.27" fill="#ff1b7c" stroke-width="0"/>
              <path d="M253.33,108.7c-1.13,0-2.27-.43-3.13-1.3l-35.61-35.61c-1.73-1.73-1.73-4.54,0-6.27,1.73-1.73,4.54-1.73,6.27,0l35.61,35.61c1.73,1.73,1.73,4.54,0,6.27-.87.87-2,1.3-3.13,1.3Z" fill="#ff1b7c" stroke-width="0"/>
            </g>
            <g>
              <line x1="253.33" y1="68.65" x2="217.73" y2="104.27" fill="#ff1b7c" stroke-width="0"/>
              <path d="M217.73,108.7c-1.13,0-2.27-.43-3.13-1.3-1.73-1.73-1.73-4.54,0-6.27l35.61-35.61c1.73-1.73,4.54-1.73,6.27,0,1.73,1.73,1.73,4.54,0,6.27l-35.61,35.61c-.87.87-2,1.3-3.13,1.3Z" fill="#ff1b7c" stroke-width="0"/>
            </g>
          </g>
        </g>
      </g>
      <g>
        <path d="M365.66,386.61h47.29c2.08-4.46,3.89-9.08,5.41-13.82h-52.7c-4.16,0-7.53-3.37-7.53-7.53v-57.81c0-4.16,3.37-7.53,7.53-7.53h52.7c-1.52-4.74-3.33-9.36-5.41-13.82h-47.29c-4.16,0-7.53-3.37-7.53-7.53v-48.86c-5.4-2.7-11.02-5-16.85-6.87v55.73c0,4.16-3.37,7.53-7.53,7.53h-57.81c-4.16,0-7.53-3.37-7.53-7.53v-55.73c-5.82,1.87-11.45,4.17-16.85,6.87v48.86c0,4.16-3.37,7.53-7.53,7.53h-47.29c-2.08,4.46-3.89,9.08-5.41,13.82h52.7c4.16,0,7.53,3.37,7.53,7.53v57.81c0,4.16-3.37,7.53-7.53,7.53h-52.7c1.52,4.74,3.33,9.36,5.41,13.82h47.29c4.16,0,7.53,3.37,7.53,7.53v48.86c5.4,2.7,11.02,5,16.85,6.87v-55.73c0-4.16,3.37-7.53,7.53-7.53h57.81c4.16,0,7.53,3.37,7.53,7.53v55.73c5.82-1.87,11.45-4.17,16.85-6.87v-48.86c0-4.16,3.37-7.53,7.53-7.53ZM341.19,365.25c0,4.16-3.37,7.53-7.53,7.53h-57.81c-4.16,0-7.53-3.37-7.53-7.53v-57.81c0-4.16,3.37-7.53,7.53-7.53h57.81c4.16,0,7.53,3.37,7.53,7.53v57.81Z" fill="#225494" stroke-width="0"/>
        <path d="M275.94,286.09h57.81c4.16,0,7.53-3.37,7.53-7.53v-55.73c-11.49-3.68-23.73-5.68-36.43-5.68s-24.95,2-36.43,5.68v55.73c0,4.16,3.37,7.53,7.53,7.53Z" fill="#ccebe5" stroke-width="0"/>
        <path d="M251.56,365.25v-57.81c0-4.16-3.37-7.53-7.53-7.53h-52.7c-3.68,11.49-5.68,23.73-5.68,36.43s2,24.95,5.68,36.43h52.7c4.16,0,7.53-3.37,7.53-7.53Z" fill="#fff" stroke-width="0"/>
        <path d="M333.75,386.61h-57.81c-4.16,0-7.53,3.37-7.53,7.53v55.73c11.49,3.68,23.73,5.68,36.43,5.68s24.95-2,36.43-5.68v-55.73c0-4.16-3.37-7.53-7.53-7.53Z" fill="#7a98bf" stroke-width="0"/>
        <path d="M244.03,386.61h-47.29c11.37,24.42,30.78,44.35,54.82,56.39v-48.86c0-4.16-3.37-7.53-7.53-7.53Z" fill="#f5b5a0" stroke-width="0"/>
        <path d="M251.56,278.56v-48.86c-24.04,12.04-43.45,31.96-54.82,56.39h47.29c4.16,0,7.53-3.37,7.53-7.53Z" fill="#ffa4cb" stroke-width="0"/>
        <path d="M365.66,286.09h47.29c-11.37-24.42-30.78-44.35-54.82-56.39v48.86c0,4.16,3.37,7.53,7.53,7.53Z" fill="#a7bbd4" stroke-width="0"/>
        <path d="M358.13,307.45v57.81c0,4.16,3.37,7.53,7.53,7.53h52.7c3.68-11.49,5.68-23.73,5.68-36.43s-2-24.95-5.68-36.43h-52.7c-4.16,0-7.53,3.37-7.53,7.53Z" fill="#66c2b0" stroke-width="0"/>
        <path d="M365.66,386.61c-4.16,0-7.53,3.37-7.53,7.53v48.86c24.04-12.04,43.45-31.96,54.82-56.39h-47.29Z" fill="#d1dbe7" stroke-width="0"/>
        <rect x="268.32" y="299.92" width="72.87" height="72.87" rx="7.53" ry="7.53" fill="#f9f799" stroke-width="0"/>
      </g>
      <g>
        <circle cx="176.87" cy="279.59" r="42" fill="#000e52" stroke-width="0"/>
        <g>
          <polyline points="155.26 284.97 176.87 306.59 198.49 284.97" fill="none" stroke="#00ff64" stroke-linecap="round" stroke-miterlimit="10" stroke-width="7"/>
          <line x1="176.87" y1="251.13" x2="176.87" y2="302.3" fill="none" stroke="#00ff64" stroke-linecap="round" stroke-miterlimit="10" stroke-width="7"/>
        </g>
      </g>
      <line x1="165.78" y1="167.79" x2="217.73" y2="221.68" fill="none" stroke="#000e52" stroke-linecap="round" stroke-linejoin="round" stroke-width="7.5"/>
    </g>
  </g>
</svg>