<?xml version="1.0" encoding="UTF-8"?>
<svg xmlns="http://www.w3.org/2000/svg" viewBox="0 0 500 500">
  <g id="Hintergrund">
    <rect width="500" height="500" fill="#d1dbe7" stroke-width="0"/>
  </g>
  <g id="Design">
    <g>
      <path d="M197.23,262.52h0c0-6.91-5.6-12.52-12.52-12.52h-57.97c-6.91,0-12.52,5.6-12.52,12.52v160.06h194.98v-135.03c0-6.91-5.6-12.52-12.52-12.52h-86.95c-6.91,0-12.52-5.6-12.52-12.52Z" fill="#42659f" stroke-width="0"/>
      <g>
        <rect x="166.33" y="102.67" width="213.71" height="293.7" rx="6.97" ry="6.97" fill="#bbc9dc" stroke-width="0"/>
        <rect x="180.85" y="111.05" width="184.65" height="270.18" rx="6.21" ry="6.21" fill="#e8edf3" stroke-width="0"/>
        <rect x="209.65" y="98.65" width="127.05" height="19.79" rx="5.75" ry="5.75" fill="#6884b2" stroke-width="0"/>
        <path d="M307.59,86.83h-21.46c1.46-2.34,2.32-5.1,2.32-8.06,0-8.43-6.85-15.28-15.28-15.28s-15.28,6.85-15.28,15.28c0,2.96.86,5.71,2.32,8.06h-21.45c-2.4,0-4.35,1.95-4.35,4.35v7.47h77.52v-7.47c0-2.4-1.95-4.35-4.35-4.35ZM273.18,73.21c3.07,0,5.56,2.5,5.56,5.56s-2.5,5.56-5.56,5.56-5.56-2.5-5.56-5.56,2.5-5.56,5.56-5.56Z" fill="#000e52" stroke-width="0"/>
        <rect x="206.28" y="161.87" width="39.98" height="39.98" fill="#bbc9dc" stroke-width="0"/>
        <rect x="267.62" y="162.26" width="72.23" height="13.54" fill="#bbc9dc" stroke-width="0"/>
        <rect x="267.62" y="188.46" width="72.23" height="13.54" fill="#bbc9dc" stroke-width="0"/>
        <rect x="267.62" y="216.23" width="72.23" height="13.54" fill="#bbc9dc" stroke-width="0"/>
        <rect x="267.62" y="242.43" width="72.23" height="13.54" fill="#bbc9dc" stroke-width="0"/>
        <rect x="267.62" y="273.32" width="72.23" height="13.54" fill="#bbc9dc" stroke-width="0"/>
        <rect x="267.62" y="299.52" width="72.23" height="13.54" fill="#bbc9dc" stroke-width="0"/>
        <path d="M233.63,195.23c-1.21,0-2.37-.48-3.23-1.35l-14.09-14.26c-1.76-1.78-1.74-4.65.04-6.41,1.78-1.76,4.65-1.74,6.41.04l10.61,10.74,21.51-25.23c1.62-1.9,4.49-2.13,6.39-.51,1.91,1.62,2.13,4.49.51,6.39l-24.71,28.99c-.82.97-2.01,1.54-3.28,1.59-.06,0-.11,0-.17,0Z" fill="#225494" stroke-width="0"/>
        <rect x="206.28" y="216.11" width="39.98" height="39.98" fill="#bbc9dc" stroke-width="0"/>
        <rect x="206.28" y="273.2" width="39.98" height="39.98" fill="#bbc9dc" stroke-width="0"/>
        <path d="M233.63,306.56c-1.21,0-2.37-.48-3.23-1.35l-14.09-14.26c-1.76-1.78-1.74-4.65.04-6.41,1.78-1.76,4.65-1.74,6.41.04l10.61,10.74,21.51-25.23c1.62-1.9,4.49-2.13,6.39-.51,1.91,1.62,2.13,4.49.51,6.39l-24.71,28.99c-.82.97-2.01,1.54-3.28,1.59-.06,0-.11,0-.17,0Z" fill="#225494" stroke-width="0"/>
      </g>
      <path d="M337.38,335.98h-170.36c-4.81,0-9.12,2.16-10.8,5.42l-41.99,81.19h194.98l38.97-75.35c2.82-5.45-2.76-11.25-10.8-11.25Z" fill="#8da5c4" stroke-width="0"/>
    </g>
    <g>
      <rect x="82.98" y="74.52" width="106.64" height="106.64" rx="27.7" ry="27.7" fill="#000e52" stroke-width="0"/>
      <g>
        <path d="M168.15,94.42c2.74,2.49,4.2,5.88,4.36,9.32.16,3.45-.98,6.95-3.48,9.69l-42.8,46.98c-4.98,5.47-13.54,5.87-19.01.88-2.74-2.49-4.2-5.88-4.36-9.32-.16-3.44.99-6.95,3.48-9.68l42.8-46.98c4.98-5.47,13.54-5.87,19.01-.89Z" fill="#b3c1d9" stroke-width="0"/>
        <path d="M146.08,118.65c2.74,2.49,4.2,5.88,4.36,9.32.16,3.45-.98,6.95-3.48,9.69l-20.72,22.75c-4.98,5.47-13.54,5.87-19.01.88-2.74-2.49-4.2-5.88-4.36-9.32-.16-3.44.99-6.95,3.48-9.68l20.72-22.75c4.98-5.47,13.54-5.87,19-.89Z" fill="#4e76a9" stroke-width="0"/>
        <path d="M111.38,144.02l.32.29c.77.7,1.99.65,2.69-.13l26-28.54c-1.81-.47-3.67-.55-5.51-.26l-23.63,25.94c-.71.78-.65,1.99.13,2.69Z" fill="#d1dbe7" stroke-width="0"/>
        <path d="M152.08,96.52l-17.19,18.87c1.83-.29,3.7-.21,5.51.26l14.82-16.27c.71-.78.65-1.99-.12-2.69l-.32-.29c-.78-.71-1.99-.65-2.69.13Z" fill="#ecf0f5" stroke-width="0"/>
      </g>
    </g>
  </g>
</svg>