<?xml version="1.0" encoding="UTF-8"?>
<svg xmlns="http://www.w3.org/2000/svg" viewBox="0 0 500 500">
  <g id="Hintergrund">
    <rect x="-.01" width="500" height="500" fill="#d1dbe7" stroke-width="0"/>
  </g>
  <g id="Design">
    <g>
      <path d="M326.18,99.4h-130.08c-32.69,0-59.2,26.5-59.2,59.2h131.57c.63-32.8,57.71-59.2,57.71-59.2Z" fill="#a4b7d0" stroke-width="0"/>
      <path d="M275.25,139.04c-4.79-1.69-10.6-2.93-18.9-2.93-13.65,0-20.58,3.33-27.29,6.55-6.58,3.16-13.38,6.42-26.75,6.42s-20.18-3.27-26.77-6.43c-6.71-3.22-13.65-6.55-27.31-6.55-2.59,0-4.87.15-7.02.37-.17.43-.32.88-.48,1.31,2.27-.25,4.72-.42,7.5-.42,13.37,0,20.18,3.27,26.76,6.42,6.71,3.22,13.65,6.55,27.31,6.55s20.58-3.33,27.29-6.55c6.58-3.16,13.38-6.42,26.75-6.42,7.95,0,13.55,1.17,18.2,2.77.23-.37.47-.73.71-1.1Z" fill="#8da5c4" stroke-width="0"/>
      <path d="M328.47,104.37h52.28v-4.97h-53.86c-32.69,0-59.2,26.5-59.2,59.2h5.47c.61-30.05,25.11-54.23,55.3-54.23Z" fill="#225494" stroke-width="0"/>
      <path d="M273.17,158.59h107.58v-54.23h-52.29c-30.19,0-54.69,24.18-55.3,54.23Z" fill="#6884b2" stroke-width="0"/>
      <g>
        <circle cx="189.12" cy="122.01" r="1.97" fill="#fff" stroke-width="0"/>
        <path d="M199.58,108.22c-4.61,2.84-8.78,6.31-12.44,10.25h5.12c3.66-3.95,7.83-7.41,12.44-10.25h-5.12Z" fill="#fff" stroke-width="0"/>
      </g>
      <g>
        <circle cx="198.17" cy="122.01" r="1.97" fill="#fff" stroke-width="0"/>
        <path d="M208.64,108.22c-4.61,2.84-8.78,6.31-12.44,10.25h5.12c3.66-3.95,7.83-7.41,12.44-10.25h-5.12Z" fill="#fff" stroke-width="0"/>
      </g>
      <g>
        <circle cx="207.22" cy="122.01" r="1.97" fill="#fff" stroke-width="0"/>
        <path d="M217.69,108.22c-4.61,2.84-8.78,6.31-12.44,10.25h5.12c3.66-3.95,7.83-7.41,12.44-10.25h-5.12Z" fill="#fff" stroke-width="0"/>
      </g>
      <g>
        <circle cx="216.28" cy="122.01" r="1.97" fill="#fff" stroke-width="0"/>
        <path d="M226.75,108.22c-4.61,2.84-8.78,6.31-12.44,10.25h5.12c3.66-3.95,7.83-7.41,12.44-10.25h-5.12Z" fill="#fff" stroke-width="0"/>
      </g>
      <g>
        <circle cx="225.33" cy="122.01" r="1.97" fill="#fff" stroke-width="0"/>
        <path d="M235.8,108.22c-4.61,2.84-8.78,6.31-12.44,10.25h5.12c3.66-3.95,7.83-7.41,12.44-10.25h-5.12Z" fill="#fff" stroke-width="0"/>
      </g>
      <g>
        <circle cx="234.38" cy="122.01" r="1.97" fill="#fff" stroke-width="0"/>
        <path d="M244.85,108.22c-4.61,2.84-8.78,6.31-12.44,10.25h5.12c3.66-3.95,7.83-7.41,12.44-10.25h-5.12Z" fill="#fff" stroke-width="0"/>
      </g>
      <g>
        <circle cx="243.44" cy="122.01" r="1.97" fill="#fff" stroke-width="0"/>
        <path d="M253.91,108.22c-4.61,2.84-8.78,6.31-12.44,10.25h5.12c3.66-3.95,7.83-7.41,12.44-10.25h-5.12Z" fill="#fff" stroke-width="0"/>
      </g>
    </g>
    <g>
      <circle cx="130" cy="97.21" r="42" fill="#000e52" stroke-width="0"/>
      <g>
        <g>
          <line x1="112.19" y1="79.4" x2="147.8" y2="115.01" fill="#ff1b7c" stroke-width="0"/>
          <path d="M147.8,119.45c-1.13,0-2.27-.43-3.13-1.3l-35.61-35.61c-1.73-1.73-1.73-4.54,0-6.27,1.73-1.73,4.54-1.73,6.27,0l35.61,35.61c1.73,1.73,1.73,4.54,0,6.27-.87.87-2,1.3-3.13,1.3Z" fill="#ff1b7c" stroke-width="0"/>
        </g>
        <g>
          <line x1="147.8" y1="79.4" x2="112.19" y2="115.01" fill="#ff1b7c" stroke-width="0"/>
          <path d="M112.19,119.45c-1.13,0-2.27-.43-3.13-1.3-1.73-1.73-1.73-4.54,0-6.27l35.61-35.61c1.73-1.73,4.54-1.73,6.27,0,1.73,1.73,1.73,4.54,0,6.27l-35.61,35.61c-.87.87-2,1.3-3.13,1.3Z" fill="#ff1b7c" stroke-width="0"/>
        </g>
      </g>
    </g>
    <path d="M335.26,228.71c-.37,0-.73.01-1.09.03-3.72-14.07-16.54-24.45-31.78-24.45-16.97,0-30.94,12.86-32.69,29.37-.98-.16-1.98-.25-3.01-.25-10.12,0-18.32,8.2-18.32,18.32s8.2,18.32,18.32,18.32h68.57c11.41,0,20.66-9.25,20.66-20.66s-9.25-20.66-20.66-20.66Z" fill="#fff" stroke-width="0"/>
    <path d="M307.57,307.55c-.92,0-1.83.03-2.74.07-9.32-35.25-41.41-61.23-79.59-61.23-42.5,0-77.47,32.21-81.86,73.54-2.45-.4-4.96-.63-7.53-.63-25.33,0-45.87,20.54-45.87,45.87s20.54,45.87,45.87,45.87h171.71c28.58,0,51.75-23.17,51.75-51.75s-23.17-51.75-51.75-51.75Z" fill="#fff" stroke-width="0"/>
    <line x1="224.65" y1="177.26" x2="224.65" y2="226.75" fill="none" stroke="#000e52" stroke-linecap="round" stroke-linejoin="round" stroke-width="7.5"/>
    <g>
      <polyline points="420.97 348.9 420.97 308.45 323.88 308.45 323.88 446 420.97 446 420.97 373.18" fill="none" stroke="#000e52" stroke-linecap="round" stroke-linejoin="round" stroke-width="7"/>
      <g>
        <line x1="420.97" y1="373.18" x2="380.52" y2="373.18" fill="none" stroke="#000e52" stroke-linecap="round" stroke-linejoin="round" stroke-width="7"/>
        <polyline points="396.7 389.36 380.52 373.18 396.7 356.99" fill="none" stroke="#000e52" stroke-linecap="round" stroke-linejoin="round" stroke-width="7"/>
      </g>
    </g>
  </g>
</svg>