<?xml version="1.0" encoding="UTF-8"?>
<svg xmlns="http://www.w3.org/2000/svg" viewBox="0 0 500 500">
  <g id="Hintergrund">
    <rect width="500" height="500" fill="#d1dbe7" stroke-width="0"/>
  </g>
  <g id="Design">
    <g>
      <path d="M404.47,307.59h-216.31c-22.97,0-41.6-18.62-41.6-41.6v-103.5" fill="none" stroke="#000e52" stroke-linecap="round" stroke-linejoin="round" stroke-width="7.5"/>
      <g>
        <g>
          <rect x="263.19" y="142.36" width="172.93" height="305.41" transform="translate(699.31 590.13) rotate(180)" fill="#4e76a9" stroke-width="0"/>
          <rect x="275.52" y="142.36" width="148.27" height="305.41" transform="translate(699.31 590.13) rotate(180)" fill="#4e76a9" stroke-width="0"/>
          <g>
            <rect x="275.52" y="152.55" width="148.27" height="48.83" transform="translate(699.31 353.94) rotate(180)" fill="#4e76a9" stroke-width="0"/>
            <rect x="280.46" y="156.61" width="20" height="40.71" transform="translate(580.92 353.94) rotate(180)" fill="#000e52" stroke-width="0"/>
            <rect x="333.49" y="156.61" width="20" height="40.71" transform="translate(686.98 353.94) rotate(180)" fill="#000e52" stroke-width="0"/>
            <rect x="307.06" y="156.61" width="20" height="40.71" transform="translate(634.13 353.94) rotate(180)" fill="#000e52" stroke-width="0"/>
            <rect x="369.42" y="156.61" width="43.86" height="4.88" transform="translate(782.71 318.1) rotate(180)" fill="#000e52" stroke-width="0"/>
            <rect x="369.42" y="183.09" width="43.86" height="14.23" transform="translate(782.71 380.42) rotate(180)" fill="#000e52" stroke-width="0"/>
            <g>
              <circle cx="380.45" cy="172.66" r="6.51" fill="#4affff" stroke-width="0"/>
              <circle cx="402.58" cy="172.66" r="6.51" fill="#00ff64" stroke-width="0"/>
            </g>
          </g>
          <g>
            <rect x="275.52" y="211.58" width="148.27" height="48.83" transform="translate(699.31 471.99) rotate(180)" fill="#4e76a9" stroke-width="0"/>
            <rect x="280.46" y="215.64" width="20" height="40.71" transform="translate(580.92 471.99) rotate(180)" fill="#000e52" stroke-width="0"/>
            <rect x="333.49" y="215.64" width="20" height="40.71" transform="translate(686.98 471.99) rotate(180)" fill="#000e52" stroke-width="0"/>
            <rect x="307.06" y="215.64" width="20" height="40.71" transform="translate(634.13 471.99) rotate(180)" fill="#000e52" stroke-width="0"/>
            <rect x="369.42" y="215.64" width="43.86" height="4.88" transform="translate(782.71 436.15) rotate(180)" fill="#000e52" stroke-width="0"/>
            <rect x="369.42" y="242.12" width="43.86" height="14.23" transform="translate(782.71 498.47) rotate(180)" fill="#000e52" stroke-width="0"/>
            <g>
              <circle cx="380.45" cy="231.69" r="6.51" fill="#4affff" stroke-width="0"/>
              <circle cx="402.58" cy="231.69" r="6.51" fill="#4affff" stroke-width="0"/>
            </g>
          </g>
          <g>
            <rect x="275.52" y="270.72" width="148.27" height="48.83" transform="translate(699.31 590.27) rotate(180)" fill="#4e76a9" stroke-width="0"/>
            <rect x="280.46" y="274.78" width="20" height="40.71" transform="translate(580.92 590.27) rotate(180)" fill="#000e52" stroke-width="0"/>
            <rect x="333.49" y="274.78" width="20" height="40.71" transform="translate(686.98 590.27) rotate(180)" fill="#000e52" stroke-width="0"/>
            <rect x="307.06" y="274.78" width="20" height="40.71" transform="translate(634.13 590.27) rotate(180)" fill="#000e52" stroke-width="0"/>
            <rect x="369.42" y="274.78" width="43.86" height="4.88" transform="translate(782.71 554.43) rotate(180)" fill="#000e52" stroke-width="0"/>
            <rect x="369.42" y="301.26" width="43.86" height="14.23" transform="translate(782.71 616.75) rotate(180)" fill="#000e52" stroke-width="0"/>
            <g>
              <circle cx="380.45" cy="290.83" r="6.51" fill="#00ff64" stroke-width="0"/>
              <circle cx="402.58" cy="290.83" r="6.51" fill="#4affff" stroke-width="0"/>
            </g>
          </g>
          <g>
            <rect x="275.52" y="329.74" width="148.27" height="48.83" transform="translate(699.31 708.32) rotate(180)" fill="#4e76a9" stroke-width="0"/>
            <rect x="280.46" y="333.8" width="20" height="40.71" transform="translate(580.92 708.32) rotate(180)" fill="#000e52" stroke-width="0"/>
            <rect x="333.49" y="333.8" width="20" height="40.71" transform="translate(686.98 708.32) rotate(180)" fill="#000e52" stroke-width="0"/>
            <rect x="307.06" y="333.8" width="20" height="40.71" transform="translate(634.13 708.32) rotate(180)" fill="#000e52" stroke-width="0"/>
            <rect x="369.42" y="333.8" width="43.86" height="4.88" transform="translate(782.71 672.48) rotate(180)" fill="#000e52" stroke-width="0"/>
            <rect x="369.42" y="360.28" width="43.86" height="14.23" transform="translate(782.71 734.8) rotate(180)" fill="#000e52" stroke-width="0"/>
            <g>
              <circle cx="380.45" cy="349.85" r="6.51" fill="#4affff" stroke-width="0"/>
              <circle cx="402.58" cy="349.85" r="6.51" fill="#00ff64" stroke-width="0"/>
            </g>
          </g>
          <g>
            <rect x="275.52" y="388.77" width="148.27" height="48.83" transform="translate(699.31 826.36) rotate(180)" fill="#4e76a9" stroke-width="0"/>
            <rect x="280.46" y="392.83" width="20" height="40.71" transform="translate(580.92 826.36) rotate(180)" fill="#000e52" stroke-width="0"/>
            <rect x="333.49" y="392.83" width="20" height="40.71" transform="translate(686.98 826.36) rotate(180)" fill="#000e52" stroke-width="0"/>
            <rect x="307.06" y="392.83" width="20" height="40.71" transform="translate(634.13 826.36) rotate(180)" fill="#000e52" stroke-width="0"/>
            <rect x="369.42" y="392.83" width="43.86" height="4.88" transform="translate(782.71 790.53) rotate(180)" fill="#000e52" stroke-width="0"/>
            <rect x="369.42" y="419.31" width="43.86" height="14.23" transform="translate(782.71 852.85) rotate(180)" fill="#000e52" stroke-width="0"/>
            <g>
              <circle cx="380.45" cy="408.88" r="6.51" fill="#00ff64" stroke-width="0"/>
              <circle cx="402.58" cy="408.88" r="6.51" fill="#00ff64" stroke-width="0"/>
            </g>
          </g>
        </g>
        <rect x="269.63" y="445.02" width="32.94" height="10.62" fill="#4e76a9" stroke-width="0"/>
        <rect x="396.27" y="445.02" width="32.94" height="10.62" fill="#4e76a9" stroke-width="0"/>
      </g>
      <g>
        <rect x="63.88" y="76.15" width="166.3" height="149.93" rx="10.07" ry="10.07" fill="#a4b7d0" stroke-width="0"/>
        <g>
          <rect x="79.76" y="170.69" width="134.55" height="33.64" rx="4.61" ry="4.61" fill="#fff" stroke-width="0"/>
          <g>
            <path d="M147.03,102.41c17.81,0,33.6,8.64,43.42,21.95,5.29-8.12,8.37-17.81,8.37-28.22,0-28.61-23.19-51.79-51.79-51.79s-51.79,23.19-51.79,51.79c0,10.41,3.08,20.1,8.37,28.22,9.83-13.31,25.61-21.95,43.42-21.95ZM147.03,55.96c10.56,0,19.11,8.56,19.11,19.11s-8.56,19.11-19.11,19.11-19.11-8.56-19.11-19.11,8.56-19.11,19.11-19.11Z" fill="#4e76a9" stroke-width="0"/>
            <path d="M147.03,94.19c10.56,0,19.11-8.56,19.11-19.11s-8.56-19.11-19.11-19.11-19.11,8.56-19.11,19.11,8.56,19.11,19.11,19.11Z" fill="#fff" stroke-width="0"/>
            <path d="M147.03,102.41c-17.82,0-33.6,8.64-43.42,21.95,9.24,14.19,25.23,23.58,43.42,23.58s34.19-9.39,43.42-23.58c-9.83-13.31-25.61-21.95-43.42-21.95Z" fill="#fff" stroke-width="0"/>
          </g>
        </g>
      </g>
      <polyline points="189.65 370.5 126.23 370.5 126.23 401.28 70.97 351.2 126.23 301.12 126.23 331.33 174.99 331.33" fill="none" stroke="#000e52" stroke-linecap="round" stroke-linejoin="round" stroke-width="7.5"/>
      <polyline points="189.65 370.56 189.65 341.68 244.91 388.67 189.65 435.66 189.65 407.31 139.11 407.31" fill="none" stroke="#000e52" stroke-linecap="round" stroke-linejoin="round" stroke-width="7.5"/>
    </g>
  </g>
</svg>