<?xml version="1.0" encoding="UTF-8"?>
<svg xmlns="http://www.w3.org/2000/svg" xmlns:xlink="http://www.w3.org/1999/xlink" viewBox="0 0 244 120">
  <defs>
    <clipPath id="clippath">
      <circle cx="120.68" cy="59.15" r="49.93" transform="translate(58.38 178.23) rotate(-88.49)" fill="#f5b5a0" stroke-width="0"/>
    </clipPath>
  </defs>
  <g id="Hintergrund">
    <rect x="0" width="244" height="120" fill="#f4f6f9" stroke-width="0"/>
  </g>
  <g id="Design">
    <g>
      <g>
        <circle cx="120.68" cy="59.15" r="49.93" transform="translate(58.38 178.23) rotate(-88.49)" fill="#f5b5a0"/>
        <g clip-path="url(#clippath)">
          <g>
            <path d="m113.17,86.89c2.63,1.35,6.55,3.13,8.85,3.12,3.66-.01,6.92-1.35,9.15-2.58l.44-5.76s.01,0,.01,0c-.17-.72-.27-1.47-.27-2.24v-20.8c0-5.43-4.4-9.83-9.83-9.83s-9.83,4.4-9.83,9.83v20.8c0,.36-.02.71-.06,1.06h0s1.52,6.39,1.52,6.39Z" fill="#ffd9ab" stroke-width="0"/>
            <path d="m146.15,86.44c.08.02.15.04.23.06l-1.46,6.32c-.66,2.87-3.5,4.69-6.38,4.09l-1.24-.26,3.42,3.59c1.02,1.08,1.54,2.51,1.48,3.97,6.35-3.04,11.95-7.39,16.47-12.68-2.38-2.2-5.98-3.89-10.49-4.77-.45-.09-1.16-.2-2.03-.33Z" fill="#fdf3ef" stroke-width="0"/>
            <path d="m105.63,98.19l3.38-3.98-4,.45c-1.92.22-3.74-.9-4.42-2.71l-2.44-5.91c-1.47.24-3.09.5-4.16.71-4.76.92-8.6,2.72-11.02,5.1,6.09,7.02,14.11,12.32,23.23,15.08l-1.44-3.84c-.63-1.67-.3-3.55.86-4.91Z" fill="#fdf3ef" stroke-width="0"/>
            <path d="m131.18,87.44c-2.23,1.23-5.49,2.57-9.15,2.58-2.3,0-6.22-1.78-8.85-3.12l5.26,22.13c.74.03,1.49.06,2.24.06,3.04,0,6.02-.29,8.91-.81l1.59-20.83Z" fill="#ee8360" stroke-width="0"/>
            <path d="m111.65,80.5h0c-.07.04-7.06,4.08-13.49,5.55h0l2.44,5.91c.68,1.81,2.5,2.93,4.42,2.71l4-.45-3.38,3.98c-1.16,1.36-1.49,3.24-.86,4.91l1.44,3.84c3.9,1.18,7.99,1.89,12.23,2.08l-5.26-22.13-1.52-6.39Z" fill="#fce6df" stroke-width="0"/>
            <path d="m140.72,100.24l-3.42-3.59,1.24.26c2.89.6,5.72-1.22,6.38-4.09l1.46-6.32c-.08-.02-.15-.04-.23-.06-7.08-1.76-14.41-4.7-14.53-4.75,0,0-.01,0-.01,0l-.44,5.76-1.59,20.83c4.43-.8,8.67-2.17,12.61-4.06.06-1.46-.46-2.9-1.48-3.97Z" fill="#fce6df" stroke-width="0"/>
          </g>
          <path d="m122.55,62.03s-10.6,16.42-2.46,16.44c8.14.02,11.28-2.12,11.28-2.12v-14.75l-8.81.42Z" fill="#f2c29e" stroke-width="0"/>
          <path d="m99.65,64.06s3.6-1.12,5.14-5.95c1.54-4.83.09.41.09.41l.62,4.06s-.72,2.26-5.85,1.48Z" fill="#ba3d12" stroke-width="0"/>
          <path d="m101.94,69.09s2.77-2.56,2.1-7.58c-.68-5.02.25.33.25.33l2.31,3.4s.31,2.35-4.65,3.84Z" fill="#ba3d12" stroke-width="0"/>
          <path d="m130.53,32.34c1.25-3.16,2.84-7.17,1.06-10.33-3.27-5.8-16.52-6.35-20.45-.39-2.39,3.62-.63,8.58.29,11.2.47,1.33,3.63,10.25,9.16,10.38,5.59.13,9.14-8.83,9.94-10.86Z" fill="#ba3d12" stroke-width="0"/>
          <path d="m102.11,50.48s-8.8-24.77,11.3-24.77h7.96v25.61l-19.26-.84Z" fill="#ba3d12" stroke-width="0"/>
          <path d="m140.11,50.48s8.8-24.77-11.3-24.77h-7.96v25.61l19.26-.84Z" fill="#ba3d12" stroke-width="0"/>
          <path d="m108.3,61.49h-3.66c-1.74,0-3.23-1.25-3.53-2.96l-.98-5.6c-.43-2.47,1.74-4.61,4.2-4.14l3.97.76v11.94Z" fill="#ffd9ab" stroke-width="0"/>
          <path d="m133.1,61.49h3.66c1.74,0,3.23-1.25,3.53-2.96l.98-5.6c.43-2.47-1.74-4.61-4.2-4.14l-3.97.76v11.94Z" fill="#ffd9ab" stroke-width="0"/>
          <path d="m121.24,78.66c9.29,0,15.9-12.33,16.6-17.86l.31-2.42.77-10.03c.12-1.54.09-3.09-.18-4.61-1.53-8.41-8.89-14.79-17.75-14.79s-16.22,6.38-17.75,14.79c-.28,1.52-.3,3.07-.18,4.61l.73,9.39.33,2.7c.71,5.73,7.83,18.21,17.12,18.21Z" fill="#ffd9ab" stroke-width="0"/>
          <path d="m103.6,55.32s3.08-7.17,4.77-15.48c1.69-8.31,2.81-11.08,2.81-11.08h20.99s1.89,7.06,2.66,10.76c.84,4.02,1.74,13.75,3.54,15.81.84-1.57,1.68-8.36,1.68-10.14v-5.78c0-4.35-3.53-10.65-7.88-10.65h-22.16c-4.35,0-7.88,6.3-7.88,10.65v5.95c0,1.2.2,2.39.59,3.52l.87,6.45Z" fill="#ba3d12" stroke-width="0"/>
          <path d="m121.63,23.38c-10.04-.08-18.15.22-14.61,18.02.07.34,6.11.53,12.68.56,1.51-.79,3.32-1.95,4.84-3.56,0,0-.25,1.75-1.34,3.56,2.32,0,4.58-.04,6.55-.08.96-1.43,2.6-4.23,3.15-7.5,0,0,.5,3.86-1.07,7.44,2.62-.09,4.38-.23,4.42-.41,4.04-17.78-4.64-17.94-14.61-18.02Z" fill="#ba3d12" stroke-width="0"/>
          <path d="m127.28,50.78c.35-1.06,1.6-.8,1.69.26.05.62.06,1.77-.59,2.12-.51.27-1-.12-1.16-.6-.12-.35-.15-1.18.05-1.78Z" stroke-width="0"/>
          <path d="m112.67,50.83c.33-.99,1.5-.75,1.59.25.05.58.06,1.66-.55,1.99-.48.25-.93-.11-1.08-.56-.11-.33-.14-1.1.05-1.67Z" stroke-width="0"/>
          <path d="m120.24,61.35c1.35-1.83.6-4.38.13-6.36-.15-.63.93-.9,1.08-.27.54,2.28,1.3,5.04-.24,7.14-.39.54-1.36.04-.96-.5Z" fill="#f2c29e" stroke-width="0"/>
          <path d="m121.19,65.44c.89,0,3.76-.27,4.18.42.62,1.03-1.9,2.52-2.77,2.69-2.45.49-6.58-.51-6.87-2.39-.14-.92,3.02-.71,5.45-.72Z" fill="#fff" stroke-width="0"/>
          <path d="m124.44,47.54c-.04-.06-.06-.12-.05-.2.07-.35,1.38-.62,1.82-.7.88-.16,1.85-.13,2.74-.06,1.15.09,2.86.24,3.74.79,1.38.87-1.41.8-2.15.77-1.32-.05-2.64-.12-3.96-.22-.47-.04-1.87,0-2.15-.38Z" fill="#ba3d12" stroke-width="0"/>
          <path d="m117.55,47.54c.04-.06.06-.12.05-.2-.07-.35-1.38-.62-1.82-.7-.88-.16-1.85-.13-2.74-.06-1.15.1-2.86.24-3.74.79-1.38.87,1.41.8,2.15.77,1.32-.05,2.64-.12,3.96-.22.47-.04,1.86,0,2.15-.38Z" fill="#ba3d12" stroke-width="0"/>
        </g>
      </g>
      <g>
        <circle cx="157.98" cy="97.8" r="15.27" fill="#000e52" stroke-width="0"/>
        <path d="m155.82,105.43c-.47,0-.92-.19-1.25-.52l-5.72-5.78c-.68-.69-.68-1.8.02-2.48.69-.68,1.8-.68,2.48.02l4.37,4.42,8.78-10.31c.63-.74,1.74-.83,2.48-.2.74.63.83,1.74.2,2.48l-10.03,11.76c-.32.37-.78.6-1.27.62-.02,0-.04,0-.06,0Z" fill="#00ff64" stroke-width="0"/>
      </g>
    </g>
  </g>
</svg>