<?xml version="1.0" encoding="UTF-8"?>
<svg xmlns="http://www.w3.org/2000/svg" viewBox="0 0 244 120">
  <g id="Hintergrund">
    <rect width="244" height="120" fill="#f4f6f9" stroke-width="0"/>
  </g>
  <g id="Design">
    <g id="SCREEN">
      <path d="m85.72,89.88V20.05s-11.98,0-11.98,0c-1.16,0-2.11.95-2.11,2.11v65.6c0,1.16.95,2.11,2.11,2.11h11.98Z" fill="#000e52" stroke-width="0"/>
      <rect x="108.2" y="82.85" width="27.42" height="27.11" fill="#225494" stroke-width="0"/>
      <rect x="108.25" y="88.2" width="4.06" height="20.53" transform="translate(220.56 196.92) rotate(-180)" fill="#000e52" stroke-width="0"/>
      <path d="m78.56,89.88h104.15c.79,0,1.42-.64,1.42-1.42V21.47c0-.79-.64-1.42-1.42-1.42h-104.15c-.79,0-1.42.64-1.42,1.42v66.98c0,.79.64,1.42,1.42,1.42" fill="#225494" stroke-width="0"/>
      <path d="m100.21,110.11h46.59s10.23,0,10.23,0c0-2.19-1.78-3.97-3.97-3.97h-48.88c-2.19,0-3.97,1.78-3.97,3.97" fill="#000e52" stroke-width="0"/>
      <g>
        <rect x="78.76" y="22.04" width="103.61" height="65.95" transform="translate(261.13 110.03) rotate(-180)" fill="#8da5c4" stroke-width="0"/>
        <rect x="80.84" y="38.63" width="18.7" height="46.88" transform="translate(180.38 124.14) rotate(-180)" fill="#d1dbe7" stroke-width="0"/>
        <rect x="78.76" y="28.84" width="103.61" height="8.08" fill="#d1dbe7" stroke-width="0"/>
        <rect x="78.76" y="21.97" width="103.61" height="6.99" fill="#8da5c4" stroke-width="0"/>
        <g>
          <rect x="101.4" y="38.64" width="27.27" height="6.11" transform="translate(230.07 83.4) rotate(-180)" fill="#fff" stroke-width="0"/>
          <g>
            <rect x="109" y="40.64" width="18.43" height=".69" transform="translate(236.42 81.98) rotate(-180)" fill="#000e52" stroke-width="0"/>
            <rect x="109" y="42.06" width="10.24" height=".69" transform="translate(228.23 84.81) rotate(-180)" fill="#000e52" stroke-width="0"/>
          </g>
          <circle cx="104.78" cy="41.7" r="2.11" fill="#8da5c4" stroke-width="0"/>
        </g>
        <g>
          <rect x="101.4" y="45.99" width="27.27" height="6.11" transform="translate(230.07 98.08) rotate(-180)" fill="#fff" stroke-width="0"/>
          <g>
            <rect x="109" y="47.99" width="18.43" height=".69" transform="translate(236.42 96.67) rotate(-180)" fill="#000e52" stroke-width="0"/>
            <rect x="109" y="49.4" width="10.24" height=".69" transform="translate(228.23 99.5) rotate(-180)" fill="#000e52" stroke-width="0"/>
          </g>
          <circle cx="104.78" cy="49.04" r="2.11" fill="#8da5c4" stroke-width="0"/>
        </g>
        <g>
          <rect x="101.4" y="53.33" width="27.27" height="6.11" transform="translate(230.07 112.77) rotate(-180)" fill="#fff" stroke-width="0"/>
          <g>
            <rect x="109" y="55.33" width="18.43" height=".69" transform="translate(236.42 111.36) rotate(-180)" fill="#000e52" stroke-width="0"/>
            <rect x="109" y="56.75" width="10.24" height=".69" transform="translate(228.23 114.19) rotate(-180)" fill="#000e52" stroke-width="0"/>
          </g>
          <circle cx="104.78" cy="56.39" r="2.11" fill="#8da5c4" stroke-width="0"/>
        </g>
        <g>
          <rect x="101.4" y="60.68" width="27.27" height="6.11" transform="translate(230.07 127.46) rotate(-180)" fill="#fff" stroke-width="0"/>
          <g>
            <rect x="109" y="62.68" width="18.43" height=".69" transform="translate(236.42 126.05) rotate(-180)" fill="#000e52" stroke-width="0"/>
            <rect x="109" y="64.09" width="10.24" height=".69" transform="translate(228.23 128.88) rotate(-180)" fill="#000e52" stroke-width="0"/>
          </g>
          <circle cx="104.78" cy="63.73" r="2.11" fill="#8da5c4" stroke-width="0"/>
        </g>
        <g>
          <rect x="131.93" y="38.63" width="48.44" height="46.64" transform="translate(312.29 123.91) rotate(-180)" fill="#fff" stroke-width="0"/>
          <g>
            <g>
              <rect x="145.16" y="44.09" width="29.58" height="1.11" transform="translate(319.89 89.3) rotate(-180)" fill="#000e52" stroke-width="0"/>
              <rect x="145.16" y="46.36" width="16.43" height="1.11" transform="translate(306.74 93.84) rotate(-180)" fill="#000e52" stroke-width="0"/>
            </g>
            <circle cx="138.4" cy="45.78" r="3.38" fill="#00ff64" stroke-width="0"/>
          </g>
          <rect x="134.18" y="59.55" width="18.7" height="22.5" transform="translate(287.07 141.61) rotate(-180)" fill="#d1dbe7" stroke-width="0"/>
          <rect x="155.79" y="59.55" width="21.59" height="2.4" transform="translate(333.17 121.51) rotate(-180)" fill="#d1dbe7" stroke-width="0"/>
          <rect x="155.79" y="63.85" width="21.59" height="2.4" transform="translate(333.17 130.1) rotate(-180)" fill="#d1dbe7" stroke-width="0"/>
          <rect x="155.79" y="68.14" width="21.59" height="2.4" transform="translate(333.17 138.68) rotate(-180)" fill="#d1dbe7" stroke-width="0"/>
          <rect x="155.79" y="72.43" width="21.59" height="2.4" transform="translate(333.17 147.27) rotate(-180)" fill="#d1dbe7" stroke-width="0"/>
          <rect x="155.79" y="76.73" width="11" height="2.4" transform="translate(322.58 155.85) rotate(-180)" fill="#d1dbe7" stroke-width="0"/>
          <rect x="134.18" y="53.79" width="43.22" height="3.44" transform="translate(311.58 111.03) rotate(-180)" fill="#d1dbe7" stroke-width="0"/>
        </g>
      </g>
    </g>
  </g>
</svg>