<?xml version="1.0" encoding="UTF-8"?>
<svg id="Hintergrund" xmlns="http://www.w3.org/2000/svg" viewBox="0 0 244 120">
  <rect x="0" width="244" height="120" fill="#f4f6f9" stroke-width="0"/>
  <g>
    <g>
      <path d="m135.7,105.05l9.51.38c.28.01.53-.16.63-.41l2.88-7.4c3.64-.7,7.19-1.99,10.51-3.87l6.99,3.75c.25.13.55.09.75-.1l6.99-6.46c.2-.19.27-.49.15-.74l-3.19-7.26c2.14-3.16,3.7-6.6,4.69-10.17l7.6-2.29c.27-.08.45-.32.46-.6l.38-9.51c.01-.28-.16-.53-.41-.63l-7.4-2.88c-.7-3.64-1.99-7.19-3.87-10.51l3.75-6.99c.13-.24.09-.55-.1-.75l-6.46-6.99c-.19-.2-.49-.27-.74-.15l-7.26,3.19c-3.16-2.14-6.6-3.7-10.17-4.69l-2.29-7.6c-.08-.27-.32-.45-.6-.46l-9.51-.38c-.28-.01-.53.16-.63.41l-2.88,7.4c-3.64.7-7.19,1.99-10.51,3.87l-6.99-3.75c-.25-.13-.55-.09-.75.1l-6.99,6.46c-.2.19-.27.49-.15.74l3.19,7.26c-2.14,3.16-3.7,6.6-4.69,10.17l-7.6,2.29c-.27.08-.45.32-.46.6l-.38,9.51c-.01.28.16.53.41.63l7.4,2.88c.7,3.64,1.99,7.19,3.87,10.51l-3.75,6.99c-.13.25-.09.55.1.75l6.46,6.99c.19.2.49.27.74.15l7.26-3.19c3.16,2.14,6.6,3.7,10.17,4.69l2.29,7.6c.08.27.32.45.6.46Zm5.88-31.6c-5.52-.28-9.76-4.98-9.47-10.5s4.98-9.76,10.5-9.47,9.76,4.98,9.47,10.5c-.28,5.52-4.98,9.76-10.5,9.47Z" fill="#000e52" stroke-width="0"/>
      <path d="m135.85,102.15l9.51.38c.28.01.53-.16.63-.41l2.88-7.4c3.64-.7,7.19-1.99,10.51-3.87l6.99,3.75c.25.13.55.09.75-.1l6.99-6.46c.2-.19.27-.49.15-.74l-3.19-7.26c2.14-3.16,3.7-6.6,4.69-10.17l7.6-2.29c.27-.08.45-.32.46-.6l.38-9.51c.01-.28-.16-.53-.41-.63l-7.4-2.88c-.7-3.64-1.99-7.19-3.87-10.51l3.75-6.99c.13-.24.09-.55-.1-.75l-6.46-6.99c-.19-.2-.49-.27-.74-.15l-7.26,3.19c-3.16-2.14-6.6-3.7-10.17-4.69l-2.29-7.6c-.08-.27-.32-.45-.6-.46l-9.51-.38c-.28-.01-.53.16-.63.41l-2.88,7.4c-3.64.7-7.19,1.99-10.51,3.87l-6.99-3.75c-.25-.13-.55-.09-.75.1l-6.99,6.46c-.2.19-.27.49-.15.74l3.19,7.26c-2.14,3.16-3.7,6.6-4.69,10.17l-7.6,2.29c-.27.08-.45.32-.46.6l-.38,9.51c-.01.28.16.53.41.63l7.4,2.88c.7,3.64,1.99,7.19,3.87,10.51l-3.75,6.99c-.13.25-.09.55.1.75l6.46,6.99c.19.2.49.27.74.15l7.26-3.19c3.16,2.14,6.6,3.7,10.17,4.69l2.29,7.6c.08.27.32.45.6.46Zm5.88-31.6c-5.52-.28-9.76-4.98-9.47-10.5.28-5.52,4.98-9.76,10.5-9.47s9.76,4.98,9.47,10.5c-.28,5.52-4.98,9.76-10.5,9.47Z" fill="#f5b5a0" stroke-width="0"/>
      <path d="m141.02,84.3c-13.09-.67-23.19-11.87-22.52-24.96.67-13.09,11.87-23.19,24.96-22.52,13.09.67,23.19,11.87,22.52,24.96-.67,13.09-11.87,23.19-24.96,22.52Zm.13-2.52c11.7.6,21.71-8.43,22.31-20.13.6-11.7-8.43-21.71-20.13-22.31-11.7-.6-21.71,8.43-22.31,20.13-.6,11.7,8.43,21.71,20.13,22.31Z" fill="#f19c80" stroke-width="0"/>
    </g>
    <g>
      <path d="m72.92,108.21l4.72,1.52c.14.04.29,0,.38-.12l2.48-3.31c1.92.16,3.89.01,5.82-.47l2.98,2.86c.1.1.26.12.39.06l4.41-2.26c.13-.07.2-.21.18-.35l-.58-4.09c1.52-1.29,2.78-2.79,3.78-4.45l4.13-.08c.14,0,.27-.1.32-.24l1.52-4.72c.04-.14,0-.29-.12-.38l-3.31-2.48c.16-1.92.01-3.89-.47-5.82l2.86-2.98c.1-.1.12-.26.06-.39l-2.26-4.41c-.07-.13-.21-.2-.35-.18l-4.09.58c-1.29-1.52-2.79-2.78-4.45-3.78l-.08-4.13c0-.14-.1-.27-.24-.32l-4.72-1.52c-.14-.04-.29,0-.38.12l-2.48,3.31c-1.92-.16-3.89-.01-5.82.47l-2.98-2.86c-.1-.1-.26-.12-.39-.06l-4.41,2.26c-.13.07-.2.21-.18.35l.58,4.09c-1.52,1.29-2.78,2.79-3.78,4.45l-4.13.08c-.14,0-.27.1-.32.24l-1.52,4.72c-.04.14,0,.29.12.38l3.31,2.48c-.16,1.92-.01,3.89.47,5.82l-2.86,2.98c-.1.1-.12.26-.06.39l2.26,4.41c.07.13.21.2.35.18l4.09-.58c1.29,1.52,2.79,2.78,4.45,3.78l.08,4.13c0,.14.1.27.24.32Zm7.38-15.03c-2.73-.92-4.2-3.87-3.28-6.6.92-2.73,3.87-4.2,6.6-3.28,2.73.92,4.2,3.87,3.28,6.6-.92,2.73-3.87,4.2-6.6,3.28Z" fill="#f19c80" stroke-width="0"/>
      <path d="m73.4,106.77l4.72,1.52c.14.04.29,0,.38-.12l2.48-3.31c1.92.16,3.89.01,5.82-.47l2.98,2.86c.1.1.26.12.39.06l4.41-2.26c.13-.07.2-.21.18-.35l-.58-4.09c1.52-1.29,2.78-2.79,3.78-4.45l4.13-.08c.14,0,.27-.1.32-.24l1.52-4.72c.04-.14,0-.29-.12-.38l-3.31-2.48c.16-1.92.01-3.89-.47-5.82l2.86-2.98c.1-.1.12-.26.06-.39l-2.26-4.41c-.07-.13-.21-.2-.35-.18l-4.09.58c-1.29-1.52-2.79-2.78-4.45-3.78l-.08-4.13c0-.14-.1-.27-.24-.32l-4.72-1.52c-.14-.04-.29,0-.38.12l-2.48,3.31c-1.92-.16-3.89-.01-5.82.47l-2.98-2.86c-.1-.1-.26-.12-.39-.06l-4.41,2.26c-.13.07-.2.21-.18.35l.58,4.09c-1.52,1.29-2.78,2.79-3.78,4.45l-4.13.08c-.14,0-.27.1-.32.24l-1.52,4.72c-.04.14,0,.29.12.38l3.31,2.48c-.16,1.92-.01,3.89.47,5.82l-2.86,2.98c-.1.1-.12.26-.06.39l2.26,4.41c.07.13.21.2.35.18l4.09-.58c1.29,1.52,2.79,2.78,4.45,3.78l.08,4.13c0,.14.1.27.24.32Zm7.38-15.03c-2.73-.92-4.2-3.87-3.28-6.6.92-2.73,3.87-4.2,6.6-3.28,2.73.92,4.2,3.87,3.28,6.6-.92,2.73-3.87,4.2-6.6,3.28Z" fill="#f8cdbf" stroke-width="0"/>
      <path d="m78.5,98.54c-6.47-2.17-9.97-9.21-7.8-15.68,2.17-6.47,9.21-9.97,15.68-7.8,6.47,2.17,9.97,9.21,7.8,15.68-2.17,6.47-9.21,9.97-15.68,7.8Zm.42-1.25c5.79,1.94,12.07-1.19,14.01-6.97,1.94-5.79-1.19-12.07-6.97-14.01-5.79-1.94-12.07,1.19-14.01,6.97-1.94,5.79,1.19,12.07,6.97,14.01Z" fill="#fce6df" stroke-width="0"/>
    </g>
  </g>
</svg>