<?xml version="1.0" encoding="UTF-8"?>
<svg xmlns="http://www.w3.org/2000/svg" viewBox="0 0 244 120">
  <g id="Hintergrund">
    <rect width="244" height="120" fill="#f4f6f9" stroke-width="0"/>
  </g>
  <g id="Design">
    <g>
      <g>
        <polygon points="121.97 4.38 119.62 9.15 114.37 9.92 118.17 13.63 117.27 18.87 121.97 16.4 126.67 18.87 125.78 13.63 129.58 9.92 124.32 9.15 121.97 4.38" fill="#f5b5a0" stroke-width="0"/>
        <polygon points="124.32 105.9 121.97 101.13 119.62 105.9 114.37 106.66 118.17 110.38 117.27 115.62 121.97 113.14 126.67 115.62 125.78 110.38 129.58 106.66 124.32 105.9" fill="#f5b5a0" stroke-width="0"/>
        <polygon points="73.92 64.83 78.62 67.3 77.73 62.06 81.53 58.35 76.27 57.58 73.92 52.81 71.57 57.58 66.32 58.35 70.12 62.06 69.22 67.3 73.92 64.83" fill="#f5b5a0" stroke-width="0"/>
        <polygon points="80.66 28.43 78.31 33.2 73.06 33.97 76.86 37.68 75.96 42.92 80.66 40.45 85.36 42.92 84.47 37.68 88.27 33.97 83.01 33.2 80.66 28.43" fill="#f5b5a0" stroke-width="0"/>
        <polygon points="83.01 81.73 80.66 76.96 78.31 81.73 73.06 82.49 76.86 86.2 75.96 91.45 80.66 88.97 85.36 91.45 84.47 86.2 88.27 82.49 83.01 81.73" fill="#f5b5a0" stroke-width="0"/>
        <polygon points="98.69 10.95 96.34 15.72 91.08 16.49 94.89 20.2 93.99 25.44 98.69 22.97 103.39 25.44 102.49 20.2 106.3 16.49 101.04 15.72 98.69 10.95" fill="#f5b5a0" stroke-width="0"/>
        <polygon points="101.04 99.09 98.69 94.32 96.34 99.09 91.08 99.85 94.89 103.57 93.99 108.81 98.69 106.33 103.39 108.81 102.49 103.57 106.3 99.85 101.04 99.09" fill="#f5b5a0" stroke-width="0"/>
        <polygon points="177.68 58.35 172.43 57.58 170.08 52.81 167.73 57.58 162.47 58.35 166.27 62.06 165.37 67.3 170.08 64.83 174.78 67.3 173.88 62.06 177.68 58.35" fill="#f5b5a0" stroke-width="0"/>
        <polygon points="158.64 42.92 163.34 40.45 168.04 42.92 167.14 37.68 170.94 33.97 165.69 33.2 163.34 28.43 160.99 33.2 155.73 33.97 159.53 37.68 158.64 42.92" fill="#f5b5a0" stroke-width="0"/>
        <polygon points="165.69 81.73 163.34 76.96 160.99 81.73 155.73 82.49 159.53 86.2 158.64 91.45 163.34 88.97 168.04 91.45 167.14 86.2 170.94 82.49 165.69 81.73" fill="#f5b5a0" stroke-width="0"/>
        <polygon points="145.31 10.95 142.96 15.72 137.7 16.49 141.51 20.2 140.61 25.44 145.31 22.97 150.01 25.44 149.11 20.2 152.92 16.49 147.66 15.72 145.31 10.95" fill="#f5b5a0" stroke-width="0"/>
        <polygon points="147.66 99.09 145.31 94.32 142.96 99.09 137.7 99.85 141.51 103.57 140.61 108.81 145.31 106.33 150.01 108.81 149.11 103.57 152.92 99.85 147.66 99.09" fill="#f5b5a0" stroke-width="0"/>
      </g>
      <g>
        <g>
          <path d="m102.05,57.8c-.68,0-1.23-.55-1.23-1.23v-5.53c0-2.67.7-5.31,2.02-7.62,1.28-2.24,3.12-4.14,5.32-5.49.58-.36,1.34-.17,1.69.41.36.58.17,1.34-.41,1.69-3.87,2.37-6.17,6.49-6.17,11v5.53c0,.68-.55,1.23-1.23,1.23Z" fill="#000e52" stroke-width="0"/>
          <path d="m116.18,77.86c-8.47,0-15.36-6.89-15.36-15.36,0-.68.55-1.23,1.23-1.23s1.23.55,1.23,1.23c0,7.11,5.79,12.9,12.9,12.9,2.26,0,4.49-.6,6.45-1.73,1.9-1.1,3.49-2.67,4.62-4.55.35-.58,1.11-.77,1.69-.42.58.35.77,1.11.42,1.69-1.34,2.23-3.24,4.11-5.5,5.41-2.33,1.35-4.98,2.06-7.68,2.06Z" fill="#000e52" stroke-width="0"/>
          <path d="m130.31,63.73c-.68,0-1.23-.55-1.23-1.23v-11.46c0-7.11-5.79-12.9-12.9-12.9-.68,0-1.23-.55-1.23-1.23s.55-1.23,1.23-1.23c8.47,0,15.36,6.89,15.36,15.36v11.46c0,.68-.55,1.23-1.23,1.23Z" fill="#000e52" stroke-width="0"/>
          <path d="m110.71,70.05c-.29,0-.57-.1-.81-.3-2.11-1.83-3.31-4.47-3.31-7.25v-11.46c0-5.29,4.3-9.59,9.59-9.59,4.03,0,7.65,2.55,9.02,6.34.23.64-.1,1.34-.74,1.58-.64.23-1.34-.1-1.58-.74-1.02-2.82-3.71-4.71-6.71-4.71-3.93,0-7.13,3.2-7.13,7.13v11.46c0,2.06.9,4.03,2.46,5.39.51.45.57,1.22.12,1.74-.24.28-.59.42-.93.42Z" fill="#000e52" stroke-width="0"/>
          <path d="m116.18,72.09c-.68,0-1.23-.55-1.23-1.23s.55-1.23,1.23-1.23c3.93,0,7.13-3.2,7.13-7.13v-9.25c0-.68.55-1.23,1.23-1.23s1.23.55,1.23,1.23v9.25c0,5.29-4.3,9.59-9.59,9.59Z" fill="#000e52" stroke-width="0"/>
          <path d="m116.18,66.32c-2.11,0-3.82-1.71-3.82-3.82v-6.34c0-.68.55-1.23,1.23-1.23s1.23.55,1.23,1.23v6.34c0,.75.61,1.36,1.36,1.36.68,0,1.23.55,1.23,1.23s-.55,1.23-1.23,1.23Z" fill="#000e52" stroke-width="0"/>
          <path d="m118.77,61.01c-.68,0-1.23-.55-1.23-1.23v-8.74c0-.75-.61-1.36-1.36-1.36s-1.36.61-1.36,1.36c0,.68-.55,1.23-1.23,1.23s-1.23-.55-1.23-1.23c0-2.11,1.71-3.82,3.82-3.82s3.82,1.71,3.82,3.82v8.74c0,.68-.55,1.23-1.23,1.23Z" fill="#000e52" stroke-width="0"/>
        </g>
        <g>
          <path d="m143.3,84.9h-11.16c-1.21,0-2.19-.98-2.19-2.19v-8.14c0-1.21.98-2.19,2.19-2.19h11.16c1.21,0,2.19.98,2.19,2.19v8.14c0,1.21-.98,2.19-2.19,2.19Zm-10.89-2.46h10.62v-7.6h-10.62v7.6Z" fill="#000e52" stroke-width="0"/>
          <path d="m141.24,74.84c-.68,0-1.23-.55-1.23-1.23v-5.89c0-1.07-1.03-1.94-2.29-1.94s-2.29.87-2.29,1.94v2.4c0,.68-.55,1.23-1.23,1.23s-1.23-.55-1.23-1.23v-2.4c0-2.43,2.13-4.4,4.75-4.4s4.75,1.97,4.75,4.4v5.89c0,.68-.55,1.23-1.23,1.23Z" fill="#000e52" stroke-width="0"/>
        </g>
      </g>
    </g>
  </g>
</svg>