<?xml version="1.0" encoding="UTF-8"?>
<svg xmlns="http://www.w3.org/2000/svg" viewBox="0 0 244 120">
  <g id="Hintergrund">
    <rect width="244" height="120" fill="#f4f6f9" stroke-width="0"/>
  </g>
  <g id="Design">
    <g>
      <rect x="60.07" y="24.55" width="128.68" height="80.3" rx="4.38" ry="4.38" fill="#f8cdbf" stroke-width="0"/>
      <g>
        <rect x="69.46" y="35.24" width="74.69" height="7.39" fill="#ee8360" stroke-width="0"/>
        <g>
          <rect x="69.57" y="54.22" width="51.65" height="4.54" fill="#fdf3ef" stroke-width="0"/>
          <rect x="69.57" y="60.85" width="51.65" height="4.54" fill="#fdf3ef" stroke-width="0"/>
          <rect x="69.57" y="67.49" width="51.65" height="4.54" fill="#fdf3ef" stroke-width="0"/>
          <rect x="69.57" y="74.13" width="34.17" height="4.54" fill="#fdf3ef" stroke-width="0"/>
        </g>
      </g>
      <polygon points="158.57 58.99 158.57 76.73 173.41 76.73 173.41 58.99 179.84 58.99 165.99 42.46 152.14 58.99 158.57 58.99" fill="#fdf3ef" stroke-width="0"/>
      <polygon points="138.29 88.9 138.29 110.11 156.05 110.11 156.05 88.9 163.73 88.9 147.17 69.14 130.61 88.9 138.29 88.9" fill="#000e52" stroke-width="0"/>
    </g>
  </g>
</svg>