<?xml version="1.0" encoding="UTF-8"?>
<svg xmlns="http://www.w3.org/2000/svg" xmlns:xlink="http://www.w3.org/1999/xlink" viewBox="0 0 244 120">
  <defs>
    <clipPath id="clippath">
      <path d="m120.66,67.05l-.43-.41c-.17-.16-4.27-4.06-6.41-6.52-1.39-1.59-3.39-5.76-.69-8.45,1.02-1.02,2.2-1.52,3.52-1.5,1.76.03,3.25.99,4.01,1.68.76-.7,2.26-1.66,4.01-1.68.02,0,.05,0,.07,0,1.29,0,2.45.51,3.44,1.5h0c2.7,2.7.7,6.86-.69,8.45-2.14,2.46-6.24,6.36-6.41,6.52l-.43.41Z" fill="#8da5c4" stroke-width="0"/>
    </clipPath>
  </defs>
  <g id="Hintergrund">
    <rect x="0" width="244" height="120" fill="#f4f6f9" stroke-width="0"/>
  </g>
  <g id="Design">
    <g>
      <g>
        <path d="m143.19,29.65s-3.75-2.5-4.78-4.7c-.81-1.73-1.01-2.89-1.22-4.6-.26-2.1-.89-8.4-.89-8.4,0,0-.08-2.07-2.44-2.77-1.58-.47-6.8-1.3-13.17-1.31h0s-.05,0-.07,0-.05,0-.07,0h0c-6.37.01-11.59.85-13.17,1.31-2.36.69-2.44,2.77-2.44,2.77,0,0-.63,6.3-.89,8.4-.21,1.71-.41,2.87-1.22,4.6-1.03,2.21-4.78,4.7-4.78,4.7l22.58-.71,22.58.71Z" fill="#42659f" stroke-width="0"/>
        <path d="m143.19,88.49s-3.75,2.5-4.78,4.7c-.81,1.73-1.01,2.89-1.22,4.6-.26,2.1-.89,8.4-.89,8.4,0,0-.08,2.07-2.44,2.77-1.58.47-6.8,1.3-13.17,1.31h0s-.05,0-.07,0-.05,0-.07,0h0c-6.37-.01-11.59-.85-13.17-1.31-2.36-.69-2.44-2.77-2.44-2.77,0,0-.63-6.3-.89-8.4-.21-1.71-.41-2.87-1.22-4.6-1.03-2.21-4.78-4.7-4.78-4.7l22.58.71,22.58-.71Z" fill="#42659f" stroke-width="0"/>
        <path d="m103.81,28.07h33.7c5.4,0,9.79,4.39,9.79,9.79v42.44c0,5.4-4.39,9.79-9.79,9.79h-33.7c-5.4,0-9.79-4.39-9.79-9.79v-42.45c0-5.4,4.39-9.79,9.79-9.79Z" fill="#000e52" stroke-width="0"/>
        <path d="m147.11,60.66h1.27c.16,0,.28.13.28.28v15.63c0,.16-.13.28-.28.28h-1.27c-.16,0-.28-.13-.28-.28v-15.63c0-.16.13-.28.28-.28Z" fill="#225494" stroke-width="0"/>
        <rect x="146.31" y="42.08" width="3.85" height="10.61" rx="1.13" ry="1.13" fill="#000e52" stroke-width="0"/>
        <path d="m120.55,110.28v-21.07l-22.52-.71s3.75,2.5,4.78,4.7c.81,1.73,1.01,2.89,1.22,4.6.26,2.1.89,8.4.89,8.4,0,0,.08,2.07,2.44,2.77,1.59.47,6.8,1.3,13.17,1.31h0s0,0,.01,0Z" fill="#42659f" stroke-width="0"/>
        <path d="m138.41,24.95c-.81-1.73-1.01-2.89-1.22-4.6-.26-2.1-.89-8.4-.89-8.4,0,0-.08-2.07-2.44-2.77-1.58-.47-6.8-1.3-13.17-1.31h0s-.05,0-.07,0h-.06v21.07h.06s22.58.71,22.58.71c0,0-3.75-2.5-4.78-4.7Z" fill="#42659f" stroke-width="0"/>
        <path d="m137.63,30.11c4.19,0,7.6,3.41,7.6,7.6v42.72c0,4.19-3.41,7.6-7.6,7.6h-33.93c-4.19,0-7.6-3.41-7.6-7.6v-42.72c0-4.19,3.41-7.6,7.6-7.6h33.93m0-2.25h-33.93c-5.44,0-9.85,4.41-9.85,9.85v42.72c0,5.44,4.41,9.85,9.85,9.85h33.93c5.44,0,9.85-4.41,9.85-9.85v-42.72c0-5.44-4.41-9.85-9.85-9.85h0Z" fill="#8da5c4" stroke-width="0"/>
      </g>
      <g>
        <path d="m120.55,74.81c-9.42,0-17.09-7.66-17.09-17.09s7.66-17.09,17.09-17.09,17.09,7.66,17.09,17.09-7.66,17.09-17.09,17.09Zm0-30.27c-7.27,0-13.19,5.92-13.19,13.19s5.92,13.19,13.19,13.19,13.19-5.92,13.19-13.19-5.92-13.19-13.19-13.19Z" fill="#225494" stroke-width="0"/>
        <path d="m105.42,59.68c-1.08,0-1.95-.87-1.95-1.95,0-9.42,7.66-17.09,17.09-17.09,1.08,0,1.95.87,1.95,1.95s-.87,1.95-1.95,1.95c-7.27,0-13.19,5.92-13.19,13.19,0,1.08-.87,1.95-1.95,1.95Z" fill="#00ff64" stroke-width="0"/>
        <path d="m120.55,80.09c-12.33,0-22.36-10.03-22.36-22.36,0-1.08.87-1.95,1.95-1.95s1.95.87,1.95,1.95c0,10.18,8.28,18.46,18.46,18.46s18.46-8.28,18.46-18.46c0-1.08.87-1.95,1.95-1.95s1.95.87,1.95,1.95c0,12.33-10.03,22.36-22.36,22.36Z" fill="#8da5c4" stroke-width="0"/>
      </g>
      <g>
        <path d="m120.66,67.05l-.43-.41c-.17-.16-4.27-4.06-6.41-6.52-1.39-1.59-3.39-5.76-.69-8.45,1.02-1.02,2.2-1.52,3.52-1.5,1.76.03,3.25.99,4.01,1.68.76-.7,2.26-1.66,4.01-1.68.02,0,.05,0,.07,0,1.29,0,2.45.51,3.44,1.5h0c2.7,2.7.7,6.86-.69,8.45-2.14,2.46-6.24,6.36-6.41,6.52l-.43.41Z" fill="#8da5c4"/>
        <g clip-path="url(#clippath)">
          <path d="m123.32,61.94s-.02,0-.03,0c-.24-.02-.44-.2-.47-.45l-.66-5.95-.94,2.86c-.07.21-.26.35-.48.35h-7.98c-.28,0-.5-.23-.5-.5s.23-.5.5-.5h7.62l1.55-4.71c.07-.22.29-.37.53-.34.24.02.42.21.45.45l.6,5.4.66-2.73c.05-.22.25-.38.48-.39.24,0,.43.14.5.36l.59,2.01,2.95-.04h0c.27,0,.5.22.5.5,0,.28-.22.51-.5.51l-3.33.05h0c-.22,0-.42-.15-.48-.36l-.17-.57-.89,3.69c-.06.23-.26.39-.49.39Z" fill="#fff" stroke-width="0"/>
        </g>
      </g>
    </g>
  </g>
</svg>