<?xml version="1.0" encoding="UTF-8"?>
<svg xmlns="http://www.w3.org/2000/svg" viewBox="0 0 244 120">
  <g id="Hintergrund">
    <rect x="0" y="0" width="244" height="120" fill="#f4f6f9" stroke-width="0"/>
  </g>
  <g id="Design">
    <polygon points="130.46 34.1 162.05 45.91 159.96 72.9 131.14 79.51 143.42 104.16 111.67 105.82 93.06 68.55 86.59 33.19 78.06 92.06 130.46 34.1" fill="none" stroke="#8da5c4" stroke-miterlimit="10"/>
    <polyline points="93.06 68.55 130.42 79.24 130.53 33.9 111.58 106.05" fill="none" stroke="#8da5c4" stroke-miterlimit="10"/>
    <g>
      <g>
        <path d="m92.72,81.47c-5.44-1.88-8.32-7.82-6.44-13.26,1.88-5.44,7.82-8.32,13.26-6.44,5.44,1.88,8.32,7.82,6.44,13.26-1.89,5.44-7.82,8.32-13.26,6.44" fill="#42659f" stroke-width="0"/>
        <path d="m157.15,81.03c-4.49-1.56-6.87-6.46-5.31-10.95,1.56-4.49,6.46-6.87,10.95-5.31,4.49,1.56,6.87,6.46,5.31,10.95-1.56,4.49-6.46,6.87-10.95,5.31" fill="#00ff64" stroke-width="0"/>
        <path d="m128.69,84.25c-2.76-.96-4.23-3.97-3.27-6.74.96-2.76,3.97-4.23,6.74-3.27,2.76.96,4.23,3.97,3.27,6.74-.96,2.76-3.97,4.23-6.74,3.27" fill="#42659f" stroke-width="0"/>
        <path d="m83.88,41.01c-4.32-1.5-6.61-6.21-5.11-10.53,1.5-4.32,6.21-6.61,10.53-5.11,4.32,1.5,6.61,6.21,5.11,10.53-1.5,4.32-6.21,6.61-10.53,5.11" fill="#bbc9dc" stroke-width="0"/>
        <path d="m76.62,96.24c-2.31-.8-3.53-3.32-2.73-5.62.8-2.31,3.32-3.53,5.62-2.73,2.31.8,3.53,3.32,2.73,5.62-.8,2.31-3.32,3.53-5.62,2.73" fill="#00ff64" stroke-width="0"/>
        <path d="m160.36,50.78c-2.47-.85-3.77-3.55-2.92-6.01.85-2.47,3.55-3.78,6.01-2.92,2.47.85,3.78,3.55,2.92,6.01-.85,2.47-3.55,3.78-6.01,2.92" fill="#42659f" stroke-width="0"/>
        <path d="m141.77,108.1c-2.23-.77-3.4-3.2-2.63-5.43.77-2.23,3.2-3.4,5.42-2.63,2.23.77,3.4,3.2,2.63,5.42-.77,2.23-3.2,3.4-5.42,2.63" fill="#42659f" stroke-width="0"/>
        <path d="m108.71,114.34c-4.71-1.63-7.2-6.77-5.57-11.48,1.63-4.71,6.77-7.2,11.48-5.57,4.71,1.63,7.2,6.77,5.57,11.48-1.63,4.71-6.77,7.2-11.48,5.57" fill="#bbc9dc" stroke-width="0"/>
      </g>
      <g>
        <circle cx="131.78" cy="33.9" r="18.47" fill="#000e52" stroke-width="0"/>
        <polygon points="142.87 30.73 135.69 30.73 135.69 23.55 127.87 23.55 127.87 30.73 120.69 30.73 120.69 38.55 127.87 38.55 127.87 45.73 135.69 45.73 135.69 38.55 142.87 38.55 142.87 30.73" fill="#fff" stroke-width="0"/>
      </g>
    </g>
  </g>
</svg>