<?xml version="1.0" encoding="UTF-8"?>
<svg xmlns="http://www.w3.org/2000/svg" viewBox="0 0 244 120">
  <g id="Hintergrund">
    <rect x="0" width="244" height="120" fill="#f4f6f9" stroke-width="0"/>
  </g>
  <g id="Design">
    <g>
      <path d="m122,22.6l-34.55,13.53v29.78c0,14.4,7.79,25.37,14.33,32.04,7.56,7.71,15.77,12.23,20.22,13.74,4.45-1.51,12.66-6.03,20.22-13.74,6.54-6.67,14.33-17.64,14.33-32.04v-29.78s-34.55-13.53-34.55-13.53Z" fill="#ccebe5" stroke-width="0"/>
      <path d="m120.96,116.48c-11.49-2.96-39.05-21.69-39.05-50.47v-33.06s40.09-15.7,40.09-15.7l40.09,15.7v33.06c0,28.77-27.56,47.5-39.05,50.47l-1.04.27-1.04-.27Zm1.04-90.31l-31.78,12.45v27.39c0,13.25,7.17,23.34,13.18,29.48,6.95,7.09,14.51,11.25,18.6,12.64,4.09-1.39,11.65-5.55,18.6-12.64,6.01-6.13,13.18-16.23,13.18-29.48v-27.39s-31.78-12.45-31.78-12.45Z" fill="#99d7cb" stroke-width="0"/>
      <path d="m108.15,70.85h5.15s0-17.41,0-17.41c0-4.8,3.9-8.7,8.7-8.7,4.8,0,8.7,3.9,8.7,8.7v17.41s5.15,0,5.15,0v-17.41c0-7.64-6.21-13.85-13.85-13.85-7.64,0-13.85,6.21-13.85,13.85v17.41Z" fill="#000e52" stroke-width="0"/>
      <path d="m102.15,76.41c0,10.96,8.89,19.85,19.85,19.85,10.96,0,19.85-8.89,19.85-19.85,0-10.96-8.89-19.85-19.85-19.85-10.96,0-19.85,8.89-19.85,19.85Zm17.68,1.71c-1.08-.71-1.79-1.92-1.79-3.31,0-2.18,1.77-3.96,3.96-3.96,2.18,0,3.96,1.77,3.96,3.96,0,1.38-.71,2.6-1.79,3.31l1.67,5.23h-7.69s1.67-5.23,1.67-5.23Z" fill="#009a7c" stroke-width="0"/>
    </g>
  </g>
</svg>