<?xml version="1.0" encoding="UTF-8"?>
<svg xmlns="http://www.w3.org/2000/svg" viewBox="0 0 244 120">
  <g id="Hintergrund">
    <rect x="0" width="244" height="120" fill="#f4f6f9" stroke-width="0"/>
  </g>
  <g id="Design">
    <g>
      <path d="m140.83,6.17c3.89-.31,13.75-.4,20.7,4.74v19.91c-13.71-2.87-20.7.86-20.7.86V6.17Z" fill="#6884b2" stroke-width="0"/>
      <path d="m140.03,52.85c-.53,0-.96-.46-.96-.99l-.16-45.54c0-.53.43-.98.96-.98h0c.53,0,.96.43.96.96l.16,45.55c0,.53-.43,1-.96,1h0Z" fill="#000e52" stroke-width="0"/>
      <path d="m139.35,5.5c-.27.18-.45.48-.45.83l.16,45.54c0,.27.11.51.28.69V5.5Z" fill="#225494" stroke-width="0"/>
      <path d="m146.48,6.12c-2.33-.14-4.33-.06-5.64.05v25.51s1.89-1.01,5.64-1.58V6.12Z" fill="#42659f" stroke-width="0"/>
      <path d="m161.43,13.39l14.35-.1c-1.17,10.53-10.53,17.97-13.4,20.02-.35.25-.84,0-.84-.43l-.1-19.49Z" fill="#4e76a9" stroke-width="0"/>
      <path d="m165.13,13.37l-3.7.02.1,19.49c0,.43.49.68.84.43.65-.46,1.62-1.19,2.75-2.17V13.37Z" fill="#225494" stroke-width="0"/>
    </g>
    <rect x="88.51" y="68.16" width="55.49" height="20.97" fill="#7a98bf" stroke-width="0"/>
    <rect x="65.06" y="89.14" width="55.49" height="20.97" fill="#4e76a9" stroke-width="0"/>
    <rect x="112.44" y="47.19" width="55.49" height="20.97" fill="#a7bbd4" stroke-width="0"/>
  </g>
</svg>