<?xml version="1.0" encoding="UTF-8"?>
<svg xmlns="http://www.w3.org/2000/svg" viewBox="0 0 244 120">
  <g id="Hintergrund">
    <rect x="0" width="244" height="120" fill="#f4f6f9" stroke-width="0"/>
  </g>
  <g id="Design">
    <g>
      <rect x="77.08" y="19.75" width="89.85" height="89.85" rx="7.26" ry="7.26" fill="#f8cdbf" stroke-width="0"/>
      <g>
        <g>
          <path d="m98.41,63.78c-.84,0-1.53-.68-1.53-1.53v-6.87c0-3.32.87-6.59,2.51-9.46,1.59-2.78,3.88-5.14,6.61-6.81.72-.44,1.66-.22,2.1.5.44.72.22,1.66-.5,2.1-4.8,2.95-7.67,8.06-7.67,13.67v6.87c0,.84-.68,1.53-1.53,1.53Z" fill="#000e52" stroke-width="0"/>
          <path d="m115.97,88.7c-10.52,0-19.08-8.56-19.08-19.08,0-.84.68-1.53,1.53-1.53s1.53.68,1.53,1.53c0,8.83,7.19,16.02,16.02,16.02,2.81,0,5.58-.74,8.01-2.15,2.35-1.36,4.34-3.32,5.74-5.65.43-.72,1.37-.96,2.1-.52.72.43.96,1.37.52,2.1-1.67,2.78-4.03,5.1-6.83,6.72-2.89,1.67-6.19,2.56-9.54,2.56Z" fill="#000e52" stroke-width="0"/>
          <path d="m133.52,71.15c-.84,0-1.53-.68-1.53-1.53v-14.24c0-8.83-7.19-16.02-16.02-16.02-.84,0-1.53-.68-1.53-1.53s.68-1.53,1.53-1.53c10.52,0,19.08,8.56,19.08,19.08v14.24c0,.84-.68,1.53-1.53,1.53Z" fill="#000e52" stroke-width="0"/>
          <path d="m109.17,79c-.36,0-.71-.12-1-.37-2.62-2.27-4.12-5.55-4.12-9v-14.24c0-6.57,5.34-11.91,11.91-11.91,5,0,9.51,3.16,11.21,7.87.29.79-.12,1.67-.92,1.96-.79.29-1.67-.12-1.96-.92-1.27-3.5-4.61-5.85-8.33-5.85-4.88,0-8.85,3.97-8.85,8.85v14.24c0,2.56,1.12,5,3.06,6.69.64.55.71,1.52.15,2.16-.3.35-.73.53-1.16.53Z" fill="#000e52" stroke-width="0"/>
          <path d="m115.97,81.53c-.84,0-1.53-.68-1.53-1.53s.68-1.53,1.53-1.53c4.88,0,8.86-3.97,8.86-8.85v-11.49c0-.84.68-1.53,1.53-1.53s1.53.68,1.53,1.53v11.49c0,6.57-5.34,11.91-11.91,11.91Z" fill="#000e52" stroke-width="0"/>
          <path d="m115.97,74.37c-2.62,0-4.74-2.13-4.74-4.74v-7.88c0-.84.68-1.53,1.53-1.53s1.53.68,1.53,1.53v7.88c0,.93.76,1.69,1.69,1.69.84,0,1.53.68,1.53,1.53s-.68,1.53-1.53,1.53Z" fill="#000e52" stroke-width="0"/>
          <path d="m119.18,67.77c-.84,0-1.53-.68-1.53-1.53v-10.86c0-.93-.76-1.69-1.69-1.69s-1.69.76-1.69,1.69c0,.84-.68,1.53-1.53,1.53s-1.53-.68-1.53-1.53c0-2.62,2.13-4.74,4.74-4.74s4.74,2.13,4.74,4.74v10.86c0,.84-.68,1.53-1.53,1.53Z" fill="#000e52" stroke-width="0"/>
        </g>
        <g>
          <path d="m149.66,97.45h-13.87c-1.5,0-2.72-1.22-2.72-2.72v-10.12c0-1.5,1.22-2.72,2.72-2.72h13.87c1.5,0,2.72,1.22,2.72,2.72v10.12c0,1.5-1.22,2.72-2.72,2.72Zm-13.53-3.06h13.19v-9.44h-13.19v9.44Z" fill="#000e52" stroke-width="0"/>
          <path d="m147.1,84.95c-.84,0-1.53-.68-1.53-1.53v-7.31c0-1.33-1.28-2.41-2.85-2.41s-2.85,1.08-2.85,2.41v2.98c0,.84-.68,1.53-1.53,1.53s-1.53-.68-1.53-1.53v-2.98c0-3.01,2.65-5.47,5.9-5.47s5.9,2.45,5.9,5.47v7.31c0,.84-.68,1.53-1.53,1.53Z" fill="#000e52" stroke-width="0"/>
        </g>
      </g>
    </g>
  </g>
</svg>