<?xml version="1.0" encoding="UTF-8"?>
<svg xmlns="http://www.w3.org/2000/svg" viewBox="0 0 244 120">
  <g id="Hintergrund">
    <rect width="244" height="120" fill="#f4f6f9" stroke-width="0"/>
  </g>
  <g id="Design">
    <g>
      <g>
        <path d="m106.47,106.84c-26.46-9.17-40.47-38.04-31.31-64.51C84.32,15.88,113.21,1.87,139.66,11.03c26.46,9.17,40.47,38.05,31.31,64.51-9.16,26.46-38.04,40.47-64.5,31.31" fill="#f8cdbf" stroke-width="0"/>
        <g>
          <g id="POSTLER_PAKET">
            <g>
              <path d="m135.91,52.69l-.82,30.38c-.15,5.7-4.82,10.24-10.53,10.24h0c-5.82,0-10.53-4.73-10.51-10.55l.09-30.69c.16-5.64,4.59-10.22,10.22-10.57h0c6.39-.39,11.74,4.79,11.55,11.19Z" fill="#dd9b6f" stroke-width="0"/>
              <path d="m135.63,62.25l-18.08,12.44s14.13-1.41,17.83-3.52l.25-8.92Z" fill="#c48a63" stroke-width="0"/>
              <g id="PFLEGER_HEAD_3_4" data-name="PFLEGER_HEAD_3/4">
                <path d="m105.47,39.21c0-7.35,5.97-13.31,13.33-13.3h6.71c7.35.01,13.31,5.98,13.3,13.33l-1.15,13.14h0s-.48,5.59-.48,5.59l-.03.32c-.46,5.16-3.62,9.69-8.31,11.9l-7.72,3.64c-1.19.56-2.5.85-3.82.85h0c-3.91,0-8.24-2.55-9.4-6.28-.78-2.51-2.01-11.18-2.14-12.74l-.11-1.26-.19-15.21Z" fill="#dd9b6f" stroke-width="0"/>
                <path d="m135.37,51.24c-.74.57-1.66-.04-1.66-.98,0-3.51.51-6.01-1.16-8.19-1.18-1.54-2.98-2.85-2.98-8.66l4.08-3.5s.38-1.06,1.25-2.01c1.07-1.17,1.04-2.2,3.84-.92,3.73,1.71,1.29,13.99.38,20-.19,1.26-2.14,3-3.75,4.26Z" stroke-width="0"/>
                <path d="m137.06,28.23s-.27-7.33-14.15-7.34c-15.87-.02-20.15,8.85-17.37,19.92l.41-4.65s18.49,6.27,31.11-7.93Z" stroke-width="0"/>
                <path d="m104.8,25.97s-1.49-.69-2.54.2c-1.43,1.21.93,3.53.93,3.53,0,0-2.27-.66-2.93.88s-.26,3.63,4.26,4.63,6.38-6.72,6.38-6.72c-2.15.32-4.14-.96-6.1-2.52Z" stroke-width="0"/>
                <path d="m135.92,46.77c.27-.02.55-.01.83.03h0c2.03.3,3.43,2.2,3.12,4.23l-.57,3.8c-.26,1.75-1.7,3.03-3.4,3.15v-11.21Z" fill="#dd9b6f" stroke-width="0"/>
                <g>
                  <path d="m121.84,48.19c.26-.82,1.23-.64,1.31.19.05.48.07,1.37-.44,1.64-.39.21-.77-.08-.9-.45-.09-.27-.13-.91.02-1.38Z" stroke-width="0"/>
                  <path d="m108.11,47.76c.26-.82,1.23-.64,1.31.19.05.48.07,1.37-.44,1.64-.39.21-.77-.08-.9-.45-.09-.27-.13-.91.02-1.38Z" stroke-width="0"/>
                  <path d="m119.18,44.94c-.08-1.24,2.8-1.31,3.37-1.27.88.06,1.79.25,2.62.64.45.21,2.37,1.45,1.04,1.78-1.16.28-2.28-.16-3.43-.37-.74-.14-3.13.54-3.53-.48-.04-.11-.07-.21-.07-.3Z" stroke-width="0"/>
                  <path d="m112.21,45.18c.16-1.24-2.71-1.48-3.29-1.47-.89,0-1.8.14-2.65.48-.46.19-2.46,1.3-1.14,1.71,1.14.36,2.29-.02,3.44-.16.74-.09,3.09.74,3.55-.26.05-.11.08-.2.09-.3Z" stroke-width="0"/>
                  <path d="m111.17,61.77c.12-.08.32-.13.66-.11,2.23.14,4.49.1,6.73.14.78.01,2.07.31,1.32,1.11-1.25,1.32-3.3,1.97-5.8,1.57-1.18-.19-3.92-2.02-2.92-2.7Z" fill="#fff" stroke-width="0"/>
                  <path d="m114.58,49.62c.13-.6,1.08-.44.95.17-.3,1.32-.7,2.61-.98,3.94-.17.79-.43,1.35-.02,2.15.24.46.81,1.02,1.19,1.4.44.43-.17,1.18-.61.74-.73-.73-1.82-1.7-1.83-2.79-.02-1.84.91-3.82,1.3-5.6Z" fill="#c48a63" stroke-width="0"/>
                </g>
              </g>
            </g>
          </g>
          <path d="m150.82,80.49l-8.17-1.46c-2.4-.43-3.78-.53-6.33-1.22-.01,0-11.5,9.77-16.84,12.79-8.64-7.66-6.97-9.53-7.07-12.26-3,.39-5.98.92-8.94,1.59-8.83,1.77-14.9,7.82-16.97,14.11,13.28,13.82,33.87,19.48,53.17,12.79,9-3.12,16.55-8.52,22.25-15.32-1.77-5.43-5.56-10.05-11.08-11.03Z" fill="#ee8360" stroke-width="0"/>
          <g>
            <polygon points="115.42 105.27 123.13 105.28 123.14 87.32 119.48 90.61 115.44 87.31 115.42 105.27" fill="#fce6df" stroke-width="0"/>
            <path d="m141.15,78.84l-5.81-5.15-8.37,15.11s.8.36,4.73,3.74c.68.59,1.3.07,1.74-.79l7.7-12.92Z" fill="#f5b5a0" stroke-width="0"/>
            <path d="m135.34,73.69s-8.82,9.16-15.86,16.92l7.49-1.81,8.37-15.11Z" fill="#f8cdbf" stroke-width="0"/>
            <path d="m109.43,78.75l4.64-3.98-2.11,11.26s-.72.94-4.65,4.31c-.68.59-1.74.11-1.74-.79l3.86-10.8Z" fill="#f5b5a0" stroke-width="0"/>
            <path d="m114.08,74.77s.04,4.81,1.53,8.98c1.33,3.73,3.87,6.86,3.87,6.86l-7.52-4.58,2.11-11.26Z" fill="#f8cdbf" stroke-width="0"/>
          </g>
        </g>
      </g>
      <g>
        <circle cx="160.75" cy="97.8" r="15.27" fill="#000e52" stroke-width="0"/>
        <path d="m158.59,105.43c-.47,0-.92-.19-1.25-.52l-5.72-5.78c-.68-.69-.68-1.8.02-2.48.69-.68,1.8-.68,2.48.02l4.37,4.42,8.78-10.31c.63-.74,1.74-.83,2.48-.2.74.63.83,1.74.2,2.48l-10.03,11.76c-.32.37-.78.6-1.27.62-.02,0-.04,0-.06,0Z" fill="#00ff64" stroke-width="0"/>
      </g>
    </g>
  </g>
</svg>