<?xml version="1.0" encoding="UTF-8"?>
<svg xmlns="http://www.w3.org/2000/svg" viewBox="0 0 244 120">
  <g id="Hintergrund">
    <rect width="244" height="120" fill="#f4f6f9" stroke-width="0"/>
  </g>
  <g id="Design">
    <g>
      <rect x="77.08" y="20.26" width="89.85" height="89.85" rx="7.26" ry="7.26" fill="#ccebe5" stroke-width="0"/>
      <g>
        <path d="m134.18,86.08l6.14,4.68,6.1-6.1-5.7-7.6c.9-1.57,1.6-3.27,2.09-5.05l9.41-1.34v-8.63l-9.41-1.34c-.49-1.79-1.19-3.48-2.09-5.05l5.7-7.6-6.1-6.1-7.6,5.7c-1.57-.9-3.27-1.6-5.05-2.09l-1.34-9.41h-8.63l-1.34,9.41c-1.79.49-3.48,1.19-5.05,2.09l-7.6-5.7-6.1,6.1,5.7,7.6c-.9,1.57-1.6,3.27-2.09,5.05l-9.41,1.34v8.63l9.41,1.34c.49,1.79,1.19,3.48,2.09,5.05l-5.7,7.6,6.1,6.1,6.58-4.68" fill="none" stroke="#000e52" stroke-linecap="round" stroke-linejoin="round" stroke-width="3.04"/>
        <path d="m121.99,52.67c-7.94-.12-14.58,5.69-14.76,13.63-.09,4.09,1.57,7.06,3.79,10.11,1.95,2.68,3.35,3.47,4.14,7.47" fill="none" stroke="#000e52" stroke-linecap="round" stroke-linejoin="round" stroke-width="3.04"/>
        <polyline points="128.81 83.88 128.81 83.88 115.16 83.91" fill="none" stroke="#000e52" stroke-linecap="round" stroke-linejoin="round" stroke-width="3.04"/>
        <line x1="128.81" y1="90.39" x2="115.73" y2="90.39" fill="none" stroke="#000e52" stroke-linecap="round" stroke-linejoin="round" stroke-width="3.04"/>
        <path d="m126.08,59.35c2.51,1.48,4.32,3.46,4.85,6.29" fill="none" stroke="#000e52" stroke-linecap="round" stroke-linejoin="round" stroke-width="3.04"/>
        <path d="m121.99,52.67c7.94-.12,14.58,5.69,14.76,13.63.09,4.09-1.57,7.06-3.79,10.11-1.95,2.68-3.35,3.47-4.14,7.47" fill="none" stroke="#000e52" stroke-linecap="round" stroke-linejoin="round" stroke-width="3.04"/>
        <polyline points="115.16 83.88 115.16 83.88 128.81 83.91" fill="none" stroke="#000e52" stroke-linecap="round" stroke-linejoin="round" stroke-width="3.04"/>
        <line x1="128.81" y1="83.88" x2="128.81" y2="90.39" fill="none" stroke="#000e52" stroke-linecap="round" stroke-linejoin="round" stroke-width="3.04"/>
        <g>
          <polyline points="128.81 90.39 124.91 96.25 121.76 96.25" fill="none" stroke="#000e52" stroke-linecap="round" stroke-linejoin="round" stroke-width="3.04"/>
          <line x1="122.21" y1="96.25" x2="119.06" y2="96.25" fill="none" stroke="#000e52" stroke-linecap="round" stroke-linejoin="round" stroke-width="3.04"/>
        </g>
      </g>
    </g>
  </g>
</svg>