<?xml version="1.0" encoding="UTF-8"?>
<svg id="Hintergrund" xmlns="http://www.w3.org/2000/svg" viewBox="0 0 244 120">
  <rect y="0" width="244" height="120" fill="#f4f6f9" stroke-width="0"/>
  <g>
    <polygon points="143.82 111.85 122 100.52 100.18 111.85 107.75 59.12 136.25 59.12 143.82 111.85" fill="#4e76a9" stroke-width="0"/>
    <path d="m127.09,22.05h0c1.05,3.58,5.37,4.98,8.32,2.7h0c4.19-3.23,10,1,8.23,5.98h0c-1.25,3.51,1.42,7.18,5.14,7.08h0c5.29-.15,7.51,6.69,3.14,9.68h0c-3.07,2.11-3.07,6.64,0,8.75h0c4.36,2.99,2.14,9.82-3.14,9.68h0c-3.73-.1-6.39,3.57-5.14,7.08h0c1.77,4.98-4.04,9.21-8.23,5.98h0c-2.95-2.27-7.27-.87-8.32,2.7h0c-1.49,5.07-8.68,5.07-10.17,0h0c-1.05-3.58-5.37-4.98-8.32-2.7h0c-4.19,3.23-10-1-8.23-5.98h0c1.25-3.51-1.42-7.18-5.14-7.08h0c-5.29.15-7.51-6.69-3.14-9.68h0c3.07-2.11,3.07-6.64,0-8.75h0c-4.36-2.99-2.14-9.82,3.14-9.68h0c3.73.1,6.39-3.57,5.14-7.08h0c-1.77-4.98,4.04-9.21,8.23-5.98h0c2.95,2.27,7.27.87,8.32-2.7h0c1.49-5.07,8.68-5.07,10.17,0Z" fill="#a7bbd4" stroke-width="0"/>
    <circle cx="122" cy="51.39" r="16.3" fill="#000e52" stroke-width="0"/>
  </g>
</svg>