<?xml version="1.0" encoding="UTF-8"?>
<svg xmlns="http://www.w3.org/2000/svg" viewBox="0 0 244 120">
  <g id="Hintergrund">
    <rect width="244" height="120" fill="#f4f6f9" stroke-width="0"/>
  </g>
  <g id="Design">
    <g id="KARTENLESER">
      <polygon points="93.13 77.4 172.61 77.4 172.61 110.33 138.32 110.26 93.13 77.4" fill="#000e52" stroke-width="0"/>
      <polygon points="138.32 110.26 58.03 110.26 54.87 98.93 135.16 98.93 138.32 110.26" fill="#33ae96" stroke-width="0"/>
      <polygon points="138.32 110.26 184.71 75.78 181.55 64.46 135.16 98.93 138.32 110.26" fill="#66c2b0" stroke-width="0"/>
      <polygon points="101.27 64.46 181.55 64.46 135.16 98.93 54.87 98.93 101.27 64.46" fill="#99d7cb" stroke-width="0"/>
      <polygon points="103.46 67.21 166.82 67.21 167.22 68.09 89.17 79.01 88.76 78.14 103.46 67.21" fill="#000e52" stroke-width="0"/>
      <polygon points="103.86 68.09 167.22 68.09 152.52 79.01 89.17 79.01 103.86 68.09" fill="#33ae96" stroke-width="0"/>
      <path d="m163.54,77.84l9.07,32.49h0c10.92,0,18.84-10.42,15.9-20.94l-6.96-24.93-18.01,13.38Z" fill="#66c2b0" stroke-width="0"/>
      <g>
        <line x1="179.87" y1="71.55" x2="152.84" y2="91.92" fill="#000e52" stroke-width="0"/>
        <path d="m152.84,92.27c-.11,0-.21-.05-.28-.14-.12-.15-.08-.37.07-.49l27.03-20.37c.15-.12.37-.08.49.07s.08.37-.07.49l-27.03,20.37c-.06.05-.14.07-.21.07Z" fill="#009a7c" stroke-width="0"/>
      </g>
      <g>
        <ellipse cx="86.64" cy="83.61" rx="5.86" ry="1.64" transform="translate(-12.22 14.87) rotate(-9.17)" fill="#e5f5f2" stroke-width="0"/>
        <ellipse cx="99.79" cy="83.61" rx="5.86" ry="1.64" transform="translate(-12.05 16.97) rotate(-9.17)" fill="#e5f5f2" stroke-width="0"/>
        <ellipse cx="112.94" cy="83.61" rx="5.86" ry="1.64" transform="translate(-11.88 19.07) rotate(-9.17)" fill="#e5f5f2" stroke-width="0"/>
        <ellipse cx="139.24" cy="83.61" rx="5.86" ry="1.64" transform="translate(-11.54 23.26) rotate(-9.17)" fill="#000e52" stroke-width="0"/>
      </g>
      <g>
        <ellipse cx="79.23" cy="88.35" rx="5.86" ry="1.64" transform="translate(-13.07 13.75) rotate(-9.17)" fill="#e5f5f2" stroke-width="0"/>
        <ellipse cx="92.38" cy="88.35" rx="5.86" ry="1.64" transform="translate(-12.9 15.85) rotate(-9.17)" fill="#e5f5f2" stroke-width="0"/>
        <ellipse cx="105.53" cy="88.35" rx="5.86" ry="1.64" transform="translate(-12.73 17.94) rotate(-9.17)" fill="#e5f5f2" stroke-width="0"/>
        <ellipse cx="131.82" cy="88.35" rx="5.86" ry="1.64" transform="translate(-12.39 22.14) rotate(-9.17)" fill="#e5f5f2" stroke-width="0"/>
      </g>
      <g>
        <ellipse cx="71.81" cy="93.99" rx="5.86" ry="1.64" transform="translate(-14.06 12.64) rotate(-9.17)" fill="#e5f5f2" stroke-width="0"/>
        <ellipse cx="84.96" cy="93.99" rx="5.86" ry="1.64" transform="translate(-13.89 14.74) rotate(-9.17)" fill="#e5f5f2" stroke-width="0"/>
        <ellipse cx="98.11" cy="93.99" rx="5.86" ry="1.64" transform="translate(-13.72 16.84) rotate(-9.17)" fill="#e5f5f2" stroke-width="0"/>
        <ellipse cx="124.41" cy="93.99" rx="5.86" ry="1.64" transform="translate(-13.39 21.03) rotate(-9.17)" fill="#e5f5f2" stroke-width="0"/>
      </g>
    </g>
  </g>
</svg>