<?xml version="1.0" encoding="UTF-8"?>
<svg xmlns="http://www.w3.org/2000/svg" viewBox="0 0 244 120">
  <g id="Hintergrund">
    <rect width="244" height="120" fill="#f4f6f9" stroke-width="0"/>
  </g>
  <g id="Design">
    <g>
      <path d="m160.4,74.05h-79.25c-19.92,0-36.06,16.15-36.06,36.06h80.15c.39-19.98,35.16-36.06,35.16-36.06Z" fill="#66c2b0" stroke-width="0"/>
      <path d="m129.37,98.2c-2.92-1.03-6.46-1.78-11.51-1.78-8.32,0-12.54,2.03-16.63,3.99-4.01,1.92-8.15,3.91-16.3,3.91s-12.3-1.99-16.31-3.92c-4.09-1.96-8.31-3.99-16.64-3.99-1.58,0-2.97.09-4.28.22-.11.26-.19.53-.29.8,1.38-.15,2.87-.26,4.57-.26,8.15,0,12.29,1.99,16.3,3.91,4.09,1.96,8.32,3.99,16.64,3.99s12.54-2.03,16.63-3.99c4.01-1.92,8.15-3.91,16.29-3.91,4.84,0,8.26.71,11.08,1.68.14-.22.28-.45.43-.67Z" fill="#000e52" stroke-width="0"/>
      <path d="m161.79,77.07h31.85v-3.03h-32.81c-19.92,0-36.06,16.15-36.06,36.06h3.33c.37-18.3,15.29-33.04,33.69-33.04Z" fill="#009a7c" stroke-width="0"/>
      <path d="m128.1,110.11h65.54v-33.04h-31.85c-18.39,0-33.32,14.73-33.69,33.04Z" fill="#33ae96" stroke-width="0"/>
      <g>
        <circle cx="76.9" cy="87.82" r="1.2" fill="#ccebe5" stroke-width="0"/>
        <path d="m83.27,79.42c-2.81,1.73-5.35,3.84-7.58,6.25h3.12c2.23-2.4,4.77-4.52,7.58-6.25h-3.12Z" fill="#ccebe5" stroke-width="0"/>
      </g>
      <g>
        <circle cx="82.41" cy="87.82" r="1.2" fill="#ccebe5" stroke-width="0"/>
        <path d="m88.79,79.42c-2.81,1.73-5.35,3.84-7.58,6.25h3.12c2.23-2.4,4.77-4.52,7.58-6.25h-3.12Z" fill="#ccebe5" stroke-width="0"/>
      </g>
      <g>
        <circle cx="87.93" cy="87.82" r="1.2" fill="#ccebe5" stroke-width="0"/>
        <path d="m94.3,79.42c-2.81,1.73-5.35,3.84-7.58,6.25h3.12c2.23-2.4,4.77-4.52,7.58-6.25h-3.12Z" fill="#ccebe5" stroke-width="0"/>
      </g>
      <g>
        <circle cx="93.44" cy="87.82" r="1.2" fill="#ccebe5" stroke-width="0"/>
        <path d="m99.82,79.42c-2.81,1.73-5.35,3.84-7.58,6.25h3.12c2.23-2.4,4.77-4.52,7.58-6.25h-3.12Z" fill="#ccebe5" stroke-width="0"/>
      </g>
      <g>
        <circle cx="98.96" cy="87.82" r="1.2" fill="#ccebe5" stroke-width="0"/>
        <path d="m105.34,79.42c-2.81,1.73-5.35,3.84-7.58,6.25h3.12c2.23-2.4,4.77-4.52,7.58-6.25h-3.12Z" fill="#ccebe5" stroke-width="0"/>
      </g>
      <g>
        <circle cx="104.47" cy="87.82" r="1.2" fill="#ccebe5" stroke-width="0"/>
        <path d="m110.85,79.42c-2.81,1.73-5.35,3.84-7.58,6.25h3.12c2.23-2.4,4.77-4.52,7.58-6.25h-3.12Z" fill="#ccebe5" stroke-width="0"/>
      </g>
      <g>
        <circle cx="109.99" cy="87.82" r="1.2" fill="#ccebe5" stroke-width="0"/>
        <path d="m116.37,79.42c-2.81,1.73-5.35,3.84-7.58,6.25h3.12c2.23-2.4,4.77-4.52,7.58-6.25h-3.12Z" fill="#ccebe5" stroke-width="0"/>
      </g>
    </g>
  </g>
</svg>