<?xml version="1.0" encoding="UTF-8"?>
<svg xmlns="http://www.w3.org/2000/svg" viewBox="0 0 244 120">
  <g id="Hintergrund">
    <rect x="0" width="244" height="120" fill="#f4f6f9" stroke-width="0"/>
  </g>
  <g id="Design">
    <polygon points="129.66 36.97 158.33 47.69 156.43 72.18 130.28 78.18 141.42 100.55 112.61 102.05 95.72 68.23 89.86 36.15 82.12 89.57 129.66 36.97" fill="none" stroke="#8da5c4" stroke-miterlimit="10" stroke-width=".39"/>
    <polyline points="95.72 68.23 129.63 77.94 129.73 36.79 112.53 102.26" fill="none" stroke="#8da5c4" stroke-miterlimit="10" stroke-width=".39"/>
    <g>
      <g>
        <path d="m95.42,79.96c-4.94-1.71-7.55-7.1-5.84-12.03,1.71-4.94,7.1-7.55,12.04-5.84,4.94,1.71,7.55,7.1,5.84,12.03-1.71,4.94-7.1,7.55-12.04,5.84" fill="#42659f" stroke-width="0"/>
        <path d="m153.88,79.56c-4.08-1.41-6.23-5.86-4.82-9.94,1.41-4.07,5.86-6.23,9.94-4.82,4.08,1.41,6.23,5.86,4.82,9.94-1.41,4.08-5.86,6.23-9.94,4.82" fill="#00ff64" stroke-width="0"/>
        <path d="m128.06,82.48c-2.51-.87-3.84-3.61-2.97-6.12.87-2.51,3.61-3.84,6.12-2.97,2.51.87,3.84,3.61,2.97,6.11-.87,2.51-3.61,3.84-6.11,2.97" fill="#42659f" stroke-width="0"/>
        <path d="m87.4,43.24c-3.92-1.36-5.99-5.63-4.64-9.55,1.36-3.92,5.63-5.99,9.55-4.64,3.92,1.36,5.99,5.64,4.64,9.55-1.36,3.92-5.63,6-9.55,4.64" fill="#00ff64" stroke-width="0"/>
        <path d="m81.24,92.09c-1.39-.48-2.13-2-1.65-3.39.48-1.39,2-2.13,3.4-1.65,1.39.48,2.13,2,1.65,3.4-.48,1.39-2,2.13-3.39,1.65" fill="#00ff64" stroke-width="0"/>
        <path d="m157.32,50.58c-1.39-.48-2.13-2-1.65-3.39.48-1.39,2-2.13,3.39-1.65,1.39.48,2.13,2,1.65,3.39-.48,1.39-2,2.13-3.39,1.65" fill="#42659f" stroke-width="0"/>
        <path d="m140.32,102.99c-1.39-.48-2.13-2-1.65-3.4.48-1.39,2-2.13,3.39-1.65s2.13,2,1.65,3.39c-.48,1.39-2,2.13-3.39,1.65" fill="#42659f" stroke-width="0"/>
        <path d="m109.93,109.79c-4.27-1.48-6.54-6.14-5.06-10.42,1.48-4.27,6.14-6.53,10.42-5.06,4.27,1.48,6.54,6.14,5.06,10.42-1.48,4.27-6.14,6.53-10.42,5.06" fill="#00ff64" stroke-width="0"/>
      </g>
      <g>
        <circle cx="130.86" cy="36.79" r="16.76" fill="#000e52" stroke-width="0"/>
        <polygon points="140.92 33.91 134.41 33.91 134.41 27.4 127.31 27.4 127.31 33.91 120.8 33.91 120.8 41.01 127.31 41.01 127.31 47.52 134.41 47.52 134.41 41.01 140.92 41.01 140.92 33.91" fill="#fff" stroke-width="0"/>
      </g>
    </g>
  </g>
</svg>