<svg width="56" height="80" viewBox="0 0 56 80" fill="none" xmlns="http://www.w3.org/2000/svg">
<g clip-path="url(#clip0_251_396)">
<path d="M46.6859 80.0001L28 70.3152L9.31665 80.0001L15.7977 34.937H40.2022L46.6859 80.0001Z" fill="#F8CDBF"/>
<path d="M32.3549 3.25303C33.2577 6.30779 36.9509 7.5075 39.4819 5.56524C43.0693 2.80908 48.0492 6.41878 46.5295 10.6759C45.4599 13.6778 47.7447 16.8145 50.9323 16.7273C55.4595 16.6031 57.3604 22.4431 53.6248 24.9984C50.9932 26.798 50.9932 30.6772 53.6248 32.4768C57.3604 35.0321 55.4595 40.8721 50.9323 40.7479C47.7421 40.6607 45.4573 43.7974 46.5295 46.7993C48.0465 51.0591 43.0693 54.6688 39.4819 51.91C36.9536 49.9677 33.2577 51.1648 32.3549 54.2222C31.0761 58.5586 24.9234 58.5586 23.642 54.2222C22.7392 51.1674 19.046 49.9677 16.515 51.91C12.9276 54.6661 7.94772 51.0564 9.46737 46.7993C10.537 43.7974 8.25218 40.6607 5.06461 40.7479C0.537406 40.8721 -1.36349 35.0321 2.37211 32.4768C5.00371 30.6772 5.00371 26.798 2.37211 24.9984C-1.36349 22.4431 0.537406 16.6031 5.06461 16.7273C8.25482 16.8145 10.5396 13.6778 9.46737 10.6759C7.95036 6.41614 12.9276 2.80644 16.515 5.56524C19.0433 7.5075 22.7392 6.31044 23.642 3.25303C24.9207 -1.08337 31.0735 -1.08337 32.3549 3.25303Z" fill="#EE8360"/>
<path d="M28 42.2593C35.7086 42.2593 41.9576 36.022 41.9576 28.3279C41.9576 20.6338 35.7086 14.3965 28 14.3965C20.2915 14.3965 14.0425 20.6338 14.0425 28.3279C14.0425 36.022 20.2915 42.2593 28 42.2593Z" fill="#FCE6DF"/>
</g>
<defs>
<clipPath id="clip0_251_396">
<rect width="55.2212" height="80" fill="white" transform="translate(0.389404)"/>
</clipPath>
</defs>
</svg>
