<svg width="66" height="80" viewBox="0 0 66 80" fill="none" xmlns="http://www.w3.org/2000/svg">
<g clip-path="url(#clip0_251_546)">
<path d="M33 3.90698L4.75366 14.9036V39.1112C4.75366 50.8188 11.1241 59.7401 16.4696 65.1605C22.6493 71.4274 29.367 75.1009 33 76.3299C36.6363 75.1042 43.3506 71.4308 49.5303 65.1605C54.8759 59.7401 61.2463 50.8188 61.2463 39.1112V14.9036L33 3.90698Z" fill="#D9E0EC"/>
<path d="M32.1624 79.7833C22.8707 77.3998 0.586182 62.3404 0.586182 39.2027V12.6218L33 0L65.4138 12.6218V39.2027C65.4138 62.3404 43.1293 77.3998 33.8376 79.7833L33 79.9966L32.1624 79.7833ZM33 7.16746L7.30047 17.1755V39.2027C7.30047 49.8574 13.0955 57.9728 17.9575 62.9058C23.5789 68.6106 29.6905 71.9523 33 73.0695C36.3095 71.9523 42.4211 68.6106 48.0424 62.9058C52.9045 57.9728 58.7029 49.8574 58.7029 39.2027V17.1755L33.0034 7.16746H33Z" fill="#B3C1D9"/>
<path d="M21.8015 43.0996H25.969V29.1032C25.969 25.2469 29.1253 22.1084 33.0033 22.1084C36.8814 22.1084 40.0377 25.2469 40.0377 29.1032V43.0996H44.2052V29.1032C44.2052 22.9616 39.1797 17.9644 33.0033 17.9644C26.827 17.9644 21.8015 22.9616 21.8015 29.1032V43.0996Z" fill="#000E52"/>
<path d="M16.9497 47.5653C16.9497 56.3816 24.1373 63.5253 33 63.5253C41.8661 63.5253 49.0503 56.3782 49.0503 47.5653C49.0503 38.749 41.8627 31.6052 33 31.6052C24.1339 31.6052 16.9497 38.7524 16.9497 47.5653ZM31.2465 48.9399C30.3783 48.3711 29.8029 47.3926 29.8029 46.2821C29.8029 44.5249 31.2363 43.0996 33.0034 43.0996C34.7705 43.0996 36.2039 44.5249 36.2039 46.2821C36.2039 47.396 35.6285 48.3711 34.7603 48.9399L36.1154 53.1482H29.8982L31.2533 48.9399H31.2465Z" fill="#42659F"/>
</g>
<defs>
<clipPath id="clip0_251_546">
<rect width="64.8276" height="80" fill="white" transform="translate(0.586182)"/>
</clipPath>
</defs>
</svg>
