<svg width="128" height="80" viewBox="0 0 128 80" fill="none" xmlns="http://www.w3.org/2000/svg">
<g clip-path="url(#clip0_147_945)">
<path d="M73.4831 40.6208L67.1886 38.3663C66.5107 35.3156 65.344 32.3556 63.6846 29.6044L66.6841 23.6331C66.7905 23.4242 66.7511 23.1719 66.5856 23.0025L60.9808 17.2637C60.8153 17.0942 60.563 17.0508 60.3541 17.1494L54.3118 20.0069C51.6001 18.2806 48.6676 17.043 45.6327 16.2941L43.528 9.94832C43.4531 9.7276 43.2481 9.57388 43.0116 9.56994L34.9907 9.47534C34.7582 9.47534 34.5454 9.61723 34.4665 9.83796L32.212 16.1325C29.1613 16.8104 26.2013 17.9771 23.4501 19.6364L17.4788 16.637C17.2699 16.5306 17.0177 16.57 16.8482 16.7355L11.1094 22.3403C10.9399 22.5058 10.8965 22.7581 10.9951 22.967L13.8527 29.0093C12.1263 31.721 10.8887 34.6535 10.1398 37.6884L3.79402 39.7931C3.5733 39.868 3.41958 40.073 3.41564 40.3095L3.32104 48.3303C3.32104 48.5629 3.46294 48.7757 3.68366 48.8546L9.97819 51.1091C10.6561 54.1598 11.8228 57.1198 13.4822 59.871L10.4827 65.8423C10.3763 66.0512 10.4157 66.3034 10.5812 66.4729L16.186 72.2117C16.3515 72.3812 16.6038 72.4245 16.8127 72.326L22.855 69.4684C25.5667 71.1948 28.4992 72.4324 31.5341 73.1813L33.6388 79.5271C33.7137 79.7478 33.9187 79.9015 34.1552 79.9055L42.176 80.0001C42.4086 80.0001 42.6214 79.8582 42.7003 79.6374L44.9548 73.3429C48.0055 72.665 50.9655 71.4983 53.7167 69.8389L59.688 72.8384C59.8969 72.9448 60.1491 72.9054 60.3186 72.7399L66.0574 67.1351C66.2269 66.9696 66.2702 66.7173 66.1717 66.5084L63.3141 60.4661C65.0405 57.7544 66.2781 54.8219 67.027 51.787L73.3728 49.6823C73.5935 49.6074 73.7472 49.4024 73.7472 49.1659L73.8418 41.145C73.8418 40.9125 73.6999 40.6997 73.4792 40.6208H73.4831ZM38.5814 53.1508C33.9266 53.1508 30.1546 49.3788 30.1546 44.7239C30.1546 40.069 33.9266 36.297 38.5814 36.297C43.2363 36.297 47.0083 40.069 47.0083 44.7239C47.0083 49.3788 43.2363 53.1508 38.5814 53.1508Z" fill="#009A7C"/>
<path d="M71.0355 40.6208L64.741 38.3663C64.0631 35.3156 62.8964 32.3556 61.237 29.6044L64.2365 23.6331C64.3429 23.4242 64.3035 23.1719 64.138 23.0025L58.5332 17.2637C58.3677 17.0942 58.1154 17.0508 57.9065 17.1494L51.8642 20.0069C49.1525 18.2806 46.2201 17.043 43.1851 16.2941L41.0804 9.94832C41.0055 9.7276 40.8005 9.57388 40.564 9.56994L32.5432 9.47534C32.3106 9.47534 32.0978 9.61723 32.0189 9.83796L29.7644 16.1325C26.7137 16.8104 23.7537 17.9771 21.0025 19.6364L15.0312 16.637C14.8223 16.5306 14.5701 16.57 14.4006 16.7355L8.66179 22.3403C8.49231 22.5058 8.44895 22.7581 8.54749 22.967L11.4051 29.0093C9.67869 31.721 8.44107 34.6535 7.69219 37.6884L1.34642 39.7931C1.1257 39.868 0.971985 40.073 0.968044 40.3095L0.869507 48.3303C0.869507 48.5629 1.0114 48.7757 1.23212 48.8546L7.52665 51.1091C8.20458 54.1598 9.37126 57.1198 11.0306 59.871L8.03116 65.8423C7.92474 66.0512 7.96415 66.3034 8.12969 66.4729L13.7345 72.2117C13.9 72.3812 14.1523 72.4245 14.3612 72.326L20.4034 69.4684C23.1152 71.1948 26.0476 72.4324 29.0825 73.1813L31.1873 79.5271C31.2622 79.7478 31.4671 79.9015 31.7036 79.9055L39.7245 80.0001C39.9571 80.0001 40.1699 79.8582 40.2487 79.6374L42.5032 73.3429C45.5539 72.665 48.514 71.4983 51.2651 69.8389L57.2365 72.8384C57.4454 72.9448 57.6976 72.9054 57.8671 72.7399L63.6059 67.1351C63.7754 66.9696 63.8187 66.7173 63.7202 66.5084L60.8626 60.4661C62.589 57.7544 63.8266 54.8219 64.5755 51.787L70.9212 49.6823C71.142 49.6074 71.2957 49.4024 71.2957 49.1659L71.3903 41.145C71.3903 40.9125 71.2484 40.6997 71.0277 40.6208H71.0355ZM36.1338 53.1508C31.479 53.1508 27.707 49.3788 27.707 44.7239C27.707 40.069 31.479 36.297 36.1338 36.297C40.7887 36.297 44.5607 40.069 44.5607 44.7239C44.5607 49.3788 40.7887 53.1508 36.1338 53.1508Z" fill="#CCEBE5"/>
<path d="M36.1338 64.7505C25.0898 64.7505 16.1072 55.7679 16.1072 44.7239C16.1072 33.6799 25.0898 24.6973 36.1338 24.6973C47.1778 24.6973 56.1604 33.6799 56.1604 44.7239C56.1604 55.7679 47.1778 64.7505 36.1338 64.7505ZM36.1338 26.8257C26.2643 26.8257 18.2356 34.8544 18.2356 44.7239C18.2356 54.5933 26.2643 62.6221 36.1338 62.6221C46.0032 62.6221 54.032 54.5933 54.032 44.7239C54.032 34.8544 46.0032 26.8257 36.1338 26.8257Z" fill="#009A7C"/>
<path d="M126.874 21.7609L122.476 20.1843C122.003 18.0559 121.187 15.9827 120.028 14.0632L122.121 9.88915C122.196 9.74331 122.168 9.56595 122.054 9.4477L118.136 5.43923C118.022 5.32098 117.844 5.28945 117.699 5.3604L113.477 7.35478C111.581 6.14869 109.532 5.28551 107.415 4.76129L105.945 0.327142C105.894 0.173425 105.748 0.067005 105.586 0.0630635L99.9817 0C99.8162 0 99.6703 0.0985367 99.6151 0.256195L98.0385 4.65488C95.9102 5.12785 93.8369 5.94374 91.9174 7.10253L87.7434 5.00961C87.5976 4.93472 87.4202 4.96231 87.302 5.07661L83.2935 8.99049C83.1753 9.10479 83.1437 9.28216 83.2147 9.42799L85.2091 13.6493C84.003 15.5452 83.1398 17.5947 82.6156 19.7113L78.1814 21.1815C78.0277 21.2327 77.9213 21.3785 77.9173 21.5401L77.8503 27.1449C77.8503 27.3104 77.9489 27.4563 78.1065 27.5115L82.5052 29.088C82.9782 31.2164 83.7941 33.2896 84.9529 35.2091L82.86 39.3832C82.7851 39.529 82.8127 39.7064 82.927 39.8246L86.8408 43.8331C86.9551 43.9513 87.1325 43.9829 87.2783 43.9119L91.4997 41.9175C93.3955 43.1236 95.4451 43.9868 97.5616 44.511L99.0318 48.9452C99.083 49.0989 99.2289 49.2053 99.3905 49.2092L104.995 49.2762C105.161 49.2762 105.307 49.1777 105.362 49.0201L106.938 44.6214C109.067 44.1484 111.14 43.3325 113.059 42.1737L117.234 44.2666C117.379 44.3415 117.557 44.3139 117.675 44.1996L121.683 40.2818C121.802 40.1675 121.833 39.9901 121.762 39.8443L119.768 35.623C120.974 33.7271 121.837 31.6776 122.361 29.561L126.796 28.0908C126.949 28.0396 127.056 27.8938 127.06 27.7322L127.127 22.1274C127.127 21.9619 127.028 21.816 126.87 21.7609H126.874ZM102.488 30.5149C99.2368 30.5149 96.6039 27.878 96.6039 24.6302C96.6039 21.3825 99.2407 18.7456 102.488 18.7456C105.736 18.7456 108.373 21.3825 108.373 24.6302C108.373 27.878 105.736 30.5149 102.488 30.5149Z" fill="#009A7C"/>
<path d="M125.164 21.7609L120.765 20.1843C120.292 18.0559 119.476 15.9827 118.317 14.0632L120.41 9.88915C120.485 9.74331 120.458 9.56595 120.343 9.4477L116.426 5.43923C116.311 5.32098 116.134 5.28945 115.988 5.3604L111.767 7.35478C109.871 6.14869 107.821 5.28551 105.705 4.76129L104.235 0.327142C104.183 0.173425 104.037 0.067005 103.876 0.0630635L98.2711 0C98.1056 0 97.9597 0.0985367 97.9046 0.256195L96.328 4.65488C94.1996 5.12785 92.1264 5.94374 90.2069 7.10253L86.0329 5.00961C85.887 4.93472 85.7097 4.96231 85.5914 5.07661L81.5829 8.99049C81.4647 9.10479 81.4332 9.28216 81.5041 9.42799L83.4985 13.6493C82.2924 15.5452 81.4292 17.5947 80.905 19.7113L76.4709 21.1815C76.3171 21.2327 76.2107 21.3785 76.2068 21.5401L76.1398 27.1449C76.1398 27.3104 76.2383 27.4563 76.396 27.5115L80.7946 29.088C81.2676 31.2164 82.0835 33.2896 83.2423 35.2091L81.1494 39.3832C81.0745 39.529 81.1021 39.7064 81.2164 39.8246L85.1303 43.8331C85.2446 43.9513 85.4219 43.9829 85.5678 43.9119L89.7891 41.9175C91.6849 43.1236 93.7345 43.9868 95.8511 44.511L97.3212 48.9452C97.3725 49.0989 97.5183 49.2053 97.6799 49.2092L103.285 49.2762C103.45 49.2762 103.596 49.1777 103.651 49.0201L105.228 44.6214C107.356 44.1484 109.429 43.3325 111.349 42.1737L115.523 44.2666C115.669 44.3415 115.846 44.3139 115.964 44.1996L119.973 40.2818C120.091 40.1675 120.123 39.9901 120.052 39.8443L118.057 35.623C119.263 33.7271 120.127 31.6776 120.651 29.561L125.085 28.0908C125.239 28.0396 125.345 27.8938 125.349 27.7322L125.416 22.1274C125.416 21.9619 125.317 21.816 125.16 21.7609H125.164ZM100.778 30.5149C97.5262 30.5149 94.8933 27.878 94.8933 24.6302C94.8933 21.3825 97.5301 18.7456 100.778 18.7456C104.026 18.7456 106.663 21.3825 106.663 24.6302C106.663 27.878 104.026 30.5149 100.778 30.5149Z" fill="#CCEBE5"/>
<path d="M100.782 38.6224C93.0684 38.6224 86.7897 32.3476 86.7897 24.6302C86.7897 16.9128 93.0645 10.6379 100.782 10.6379C108.499 10.6379 114.774 16.9128 114.774 24.6302C114.774 32.3476 108.499 38.6224 100.782 38.6224ZM100.782 12.1239C93.8883 12.1239 88.2756 17.7326 88.2756 24.6302C88.2756 31.5277 93.8843 37.1364 100.782 37.1364C107.679 37.1364 113.288 31.5277 113.288 24.6302C113.288 17.7326 107.679 12.1239 100.782 12.1239Z" fill="#009A7C"/>
</g>
<defs>
<clipPath id="clip0_147_945">
<rect width="126.261" height="80" fill="white" transform="translate(0.869507)"/>
</clipPath>
</defs>
</svg>
